<svg xmlns="http://www.w3.org/2000/svg">
<defs>
<font id="CinemaSt" horiz-adv-x="1718" >
  <font-face 
    font-family="Cinema St"
    font-weight="400"
    font-stretch="normal"
    units-per-em="2048"
    panose-1="2 0 5 0 0 0 0 0 0 0"
    ascent="1638"
    descent="-410"
    x-height="1728"
    cap-height="1728"
    bbox="-1 0 1720 1728"
    underline-thickness="150"
    underline-position="-142"
    unicode-range="U+0020-U+F002"
  />
<missing-glyph 
d="M0 1728h1720v-72h-20q-40 0 -44 -48v-48q4 -48 44 -48h20v-1296h-20q-40 0 -44 -48v-48q4 -48 44 -48h20v-72h-1720v72h28q40 0 44 48v48q-4 48 -44 48h-28v1296h28q40 0 44 48v48q-4 48 -44 48h-28v72zM144 1608v-48q4 -48 44 -48h56q40 0 44 48v48q-4 48 -44 48h-56
q-40 0 -44 -48zM360 1608v-48q4 -48 44 -48h56q40 0 44 48v48q-4 48 -44 48h-56q-40 0 -44 -48zM576 1608v-48q4 -48 44 -48h56q40 0 44 48v48q-4 48 -44 48h-56q-40 0 -44 -48zM792 1608v-48q4 -48 44 -48h56q40 0 44 48v48q-4 48 -44 48h-56q-40 0 -44 -48zM1008 1608v-48
q4 -48 44 -48h56q40 0 44 48v48q-4 48 -44 48h-56q-40 0 -44 -48zM1224 1608v-48q4 -48 44 -48h56q40 0 44 48v48q-4 48 -44 48h-56q-40 0 -44 -48zM1440 1608v-48q4 -48 44 -48h56q40 0 44 48v48q-4 48 -44 48h-56q-40 0 -44 -48zM144 1304v-880q0 -103 48 -128
q38 -8 60 -8h1224q70 0 96 44q12 44 12 92v880q0 103 -48 128q-38 8 -60 8h-1224q-70 0 -96 -44q-12 -44 -12 -92zM248 1168h120v-72h-88v-212h72q16 -6 16 -28v-308q0 -28 -28 -28h-104v76h84v212h-68q-20 9 -20 40v280q5 40 16 40zM404 1168h104q16 -6 16 -28v-580
q0 -40 -28 -40h-76q-32 0 -32 32v580q0 31 16 36zM544 1168h48v-572h40v572h48v-596q0 -46 -20 -52h-96q-5 0 -20 20v628zM700 1168h132v-72h-44v-576h-44v576h-44v72zM852 1168h48v-284h40v284h48v-648h-48v288h-40v-288h-48v648zM1008 1168h48q16 -149 16 -184h4l20 184
h48q-44 -317 -44 -352v-296h-48v280q0 45 -44 368zM1164 1168h120q11 0 16 -40v-304q0 -52 -28 -52h-60v-244q0 -8 -8 -8h-40v648zM1316 1168h136v-72h-88v-212h44v-76h-44v-212h88v-76h-128q-8 0 -8 8v640zM436 1096v-500h40v500h-40zM1212 1096v-248h40v248h-40zM144 168

<glyph glyph-name=".notdef" 
d="M0 1728h1720v-72h-20q-40 0 -44 -48v-48q4 -48 44 -48h20v-1296h-20q-40 0 -44 -48v-48q4 -48 44 -48h20v-72h-1720v72h28q40 0 44 48v48q-4 48 -44 48h-28v1296h28q40 0 44 48v48q-4 48 -44 48h-28v72zM144 1608v-48q4 -48 44 -48h56q40 0 44 48v48q-4 48 -44 48h-56
q-40 0 -44 -48zM360 1608v-48q4 -48 44 -48h56q40 0 44 48v48q-4 48 -44 48h-56q-40 0 -44 -48zM576 1608v-48q4 -48 44 -48h56q40 0 44 48v48q-4 48 -44 48h-56q-40 0 -44 -48zM792 1608v-48q4 -48 44 -48h56q40 0 44 48v48q-4 48 -44 48h-56q-40 0 -44 -48zM1008 1608v-48
q4 -48 44 -48h56q40 0 44 48v48q-4 48 -44 48h-56q-40 0 -44 -48zM1224 1608v-48q4 -48 44 -48h56q40 0 44 48v48q-4 48 -44 48h-56q-40 0 -44 -48zM1440 1608v-48q4 -48 44 -48h56q40 0 44 48v48q-4 48 -44 48h-56q-40 0 -44 -48zM144 1304v-880q0 -103 48 -128
q38 -8 60 -8h1224q70 0 96 44q12 44 12 92v880q0 103 -48 128q-38 8 -60 8h-1224q-70 0 -96 -44q-12 -44 -12 -92zM248 1168h120v-72h-88v-212h72q16 -6 16 -28v-308q0 -28 -28 -28h-104v76h84v212h-68q-20 9 -20 40v280q5 40 16 40zM404 1168h104q16 -6 16 -28v-580
q0 -40 -28 -40h-76q-32 0 -32 32v580q0 31 16 36zM544 1168h48v-572h40v572h48v-596q0 -46 -20 -52h-96q-5 0 -20 20v628zM700 1168h132v-72h-44v-576h-44v576h-44v72zM852 1168h48v-284h40v284h48v-648h-48v288h-40v-288h-48v648zM1008 1168h48q16 -149 16 -184h4l20 184
h48q-44 -317 -44 -352v-296h-48v280q0 45 -44 368zM1164 1168h120q11 0 16 -40v-304q0 -52 -28 -52h-60v-244q0 -8 -8 -8h-40v648zM1316 1168h136v-72h-88v-212h44v-76h-44v-212h88v-76h-128q-8 0 -8 8v640zM436 1096v-500h40v500h-40zM1212 1096v-248h40v248h-40zM144 168
v-48q4 -48 44 -48h56q40 0 44 48v48q-4 48 -44 48h-56q-40 0 -44 -48zM360 168v-48q4 -48 44 -48h56q40 0 44 48v48q-4 48 -44 48h-56q-40 0 -44 -48zM576 168v-48q4 -48 44 -48h56q40 0 44 48v48q-4 48 -44 48h-56q-40 0 -44 -48zM792 168v-48q4 -48 44 -48h56q40 0 44 48
v48q-4 48 -44 48h-56q-40 0 -44 -48zM1008 168v-48q4 -48 44 -48h56q40 0 44 48v48q-4 48 -44 48h-56q-40 0 -44 -48zM1224 168v-48q4 -48 44 -48h56q40 0 44 48v48q-4 48 -44 48h-56q-40 0 -44 -48zM1440 168v-48q4 -48 44 -48h56q40 0 44 48v48q-4 48 -44 48h-56
q-40 0 -44 -48z" />
    <glyph glyph-name=".null" horiz-adv-x="0" 
 />
    <glyph glyph-name="nonmarkingreturn" horiz-adv-x="508" 
 />
    <glyph glyph-name="space" unicode=" " 
d="M-1 1728h1720v-72h-20q-40 0 -44 -48v-48q4 -48 44 -48h20v-1296h-20q-40 0 -44 -48v-48q4 -48 44 -48h20v-72h-1720v72h28q40 0 44 48v48q-4 48 -44 48h-28v1296h28q40 0 44 48v48q-4 48 -44 48h-28v72zM143 1608v-48q4 -48 44 -48h56q40 0 44 48v48q-4 48 -44 48h-56
q-40 0 -44 -48zM359 1608v-48q4 -48 44 -48h56q40 0 44 48v48q-4 48 -44 48h-56q-40 0 -44 -48zM575 1608v-48q4 -48 44 -48h56q40 0 44 48v48q-4 48 -44 48h-56q-40 0 -44 -48zM791 1608v-48q4 -48 44 -48h56q40 0 44 48v48q-4 48 -44 48h-56q-40 0 -44 -48zM1007 1608v-48
q4 -48 44 -48h56q40 0 44 48v48q-4 48 -44 48h-56q-40 0 -44 -48zM1223 1608v-48q4 -48 44 -48h56q40 0 44 48v48q-4 48 -44 48h-56q-40 0 -44 -48zM1439 1608v-48q4 -48 44 -48h56q40 0 44 48v48q-4 48 -44 48h-56q-40 0 -44 -48zM143 1304v-880q0 -103 48 -128
q38 -8 60 -8h1224q70 0 96 44q12 44 12 92v880q0 103 -48 128q-38 8 -60 8h-1224q-70 0 -96 -44q-12 -44 -12 -92zM143 168v-48q4 -48 44 -48h56q40 0 44 48v48q-4 48 -44 48h-56q-40 0 -44 -48zM359 168v-48q4 -48 44 -48h56q40 0 44 48v48q-4 48 -44 48h-56q-40 0 -44 -48
zM575 168v-48q4 -48 44 -48h56q40 0 44 48v48q-4 48 -44 48h-56q-40 0 -44 -48zM791 168v-48q4 -48 44 -48h56q40 0 44 48v48q-4 48 -44 48h-56q-40 0 -44 -48zM1007 168v-48q4 -48 44 -48h56q40 0 44 48v48q-4 48 -44 48h-56q-40 0 -44 -48zM1223 168v-48q4 -48 44 -48h56
q40 0 44 48v48q-4 48 -44 48h-56q-40 0 -44 -48zM1439 168v-48q4 -48 44 -48h56q40 0 44 48v48q-4 48 -44 48h-56q-40 0 -44 -48z" />
    <glyph glyph-name="space" unicode="&#xa0;" 
d="M-1 1728h1720v-72h-20q-40 0 -44 -48v-48q4 -48 44 -48h20v-1296h-20q-40 0 -44 -48v-48q4 -48 44 -48h20v-72h-1720v72h28q40 0 44 48v48q-4 48 -44 48h-28v1296h28q40 0 44 48v48q-4 48 -44 48h-28v72zM143 1608v-48q4 -48 44 -48h56q40 0 44 48v48q-4 48 -44 48h-56
q-40 0 -44 -48zM359 1608v-48q4 -48 44 -48h56q40 0 44 48v48q-4 48 -44 48h-56q-40 0 -44 -48zM575 1608v-48q4 -48 44 -48h56q40 0 44 48v48q-4 48 -44 48h-56q-40 0 -44 -48zM791 1608v-48q4 -48 44 -48h56q40 0 44 48v48q-4 48 -44 48h-56q-40 0 -44 -48zM1007 1608v-48
q4 -48 44 -48h56q40 0 44 48v48q-4 48 -44 48h-56q-40 0 -44 -48zM1223 1608v-48q4 -48 44 -48h56q40 0 44 48v48q-4 48 -44 48h-56q-40 0 -44 -48zM1439 1608v-48q4 -48 44 -48h56q40 0 44 48v48q-4 48 -44 48h-56q-40 0 -44 -48zM143 1304v-880q0 -103 48 -128
q38 -8 60 -8h1224q70 0 96 44q12 44 12 92v880q0 103 -48 128q-38 8 -60 8h-1224q-70 0 -96 -44q-12 -44 -12 -92zM143 168v-48q4 -48 44 -48h56q40 0 44 48v48q-4 48 -44 48h-56q-40 0 -44 -48zM359 168v-48q4 -48 44 -48h56q40 0 44 48v48q-4 48 -44 48h-56q-40 0 -44 -48
zM575 168v-48q4 -48 44 -48h56q40 0 44 48v48q-4 48 -44 48h-56q-40 0 -44 -48zM791 168v-48q4 -48 44 -48h56q40 0 44 48v48q-4 48 -44 48h-56q-40 0 -44 -48zM1007 168v-48q4 -48 44 -48h56q40 0 44 48v48q-4 48 -44 48h-56q-40 0 -44 -48zM1223 168v-48q4 -48 44 -48h56
q40 0 44 48v48q-4 48 -44 48h-56q-40 0 -44 -48zM1439 168v-48q4 -48 44 -48h56q40 0 44 48v48q-4 48 -44 48h-56q-40 0 -44 -48z" />
    <glyph glyph-name="exclam" unicode="!" 
 />
    <glyph glyph-name="quotedbl" unicode="&#x22;" 
 />
    <glyph glyph-name="numbersign" unicode="#" 
 />
    <glyph glyph-name="dollar" unicode="$" 
d="M-1 1728h1720v-72h-20q-40 0 -44 -48v-48q4 -48 44 -48h20v-1296h-20q-40 0 -44 -48v-48q4 -48 44 -48h20v-72h-1720v72h28q40 0 44 48v48q-4 48 -44 48h-28v1296h28q40 0 44 48v48q-4 48 -44 48h-28v72zM143 1608v-48q4 -48 44 -48h56q40 0 44 48v48q-4 48 -44 48h-56
q-40 0 -44 -48zM359 1608v-48q4 -48 44 -48h56q40 0 44 48v48q-4 48 -44 48h-56q-40 0 -44 -48zM575 1608v-48q4 -48 44 -48h56q40 0 44 48v48q-4 48 -44 48h-56q-40 0 -44 -48zM791 1608v-48q4 -48 44 -48h56q40 0 44 48v48q-4 48 -44 48h-56q-40 0 -44 -48zM1007 1608v-48
q4 -48 44 -48h56q40 0 44 48v48q-4 48 -44 48h-56q-40 0 -44 -48zM1223 1608v-48q4 -48 44 -48h56q40 0 44 48v48q-4 48 -44 48h-56q-40 0 -44 -48zM1439 1608v-48q4 -48 44 -48h56q40 0 44 48v48q-4 48 -44 48h-56q-40 0 -44 -48zM143 1304v-880q0 -103 48 -128
q38 -8 60 -8h1224q70 0 96 44q12 44 12 92v880q0 103 -48 128q-38 8 -60 8h-1224q-70 0 -96 -44q-12 -44 -12 -92zM859 1436h200v-100h100v-104h-100v-200h-200v200h-100v-296h316q84 -7 84 -48v-416q-25 -40 -100 -40h-200v-100h-200v100h-96v104h96v200h200v-200h100v300
h-316q-84 7 -84 48v412q25 40 100 40h200v100zM143 168v-48q4 -48 44 -48h56q40 0 44 48v48q-4 48 -44 48h-56q-40 0 -44 -48zM359 168v-48q4 -48 44 -48h56q40 0 44 48v48q-4 48 -44 48h-56q-40 0 -44 -48zM575 168v-48q4 -48 44 -48h56q40 0 44 48v48q-4 48 -44 48h-56
q-40 0 -44 -48zM791 168v-48q4 -48 44 -48h56q40 0 44 48v48q-4 48 -44 48h-56q-40 0 -44 -48zM1007 168v-48q4 -48 44 -48h56q40 0 44 48v48q-4 48 -44 48h-56q-40 0 -44 -48zM1223 168v-48q4 -48 44 -48h56q40 0 44 48v48q-4 48 -44 48h-56q-40 0 -44 -48zM1439 168v-48
q4 -48 44 -48h56q40 0 44 48v48q-4 48 -44 48h-56q-40 0 -44 -48z" />
    <glyph glyph-name="percent" unicode="%" 
d="M-1 1728h1720v-72h-20q-40 0 -44 -48v-48q4 -48 44 -48h20v-1296h-20q-40 0 -44 -48v-48q4 -48 44 -48h20v-72h-1720v72h28q40 0 44 48v48q-4 48 -44 48h-28v1296h28q40 0 44 48v48q-4 48 -44 48h-28v72zM143 1608v-48q4 -48 44 -48h56q40 0 44 48v48q-4 48 -44 48h-56
q-40 0 -44 -48zM359 1608v-48q4 -48 44 -48h56q40 0 44 48v48q-4 48 -44 48h-56q-40 0 -44 -48zM575 1608v-48q4 -48 44 -48h56q40 0 44 48v48q-4 48 -44 48h-56q-40 0 -44 -48zM791 1608v-48q4 -48 44 -48h56q40 0 44 48v48q-4 48 -44 48h-56q-40 0 -44 -48zM1007 1608v-48
q4 -48 44 -48h56q40 0 44 48v48q-4 48 -44 48h-56q-40 0 -44 -48zM1223 1608v-48q4 -48 44 -48h56q40 0 44 48v48q-4 48 -44 48h-56q-40 0 -44 -48zM1439 1608v-48q4 -48 44 -48h56q40 0 44 48v48q-4 48 -44 48h-56q-40 0 -44 -48zM143 1304v-880q0 -103 48 -128
q38 -8 60 -8h1224q70 0 96 44q12 44 12 92v880q0 103 -48 128q-38 8 -60 8h-1224q-70 0 -96 -44q-12 -44 -12 -92zM959 1336h204v-4q0 -6 -396 -900h-204q12 36 384 872q12 20 12 32zM703 1332h32q96 0 136 -60v-24q0 -58 -152 -72q-152 14 -152 72v24q40 60 136 60z
M659 1256q13 -28 52 -28h16q32 0 52 24q-12 32 -64 32q-33 0 -56 -28zM999 584h32q96 0 136 -60v-24q0 -58 -152 -72q-152 14 -152 72v24q40 60 136 60zM955 508q13 -28 52 -28h16q32 0 52 24q-12 32 -64 32q-33 0 -56 -28zM143 168v-48q4 -48 44 -48h56q40 0 44 48v48
q-4 48 -44 48h-56q-40 0 -44 -48zM359 168v-48q4 -48 44 -48h56q40 0 44 48v48q-4 48 -44 48h-56q-40 0 -44 -48zM575 168v-48q4 -48 44 -48h56q40 0 44 48v48q-4 48 -44 48h-56q-40 0 -44 -48zM791 168v-48q4 -48 44 -48h56q40 0 44 48v48q-4 48 -44 48h-56q-40 0 -44 -48z
M1007 168v-48q4 -48 44 -48h56q40 0 44 48v48q-4 48 -44 48h-56q-40 0 -44 -48zM1223 168v-48q4 -48 44 -48h56q40 0 44 48v48q-4 48 -44 48h-56q-40 0 -44 -48zM1439 168v-48q4 -48 44 -48h56q40 0 44 48v48q-4 48 -44 48h-56q-40 0 -44 -48z" />
    <glyph glyph-name="ampersand" unicode="&#x26;" 
 />
    <glyph glyph-name="quotesingle" unicode="'" 
 />
    <glyph glyph-name="parenleft" unicode="(" 
d="M-1 1728h1720v-72h-20q-40 0 -44 -48v-48q4 -48 44 -48h20v-1296h-20q-40 0 -44 -48v-48q4 -48 44 -48h20v-72h-1720v72h28q40 0 44 48v48q-4 48 -44 48h-28v1296h28q40 0 44 48v48q-4 48 -44 48h-28v72zM143 1608v-48q4 -48 44 -48h56q40 0 44 48v48q-4 48 -44 48h-56
q-40 0 -44 -48zM359 1608v-48q4 -48 44 -48h56q40 0 44 48v48q-4 48 -44 48h-56q-40 0 -44 -48zM575 1608v-48q4 -48 44 -48h56q40 0 44 48v48q-4 48 -44 48h-56q-40 0 -44 -48zM791 1608v-48q4 -48 44 -48h56q40 0 44 48v48q-4 48 -44 48h-56q-40 0 -44 -48zM1007 1608v-48
q4 -48 44 -48h56q40 0 44 48v48q-4 48 -44 48h-56q-40 0 -44 -48zM1223 1608v-48q4 -48 44 -48h56q40 0 44 48v48q-4 48 -44 48h-56q-40 0 -44 -48zM1439 1608v-48q4 -48 44 -48h56q40 0 44 48v48q-4 48 -44 48h-56q-40 0 -44 -48zM143 1304v-880q0 -103 48 -128
q38 -8 60 -8h1224q70 0 96 44q12 44 12 92v880q0 103 -48 128q-38 8 -60 8h-1224q-70 0 -96 -44q-12 -44 -12 -92zM675 1332h400q75 0 100 -40v-64h-400v-696h400v-64q-25 -40 -100 -40h-400q-75 0 -100 40v824q25 40 100 40zM143 168v-48q4 -48 44 -48h56q40 0 44 48v48
q-4 48 -44 48h-56q-40 0 -44 -48zM359 168v-48q4 -48 44 -48h56q40 0 44 48v48q-4 48 -44 48h-56q-40 0 -44 -48zM575 168v-48q4 -48 44 -48h56q40 0 44 48v48q-4 48 -44 48h-56q-40 0 -44 -48zM791 168v-48q4 -48 44 -48h56q40 0 44 48v48q-4 48 -44 48h-56q-40 0 -44 -48z
M1007 168v-48q4 -48 44 -48h56q40 0 44 48v48q-4 48 -44 48h-56q-40 0 -44 -48zM1223 168v-48q4 -48 44 -48h56q40 0 44 48v48q-4 48 -44 48h-56q-40 0 -44 -48zM1439 168v-48q4 -48 44 -48h56q40 0 44 48v48q-4 48 -44 48h-56q-40 0 -44 -48z" />
    <glyph glyph-name="parenright" unicode=")" 
d="M1719 1656h-28q-40 0 -44 -48v-48q4 -48 44 -48h28v-1296h-28q-40 0 -44 -48v-48q4 -48 44 -48h28v-72h-1720v72h20q40 0 44 48v48q-4 48 -44 48h-20v1296h20q40 0 44 48v48q-4 48 -44 48h-20v72h1720v-72zM1531 1656h-56q-40 0 -44 -48v-48q4 -48 44 -48h56q40 0 44 48
v48q-4 48 -44 48zM1315 1656h-56q-40 0 -44 -48v-48q4 -48 44 -48h56q40 0 44 48v48q-4 48 -44 48zM1099 1656h-56q-40 0 -44 -48v-48q4 -48 44 -48h56q40 0 44 48v48q-4 48 -44 48zM883 1656h-56q-40 0 -44 -48v-48q4 -48 44 -48h56q40 0 44 48v48q-4 48 -44 48zM667 1656
h-56q-40 0 -44 -48v-48q4 -48 44 -48h56q40 0 44 48v48q-4 48 -44 48zM451 1656h-56q-40 0 -44 -48v-48q4 -48 44 -48h56q40 0 44 48v48q-4 48 -44 48zM235 1656h-56q-40 0 -44 -48v-48q4 -48 44 -48h56q40 0 44 48v48q-4 48 -44 48zM1563 1396q-26 44 -96 44h-1224
q-22 0 -60 -8q-48 -25 -48 -128v-880q0 -48 12 -92q26 -44 96 -44h1224q22 0 60 8q48 25 48 128v880q0 48 -12 92zM1143 1292v-824q-25 -40 -100 -40h-400q-75 0 -100 40v64h400v696h-400v64q25 40 100 40h400q75 0 100 -40zM1531 216h-56q-40 0 -44 -48v-48q4 -48 44 -48
h56q40 0 44 48v48q-4 48 -44 48zM1315 216h-56q-40 0 -44 -48v-48q4 -48 44 -48h56q40 0 44 48v48q-4 48 -44 48zM1099 216h-56q-40 0 -44 -48v-48q4 -48 44 -48h56q40 0 44 48v48q-4 48 -44 48zM883 216h-56q-40 0 -44 -48v-48q4 -48 44 -48h56q40 0 44 48v48q-4 48 -44 48
zM667 216h-56q-40 0 -44 -48v-48q4 -48 44 -48h56q40 0 44 48v48q-4 48 -44 48zM451 216h-56q-40 0 -44 -48v-48q4 -48 44 -48h56q40 0 44 48v48q-4 48 -44 48zM235 216h-56q-40 0 -44 -48v-48q4 -48 44 -48h56q40 0 44 48v48q-4 48 -44 48z" />
    <glyph glyph-name="asterisk" unicode="*" 
 />
    <glyph glyph-name="plus" unicode="+" 
d="M-1 1728h1720v-72h-20q-40 0 -44 -48v-48q4 -48 44 -48h20v-1296h-20q-40 0 -44 -48v-48q4 -48 44 -48h20v-72h-1720v72h28q40 0 44 48v48q-4 48 -44 48h-28v1296h28q40 0 44 48v48q-4 48 -44 48h-28v72zM143 1608v-48q4 -48 44 -48h56q40 0 44 48v48q-4 48 -44 48h-56
q-40 0 -44 -48zM359 1608v-48q4 -48 44 -48h56q40 0 44 48v48q-4 48 -44 48h-56q-40 0 -44 -48zM575 1608v-48q4 -48 44 -48h56q40 0 44 48v48q-4 48 -44 48h-56q-40 0 -44 -48zM791 1608v-48q4 -48 44 -48h56q40 0 44 48v48q-4 48 -44 48h-56q-40 0 -44 -48zM1007 1608v-48
q4 -48 44 -48h56q40 0 44 48v48q-4 48 -44 48h-56q-40 0 -44 -48zM1223 1608v-48q4 -48 44 -48h56q40 0 44 48v48q-4 48 -44 48h-56q-40 0 -44 -48zM1439 1608v-48q4 -48 44 -48h56q40 0 44 48v48q-4 48 -44 48h-56q-40 0 -44 -48zM143 1304v-880q0 -103 48 -128
q38 -8 60 -8h1224q70 0 96 44q12 44 12 92v880q0 103 -48 128q-38 8 -60 8h-1224q-70 0 -96 -44q-12 -44 -12 -92zM763 1080h200v-100h200v-104h-200v-100h-200v100h-200v104h200v100zM143 168v-48q4 -48 44 -48h56q40 0 44 48v48q-4 48 -44 48h-56q-40 0 -44 -48zM359 168
v-48q4 -48 44 -48h56q40 0 44 48v48q-4 48 -44 48h-56q-40 0 -44 -48zM575 168v-48q4 -48 44 -48h56q40 0 44 48v48q-4 48 -44 48h-56q-40 0 -44 -48zM791 168v-48q4 -48 44 -48h56q40 0 44 48v48q-4 48 -44 48h-56q-40 0 -44 -48zM1007 168v-48q4 -48 44 -48h56q40 0 44 48
v48q-4 48 -44 48h-56q-40 0 -44 -48zM1223 168v-48q4 -48 44 -48h56q40 0 44 48v48q-4 48 -44 48h-56q-40 0 -44 -48zM1439 168v-48q4 -48 44 -48h56q40 0 44 48v48q-4 48 -44 48h-56q-40 0 -44 -48z" />
    <glyph glyph-name="comma" unicode="," 
d="M-1 1728h1720v-72h-20q-40 0 -44 -48v-48q4 -48 44 -48h20v-1296h-20q-40 0 -44 -48v-48q4 -48 44 -48h20v-72h-1720v72h28q40 0 44 48v48q-4 48 -44 48h-28v1296h28q40 0 44 48v48q-4 48 -44 48h-28v72zM143 1608v-48q4 -48 44 -48h56q40 0 44 48v48q-4 48 -44 48h-56
q-40 0 -44 -48zM359 1608v-48q4 -48 44 -48h56q40 0 44 48v48q-4 48 -44 48h-56q-40 0 -44 -48zM575 1608v-48q4 -48 44 -48h56q40 0 44 48v48q-4 48 -44 48h-56q-40 0 -44 -48zM791 1608v-48q4 -48 44 -48h56q40 0 44 48v48q-4 48 -44 48h-56q-40 0 -44 -48zM1007 1608v-48
q4 -48 44 -48h56q40 0 44 48v48q-4 48 -44 48h-56q-40 0 -44 -48zM1223 1608v-48q4 -48 44 -48h56q40 0 44 48v48q-4 48 -44 48h-56q-40 0 -44 -48zM1439 1608v-48q4 -48 44 -48h56q40 0 44 48v48q-4 48 -44 48h-56q-40 0 -44 -48zM143 1304v-880q0 -103 48 -128
q38 -8 60 -8h1224q70 0 96 44q12 44 12 92v880q0 103 -48 128q-38 8 -60 8h-1224q-70 0 -96 -44q-12 -44 -12 -92zM847 632h24q88 -19 88 -88v-20q0 -65 -128 -200q-24 -12 -32 -12h-20q-21 0 -28 92q0 172 32 200q36 28 64 28zM143 168v-48q4 -48 44 -48h56q40 0 44 48v48
q-4 48 -44 48h-56q-40 0 -44 -48zM359 168v-48q4 -48 44 -48h56q40 0 44 48v48q-4 48 -44 48h-56q-40 0 -44 -48zM575 168v-48q4 -48 44 -48h56q40 0 44 48v48q-4 48 -44 48h-56q-40 0 -44 -48zM791 168v-48q4 -48 44 -48h56q40 0 44 48v48q-4 48 -44 48h-56q-40 0 -44 -48z
M1007 168v-48q4 -48 44 -48h56q40 0 44 48v48q-4 48 -44 48h-56q-40 0 -44 -48zM1223 168v-48q4 -48 44 -48h56q40 0 44 48v48q-4 48 -44 48h-56q-40 0 -44 -48zM1439 168v-48q4 -48 44 -48h56q40 0 44 48v48q-4 48 -44 48h-56q-40 0 -44 -48z" />
    <glyph glyph-name="hyphen" unicode="-" 
d="M-1 1728h1720v-72h-20q-40 0 -44 -48v-48q4 -48 44 -48h20v-1296h-20q-40 0 -44 -48v-48q4 -48 44 -48h20v-72h-1720v72h28q40 0 44 48v48q-4 48 -44 48h-28v1296h28q40 0 44 48v48q-4 48 -44 48h-28v72zM143 1608v-48q4 -48 44 -48h56q40 0 44 48v48q-4 48 -44 48h-56
q-40 0 -44 -48zM359 1608v-48q4 -48 44 -48h56q40 0 44 48v48q-4 48 -44 48h-56q-40 0 -44 -48zM575 1608v-48q4 -48 44 -48h56q40 0 44 48v48q-4 48 -44 48h-56q-40 0 -44 -48zM791 1608v-48q4 -48 44 -48h56q40 0 44 48v48q-4 48 -44 48h-56q-40 0 -44 -48zM1007 1608v-48
q4 -48 44 -48h56q40 0 44 48v48q-4 48 -44 48h-56q-40 0 -44 -48zM1223 1608v-48q4 -48 44 -48h56q40 0 44 48v48q-4 48 -44 48h-56q-40 0 -44 -48zM1439 1608v-48q4 -48 44 -48h56q40 0 44 48v48q-4 48 -44 48h-56q-40 0 -44 -48zM143 1304v-880q0 -103 48 -128
q38 -8 60 -8h1224q70 0 96 44q12 44 12 92v880q0 103 -48 128q-38 8 -60 8h-1224q-70 0 -96 -44q-12 -44 -12 -92zM559 908h600v-100h-600v100zM143 168v-48q4 -48 44 -48h56q40 0 44 48v48q-4 48 -44 48h-56q-40 0 -44 -48zM359 168v-48q4 -48 44 -48h56q40 0 44 48v48
q-4 48 -44 48h-56q-40 0 -44 -48zM575 168v-48q4 -48 44 -48h56q40 0 44 48v48q-4 48 -44 48h-56q-40 0 -44 -48zM791 168v-48q4 -48 44 -48h56q40 0 44 48v48q-4 48 -44 48h-56q-40 0 -44 -48zM1007 168v-48q4 -48 44 -48h56q40 0 44 48v48q-4 48 -44 48h-56q-40 0 -44 -48
zM1223 168v-48q4 -48 44 -48h56q40 0 44 48v48q-4 48 -44 48h-56q-40 0 -44 -48zM1439 168v-48q4 -48 44 -48h56q40 0 44 48v48q-4 48 -44 48h-56q-40 0 -44 -48z" />
    <glyph glyph-name="hyphen" unicode="&#xad;" 
d="M-1 1728h1720v-72h-20q-40 0 -44 -48v-48q4 -48 44 -48h20v-1296h-20q-40 0 -44 -48v-48q4 -48 44 -48h20v-72h-1720v72h28q40 0 44 48v48q-4 48 -44 48h-28v1296h28q40 0 44 48v48q-4 48 -44 48h-28v72zM143 1608v-48q4 -48 44 -48h56q40 0 44 48v48q-4 48 -44 48h-56
q-40 0 -44 -48zM359 1608v-48q4 -48 44 -48h56q40 0 44 48v48q-4 48 -44 48h-56q-40 0 -44 -48zM575 1608v-48q4 -48 44 -48h56q40 0 44 48v48q-4 48 -44 48h-56q-40 0 -44 -48zM791 1608v-48q4 -48 44 -48h56q40 0 44 48v48q-4 48 -44 48h-56q-40 0 -44 -48zM1007 1608v-48
q4 -48 44 -48h56q40 0 44 48v48q-4 48 -44 48h-56q-40 0 -44 -48zM1223 1608v-48q4 -48 44 -48h56q40 0 44 48v48q-4 48 -44 48h-56q-40 0 -44 -48zM1439 1608v-48q4 -48 44 -48h56q40 0 44 48v48q-4 48 -44 48h-56q-40 0 -44 -48zM143 1304v-880q0 -103 48 -128
q38 -8 60 -8h1224q70 0 96 44q12 44 12 92v880q0 103 -48 128q-38 8 -60 8h-1224q-70 0 -96 -44q-12 -44 -12 -92zM559 908h600v-100h-600v100zM143 168v-48q4 -48 44 -48h56q40 0 44 48v48q-4 48 -44 48h-56q-40 0 -44 -48zM359 168v-48q4 -48 44 -48h56q40 0 44 48v48
q-4 48 -44 48h-56q-40 0 -44 -48zM575 168v-48q4 -48 44 -48h56q40 0 44 48v48q-4 48 -44 48h-56q-40 0 -44 -48zM791 168v-48q4 -48 44 -48h56q40 0 44 48v48q-4 48 -44 48h-56q-40 0 -44 -48zM1007 168v-48q4 -48 44 -48h56q40 0 44 48v48q-4 48 -44 48h-56q-40 0 -44 -48
zM1223 168v-48q4 -48 44 -48h56q40 0 44 48v48q-4 48 -44 48h-56q-40 0 -44 -48zM1439 168v-48q4 -48 44 -48h56q40 0 44 48v48q-4 48 -44 48h-56q-40 0 -44 -48z" />
    <glyph glyph-name="period" unicode="." 
d="M-1 1728h1720v-72h-20q-40 0 -44 -48v-48q4 -48 44 -48h20v-1296h-20q-40 0 -44 -48v-48q4 -48 44 -48h20v-72h-1720v72h28q40 0 44 48v48q-4 48 -44 48h-28v1296h28q40 0 44 48v48q-4 48 -44 48h-28v72zM143 1608v-48q4 -48 44 -48h56q40 0 44 48v48q-4 48 -44 48h-56
q-40 0 -44 -48zM359 1608v-48q4 -48 44 -48h56q40 0 44 48v48q-4 48 -44 48h-56q-40 0 -44 -48zM575 1608v-48q4 -48 44 -48h56q40 0 44 48v48q-4 48 -44 48h-56q-40 0 -44 -48zM791 1608v-48q4 -48 44 -48h56q40 0 44 48v48q-4 48 -44 48h-56q-40 0 -44 -48zM1007 1608v-48
q4 -48 44 -48h56q40 0 44 48v48q-4 48 -44 48h-56q-40 0 -44 -48zM1223 1608v-48q4 -48 44 -48h56q40 0 44 48v48q-4 48 -44 48h-56q-40 0 -44 -48zM1439 1608v-48q4 -48 44 -48h56q40 0 44 48v48q-4 48 -44 48h-56q-40 0 -44 -48zM143 1304v-880q0 -103 48 -128
q38 -8 60 -8h1224q70 0 96 44q12 44 12 92v880q0 103 -48 128q-38 8 -60 8h-1224q-70 0 -96 -44q-12 -44 -12 -92zM847 632h24q88 -19 88 -88v-24q-19 -88 -88 -88h-24q-88 19 -88 88v24q19 88 88 88zM143 168v-48q4 -48 44 -48h56q40 0 44 48v48q-4 48 -44 48h-56
q-40 0 -44 -48zM359 168v-48q4 -48 44 -48h56q40 0 44 48v48q-4 48 -44 48h-56q-40 0 -44 -48zM575 168v-48q4 -48 44 -48h56q40 0 44 48v48q-4 48 -44 48h-56q-40 0 -44 -48zM791 168v-48q4 -48 44 -48h56q40 0 44 48v48q-4 48 -44 48h-56q-40 0 -44 -48zM1007 168v-48
q4 -48 44 -48h56q40 0 44 48v48q-4 48 -44 48h-56q-40 0 -44 -48zM1223 168v-48q4 -48 44 -48h56q40 0 44 48v48q-4 48 -44 48h-56q-40 0 -44 -48zM1439 168v-48q4 -48 44 -48h56q40 0 44 48v48q-4 48 -44 48h-56q-40 0 -44 -48z" />
    <glyph glyph-name="slash" unicode="/" 
d="M-1 1728h1720v-72h-20q-40 0 -44 -48v-48q4 -48 44 -48h20v-1296h-20q-40 0 -44 -48v-48q4 -48 44 -48h20v-72h-1720v72h28q40 0 44 48v48q-4 48 -44 48h-28v1296h28q40 0 44 48v48q-4 48 -44 48h-28v72zM143 1608v-48q4 -48 44 -48h56q40 0 44 48v48q-4 48 -44 48h-56
q-40 0 -44 -48zM359 1608v-48q4 -48 44 -48h56q40 0 44 48v48q-4 48 -44 48h-56q-40 0 -44 -48zM575 1608v-48q4 -48 44 -48h56q40 0 44 48v48q-4 48 -44 48h-56q-40 0 -44 -48zM791 1608v-48q4 -48 44 -48h56q40 0 44 48v48q-4 48 -44 48h-56q-40 0 -44 -48zM1007 1608v-48
q4 -48 44 -48h56q40 0 44 48v48q-4 48 -44 48h-56q-40 0 -44 -48zM1223 1608v-48q4 -48 44 -48h56q40 0 44 48v48q-4 48 -44 48h-56q-40 0 -44 -48zM1439 1608v-48q4 -48 44 -48h56q40 0 44 48v48q-4 48 -44 48h-56q-40 0 -44 -48zM143 1304v-880q0 -103 48 -128
q38 -8 60 -8h1224q70 0 96 44q12 44 12 92v880q0 103 -48 128q-38 8 -60 8h-1224q-70 0 -96 -44q-12 -44 -12 -92zM951 1332h204v-4l-396 -900h-204q0 8 396 904zM143 168v-48q4 -48 44 -48h56q40 0 44 48v48q-4 48 -44 48h-56q-40 0 -44 -48zM359 168v-48q4 -48 44 -48h56
q40 0 44 48v48q-4 48 -44 48h-56q-40 0 -44 -48zM575 168v-48q4 -48 44 -48h56q40 0 44 48v48q-4 48 -44 48h-56q-40 0 -44 -48zM791 168v-48q4 -48 44 -48h56q40 0 44 48v48q-4 48 -44 48h-56q-40 0 -44 -48zM1007 168v-48q4 -48 44 -48h56q40 0 44 48v48q-4 48 -44 48h-56
q-40 0 -44 -48zM1223 168v-48q4 -48 44 -48h56q40 0 44 48v48q-4 48 -44 48h-56q-40 0 -44 -48zM1439 168v-48q4 -48 44 -48h56q40 0 44 48v48q-4 48 -44 48h-56q-40 0 -44 -48z" />
    <glyph glyph-name="zero" unicode="0" 
d="M-1 1728h1720v-72h-20q-40 0 -44 -48v-48q4 -48 44 -48h20v-1296h-20q-40 0 -44 -48v-48q4 -48 44 -48h20v-72h-1720v72h28q40 0 44 48v48q-4 48 -44 48h-28v1296h28q40 0 44 48v48q-4 48 -44 48h-28v72zM143 1608v-48q4 -48 44 -48h56q40 0 44 48v48q-4 48 -44 48h-56
q-40 0 -44 -48zM359 1608v-48q4 -48 44 -48h56q40 0 44 48v48q-4 48 -44 48h-56q-40 0 -44 -48zM575 1608v-48q4 -48 44 -48h56q40 0 44 48v48q-4 48 -44 48h-56q-40 0 -44 -48zM791 1608v-48q4 -48 44 -48h56q40 0 44 48v48q-4 48 -44 48h-56q-40 0 -44 -48zM1007 1608v-48
q4 -48 44 -48h56q40 0 44 48v48q-4 48 -44 48h-56q-40 0 -44 -48zM1223 1608v-48q4 -48 44 -48h56q40 0 44 48v48q-4 48 -44 48h-56q-40 0 -44 -48zM1439 1608v-48q4 -48 44 -48h56q40 0 44 48v48q-4 48 -44 48h-56q-40 0 -44 -48zM143 1304v-880q0 -103 48 -128
q38 -8 60 -8h1224q70 0 96 44q12 44 12 92v880q0 103 -48 128q-38 8 -60 8h-1224q-70 0 -96 -44q-12 -44 -12 -92zM651 1332h400q75 0 100 -40v-824q-25 -40 -100 -40h-400q-75 0 -100 40v824q25 40 100 40zM751 1228v-536h4l148 536h-152zM947 1064l-148 -532h152v532h-4z
M143 168v-48q4 -48 44 -48h56q40 0 44 48v48q-4 48 -44 48h-56q-40 0 -44 -48zM359 168v-48q4 -48 44 -48h56q40 0 44 48v48q-4 48 -44 48h-56q-40 0 -44 -48zM575 168v-48q4 -48 44 -48h56q40 0 44 48v48q-4 48 -44 48h-56q-40 0 -44 -48zM791 168v-48q4 -48 44 -48h56
q40 0 44 48v48q-4 48 -44 48h-56q-40 0 -44 -48zM1007 168v-48q4 -48 44 -48h56q40 0 44 48v48q-4 48 -44 48h-56q-40 0 -44 -48zM1223 168v-48q4 -48 44 -48h56q40 0 44 48v48q-4 48 -44 48h-56q-40 0 -44 -48zM1439 168v-48q4 -48 44 -48h56q40 0 44 48v48q-4 48 -44 48
h-56q-40 0 -44 -48z" />
    <glyph glyph-name="one" unicode="1" 
d="M-1 1728h1720v-72h-20q-40 0 -44 -48v-48q4 -48 44 -48h20v-1296h-20q-40 0 -44 -48v-48q4 -48 44 -48h20v-72h-1720v72h28q40 0 44 48v48q-4 48 -44 48h-28v1296h28q40 0 44 48v48q-4 48 -44 48h-28v72zM143 1608v-48q4 -48 44 -48h56q40 0 44 48v48q-4 48 -44 48h-56
q-40 0 -44 -48zM359 1608v-48q4 -48 44 -48h56q40 0 44 48v48q-4 48 -44 48h-56q-40 0 -44 -48zM575 1608v-48q4 -48 44 -48h56q40 0 44 48v48q-4 48 -44 48h-56q-40 0 -44 -48zM791 1608v-48q4 -48 44 -48h56q40 0 44 48v48q-4 48 -44 48h-56q-40 0 -44 -48zM1007 1608v-48
q4 -48 44 -48h56q40 0 44 48v48q-4 48 -44 48h-56q-40 0 -44 -48zM1223 1608v-48q4 -48 44 -48h56q40 0 44 48v48q-4 48 -44 48h-56q-40 0 -44 -48zM1439 1608v-48q4 -48 44 -48h56q40 0 44 48v48q-4 48 -44 48h-56q-40 0 -44 -48zM143 1304v-880q0 -103 48 -128
q38 -8 60 -8h1224q70 0 96 44q12 44 12 92v880q0 103 -48 128q-38 8 -60 8h-1224q-70 0 -96 -44q-12 -44 -12 -92zM707 1332h200q75 0 100 -40v-864h-200v800h-200v64q25 40 100 40zM143 168v-48q4 -48 44 -48h56q40 0 44 48v48q-4 48 -44 48h-56q-40 0 -44 -48zM359 168
v-48q4 -48 44 -48h56q40 0 44 48v48q-4 48 -44 48h-56q-40 0 -44 -48zM575 168v-48q4 -48 44 -48h56q40 0 44 48v48q-4 48 -44 48h-56q-40 0 -44 -48zM791 168v-48q4 -48 44 -48h56q40 0 44 48v48q-4 48 -44 48h-56q-40 0 -44 -48zM1007 168v-48q4 -48 44 -48h56q40 0 44 48
v48q-4 48 -44 48h-56q-40 0 -44 -48zM1223 168v-48q4 -48 44 -48h56q40 0 44 48v48q-4 48 -44 48h-56q-40 0 -44 -48zM1439 168v-48q4 -48 44 -48h56q40 0 44 48v48q-4 48 -44 48h-56q-40 0 -44 -48z" />
    <glyph glyph-name="two" unicode="2" 
d="M-1 1728h1720v-72h-20q-40 0 -44 -48v-48q4 -48 44 -48h20v-1296h-20q-40 0 -44 -48v-48q4 -48 44 -48h20v-72h-1720v72h28q40 0 44 48v48q-4 48 -44 48h-28v1296h28q40 0 44 48v48q-4 48 -44 48h-28v72zM143 1608v-48q4 -48 44 -48h56q40 0 44 48v48q-4 48 -44 48h-56
q-40 0 -44 -48zM359 1608v-48q4 -48 44 -48h56q40 0 44 48v48q-4 48 -44 48h-56q-40 0 -44 -48zM575 1608v-48q4 -48 44 -48h56q40 0 44 48v48q-4 48 -44 48h-56q-40 0 -44 -48zM791 1608v-48q4 -48 44 -48h56q40 0 44 48v48q-4 48 -44 48h-56q-40 0 -44 -48zM1007 1608v-48
q4 -48 44 -48h56q40 0 44 48v48q-4 48 -44 48h-56q-40 0 -44 -48zM1223 1608v-48q4 -48 44 -48h56q40 0 44 48v48q-4 48 -44 48h-56q-40 0 -44 -48zM1439 1608v-48q4 -48 44 -48h56q40 0 44 48v48q-4 48 -44 48h-56q-40 0 -44 -48zM143 1304v-880q0 -103 48 -128
q38 -8 60 -8h1224q70 0 96 44q12 44 12 92v880q0 103 -48 128q-38 8 -60 8h-1224q-70 0 -96 -44q-12 -44 -12 -92zM563 1332h500q75 0 100 -40v-424q-25 -40 -100 -40h-300v-296h400v-104h-500q-75 0 -100 40v464h400v296h-400v104zM143 168v-48q4 -48 44 -48h56q40 0 44 48
v48q-4 48 -44 48h-56q-40 0 -44 -48zM359 168v-48q4 -48 44 -48h56q40 0 44 48v48q-4 48 -44 48h-56q-40 0 -44 -48zM575 168v-48q4 -48 44 -48h56q40 0 44 48v48q-4 48 -44 48h-56q-40 0 -44 -48zM791 168v-48q4 -48 44 -48h56q40 0 44 48v48q-4 48 -44 48h-56
q-40 0 -44 -48zM1007 168v-48q4 -48 44 -48h56q40 0 44 48v48q-4 48 -44 48h-56q-40 0 -44 -48zM1223 168v-48q4 -48 44 -48h56q40 0 44 48v48q-4 48 -44 48h-56q-40 0 -44 -48zM1439 168v-48q4 -48 44 -48h56q40 0 44 48v48q-4 48 -44 48h-56q-40 0 -44 -48z" />
    <glyph glyph-name="three" unicode="3" 
d="M-1 1728h1720v-72h-20q-40 0 -44 -48v-48q4 -48 44 -48h20v-1296h-20q-40 0 -44 -48v-48q4 -48 44 -48h20v-72h-1720v72h28q40 0 44 48v48q-4 48 -44 48h-28v1296h28q40 0 44 48v48q-4 48 -44 48h-28v72zM143 1608v-48q4 -48 44 -48h56q40 0 44 48v48q-4 48 -44 48h-56
q-40 0 -44 -48zM359 1608v-48q4 -48 44 -48h56q40 0 44 48v48q-4 48 -44 48h-56q-40 0 -44 -48zM575 1608v-48q4 -48 44 -48h56q40 0 44 48v48q-4 48 -44 48h-56q-40 0 -44 -48zM791 1608v-48q4 -48 44 -48h56q40 0 44 48v48q-4 48 -44 48h-56q-40 0 -44 -48zM1007 1608v-48
q4 -48 44 -48h56q40 0 44 48v48q-4 48 -44 48h-56q-40 0 -44 -48zM1223 1608v-48q4 -48 44 -48h56q40 0 44 48v48q-4 48 -44 48h-56q-40 0 -44 -48zM1439 1608v-48q4 -48 44 -48h56q40 0 44 48v48q-4 48 -44 48h-56q-40 0 -44 -48zM143 1304v-880q0 -103 48 -128
q38 -8 60 -8h1224q70 0 96 44q12 44 12 92v880q0 103 -48 128q-38 8 -60 8h-1224q-70 0 -96 -44q-12 -44 -12 -92zM559 1332h500q75 0 100 -40v-364q-9 -44 -60 -44v-4q32 0 60 -36v-376q-25 -40 -100 -40h-500v104h400v296h-200v104h200v296h-400v104zM143 168v-48
q4 -48 44 -48h56q40 0 44 48v48q-4 48 -44 48h-56q-40 0 -44 -48zM359 168v-48q4 -48 44 -48h56q40 0 44 48v48q-4 48 -44 48h-56q-40 0 -44 -48zM575 168v-48q4 -48 44 -48h56q40 0 44 48v48q-4 48 -44 48h-56q-40 0 -44 -48zM791 168v-48q4 -48 44 -48h56q40 0 44 48v48
q-4 48 -44 48h-56q-40 0 -44 -48zM1007 168v-48q4 -48 44 -48h56q40 0 44 48v48q-4 48 -44 48h-56q-40 0 -44 -48zM1223 168v-48q4 -48 44 -48h56q40 0 44 48v48q-4 48 -44 48h-56q-40 0 -44 -48zM1439 168v-48q4 -48 44 -48h56q40 0 44 48v48q-4 48 -44 48h-56
q-40 0 -44 -48z" />
    <glyph glyph-name="four" unicode="4" 
d="M-1 1728h1720v-72h-20q-40 0 -44 -48v-48q4 -48 44 -48h20v-1296h-20q-40 0 -44 -48v-48q4 -48 44 -48h20v-72h-1720v72h28q40 0 44 48v48q-4 48 -44 48h-28v1296h28q40 0 44 48v48q-4 48 -44 48h-28v72zM143 1608v-48q4 -48 44 -48h56q40 0 44 48v48q-4 48 -44 48h-56
q-40 0 -44 -48zM359 1608v-48q4 -48 44 -48h56q40 0 44 48v48q-4 48 -44 48h-56q-40 0 -44 -48zM575 1608v-48q4 -48 44 -48h56q40 0 44 48v48q-4 48 -44 48h-56q-40 0 -44 -48zM791 1608v-48q4 -48 44 -48h56q40 0 44 48v48q-4 48 -44 48h-56q-40 0 -44 -48zM1007 1608v-48
q4 -48 44 -48h56q40 0 44 48v48q-4 48 -44 48h-56q-40 0 -44 -48zM1223 1608v-48q4 -48 44 -48h56q40 0 44 48v48q-4 48 -44 48h-56q-40 0 -44 -48zM1439 1608v-48q4 -48 44 -48h56q40 0 44 48v48q-4 48 -44 48h-56q-40 0 -44 -48zM143 1304v-880q0 -103 48 -128
q38 -8 60 -8h1224q70 0 96 44q12 44 12 92v880q0 103 -48 128q-38 8 -60 8h-1224q-70 0 -96 -44q-12 -44 -12 -92zM559 1332h200v-352h200v352h200v-904h-200v452h-316q-84 7 -84 48v404zM143 168v-48q4 -48 44 -48h56q40 0 44 48v48q-4 48 -44 48h-56q-40 0 -44 -48z
M359 168v-48q4 -48 44 -48h56q40 0 44 48v48q-4 48 -44 48h-56q-40 0 -44 -48zM575 168v-48q4 -48 44 -48h56q40 0 44 48v48q-4 48 -44 48h-56q-40 0 -44 -48zM791 168v-48q4 -48 44 -48h56q40 0 44 48v48q-4 48 -44 48h-56q-40 0 -44 -48zM1007 168v-48q4 -48 44 -48h56
q40 0 44 48v48q-4 48 -44 48h-56q-40 0 -44 -48zM1223 168v-48q4 -48 44 -48h56q40 0 44 48v48q-4 48 -44 48h-56q-40 0 -44 -48zM1439 168v-48q4 -48 44 -48h56q40 0 44 48v48q-4 48 -44 48h-56q-40 0 -44 -48z" />
    <glyph glyph-name="five" unicode="5" 
d="M-1 1728h1720v-72h-20q-40 0 -44 -48v-48q4 -48 44 -48h20v-1296h-20q-40 0 -44 -48v-48q4 -48 44 -48h20v-72h-1720v72h28q40 0 44 48v48q-4 48 -44 48h-28v1296h28q40 0 44 48v48q-4 48 -44 48h-28v72zM143 1608v-48q4 -48 44 -48h56q40 0 44 48v48q-4 48 -44 48h-56
q-40 0 -44 -48zM359 1608v-48q4 -48 44 -48h56q40 0 44 48v48q-4 48 -44 48h-56q-40 0 -44 -48zM575 1608v-48q4 -48 44 -48h56q40 0 44 48v48q-4 48 -44 48h-56q-40 0 -44 -48zM791 1608v-48q4 -48 44 -48h56q40 0 44 48v48q-4 48 -44 48h-56q-40 0 -44 -48zM1007 1608v-48
q4 -48 44 -48h56q40 0 44 48v48q-4 48 -44 48h-56q-40 0 -44 -48zM1223 1608v-48q4 -48 44 -48h56q40 0 44 48v48q-4 48 -44 48h-56q-40 0 -44 -48zM1439 1608v-48q4 -48 44 -48h56q40 0 44 48v48q-4 48 -44 48h-56q-40 0 -44 -48zM143 1304v-880q0 -103 48 -128
q38 -8 60 -8h1224q70 0 96 44q12 44 12 92v880q0 103 -48 128q-38 8 -60 8h-1224q-70 0 -96 -44q-12 -44 -12 -92zM659 1332h500v-104h-400v-296h300q75 0 100 -40v-424q-25 -40 -100 -40h-500v104h400v296h-400v464q25 40 100 40zM143 168v-48q4 -48 44 -48h56q40 0 44 48
v48q-4 48 -44 48h-56q-40 0 -44 -48zM359 168v-48q4 -48 44 -48h56q40 0 44 48v48q-4 48 -44 48h-56q-40 0 -44 -48zM575 168v-48q4 -48 44 -48h56q40 0 44 48v48q-4 48 -44 48h-56q-40 0 -44 -48zM791 168v-48q4 -48 44 -48h56q40 0 44 48v48q-4 48 -44 48h-56
q-40 0 -44 -48zM1007 168v-48q4 -48 44 -48h56q40 0 44 48v48q-4 48 -44 48h-56q-40 0 -44 -48zM1223 168v-48q4 -48 44 -48h56q40 0 44 48v48q-4 48 -44 48h-56q-40 0 -44 -48zM1439 168v-48q4 -48 44 -48h56q40 0 44 48v48q-4 48 -44 48h-56q-40 0 -44 -48z" />
    <glyph glyph-name="six" unicode="6" 
d="M-1 1728h1720v-72h-20q-40 0 -44 -48v-48q4 -48 44 -48h20v-1296h-20q-40 0 -44 -48v-48q4 -48 44 -48h20v-72h-1720v72h28q40 0 44 48v48q-4 48 -44 48h-28v1296h28q40 0 44 48v48q-4 48 -44 48h-28v72zM143 1608v-48q4 -48 44 -48h56q40 0 44 48v48q-4 48 -44 48h-56
q-40 0 -44 -48zM359 1608v-48q4 -48 44 -48h56q40 0 44 48v48q-4 48 -44 48h-56q-40 0 -44 -48zM575 1608v-48q4 -48 44 -48h56q40 0 44 48v48q-4 48 -44 48h-56q-40 0 -44 -48zM791 1608v-48q4 -48 44 -48h56q40 0 44 48v48q-4 48 -44 48h-56q-40 0 -44 -48zM1007 1608v-48
q4 -48 44 -48h56q40 0 44 48v48q-4 48 -44 48h-56q-40 0 -44 -48zM1223 1608v-48q4 -48 44 -48h56q40 0 44 48v48q-4 48 -44 48h-56q-40 0 -44 -48zM1439 1608v-48q4 -48 44 -48h56q40 0 44 48v48q-4 48 -44 48h-56q-40 0 -44 -48zM143 1304v-880q0 -103 48 -128
q38 -8 60 -8h1224q70 0 96 44q12 44 12 92v880q0 103 -48 128q-38 8 -60 8h-1224q-70 0 -96 -44q-12 -44 -12 -92zM659 1332h500v-104h-400v-296h300q75 0 100 -40v-424q-25 -40 -100 -40h-400q-75 0 -100 40v824q25 40 100 40zM759 828v-296h200v296h-200zM143 168v-48
q4 -48 44 -48h56q40 0 44 48v48q-4 48 -44 48h-56q-40 0 -44 -48zM359 168v-48q4 -48 44 -48h56q40 0 44 48v48q-4 48 -44 48h-56q-40 0 -44 -48zM575 168v-48q4 -48 44 -48h56q40 0 44 48v48q-4 48 -44 48h-56q-40 0 -44 -48zM791 168v-48q4 -48 44 -48h56q40 0 44 48v48
q-4 48 -44 48h-56q-40 0 -44 -48zM1007 168v-48q4 -48 44 -48h56q40 0 44 48v48q-4 48 -44 48h-56q-40 0 -44 -48zM1223 168v-48q4 -48 44 -48h56q40 0 44 48v48q-4 48 -44 48h-56q-40 0 -44 -48zM1439 168v-48q4 -48 44 -48h56q40 0 44 48v48q-4 48 -44 48h-56
q-40 0 -44 -48z" />
    <glyph glyph-name="seven" unicode="7" 
d="M-1 1728h1720v-72h-20q-40 0 -44 -48v-48q4 -48 44 -48h20v-1296h-20q-40 0 -44 -48v-48q4 -48 44 -48h20v-72h-1720v72h28q40 0 44 48v48q-4 48 -44 48h-28v1296h28q40 0 44 48v48q-4 48 -44 48h-28v72zM143 1608v-48q4 -48 44 -48h56q40 0 44 48v48q-4 48 -44 48h-56
q-40 0 -44 -48zM359 1608v-48q4 -48 44 -48h56q40 0 44 48v48q-4 48 -44 48h-56q-40 0 -44 -48zM575 1608v-48q4 -48 44 -48h56q40 0 44 48v48q-4 48 -44 48h-56q-40 0 -44 -48zM791 1608v-48q4 -48 44 -48h56q40 0 44 48v48q-4 48 -44 48h-56q-40 0 -44 -48zM1007 1608v-48
q4 -48 44 -48h56q40 0 44 48v48q-4 48 -44 48h-56q-40 0 -44 -48zM1223 1608v-48q4 -48 44 -48h56q40 0 44 48v48q-4 48 -44 48h-56q-40 0 -44 -48zM1439 1608v-48q4 -48 44 -48h56q40 0 44 48v48q-4 48 -44 48h-56q-40 0 -44 -48zM143 1304v-880q0 -103 48 -128
q38 -8 60 -8h1224q70 0 96 44q12 44 12 92v880q0 103 -48 128q-38 8 -60 8h-1224q-70 0 -96 -44q-12 -44 -12 -92zM663 1336h400q75 0 100 -40v-824q-25 -40 -100 -40h-100v800h-400v64q25 40 100 40zM143 168v-48q4 -48 44 -48h56q40 0 44 48v48q-4 48 -44 48h-56
q-40 0 -44 -48zM359 168v-48q4 -48 44 -48h56q40 0 44 48v48q-4 48 -44 48h-56q-40 0 -44 -48zM575 168v-48q4 -48 44 -48h56q40 0 44 48v48q-4 48 -44 48h-56q-40 0 -44 -48zM791 168v-48q4 -48 44 -48h56q40 0 44 48v48q-4 48 -44 48h-56q-40 0 -44 -48zM1007 168v-48
q4 -48 44 -48h56q40 0 44 48v48q-4 48 -44 48h-56q-40 0 -44 -48zM1223 168v-48q4 -48 44 -48h56q40 0 44 48v48q-4 48 -44 48h-56q-40 0 -44 -48zM1439 168v-48q4 -48 44 -48h56q40 0 44 48v48q-4 48 -44 48h-56q-40 0 -44 -48z" />
    <glyph glyph-name="eight" unicode="8" 
d="M-1 1728h1720v-72h-20q-40 0 -44 -48v-48q4 -48 44 -48h20v-1296h-20q-40 0 -44 -48v-48q4 -48 44 -48h20v-72h-1720v72h28q40 0 44 48v48q-4 48 -44 48h-28v1296h28q40 0 44 48v48q-4 48 -44 48h-28v72zM143 1608v-48q4 -48 44 -48h56q40 0 44 48v48q-4 48 -44 48h-56
q-40 0 -44 -48zM359 1608v-48q4 -48 44 -48h56q40 0 44 48v48q-4 48 -44 48h-56q-40 0 -44 -48zM575 1608v-48q4 -48 44 -48h56q40 0 44 48v48q-4 48 -44 48h-56q-40 0 -44 -48zM791 1608v-48q4 -48 44 -48h56q40 0 44 48v48q-4 48 -44 48h-56q-40 0 -44 -48zM1007 1608v-48
q4 -48 44 -48h56q40 0 44 48v48q-4 48 -44 48h-56q-40 0 -44 -48zM1223 1608v-48q4 -48 44 -48h56q40 0 44 48v48q-4 48 -44 48h-56q-40 0 -44 -48zM1439 1608v-48q4 -48 44 -48h56q40 0 44 48v48q-4 48 -44 48h-56q-40 0 -44 -48zM143 1304v-880q0 -103 48 -128
q38 -8 60 -8h1224q70 0 96 44q12 44 12 92v880q0 103 -48 128q-38 8 -60 8h-1224q-70 0 -96 -44q-12 -44 -12 -92zM659 1332h400q75 0 100 -40v-364q-9 -44 -60 -44v-4q32 0 60 -36v-376q-25 -40 -100 -40h-400q-75 0 -100 40v376q28 36 60 36v4q-51 0 -60 44v364
q25 40 100 40zM759 1228v-296h200v296h-200zM759 828v-296h200v296h-200zM143 168v-48q4 -48 44 -48h56q40 0 44 48v48q-4 48 -44 48h-56q-40 0 -44 -48zM359 168v-48q4 -48 44 -48h56q40 0 44 48v48q-4 48 -44 48h-56q-40 0 -44 -48zM575 168v-48q4 -48 44 -48h56
q40 0 44 48v48q-4 48 -44 48h-56q-40 0 -44 -48zM791 168v-48q4 -48 44 -48h56q40 0 44 48v48q-4 48 -44 48h-56q-40 0 -44 -48zM1007 168v-48q4 -48 44 -48h56q40 0 44 48v48q-4 48 -44 48h-56q-40 0 -44 -48zM1223 168v-48q4 -48 44 -48h56q40 0 44 48v48q-4 48 -44 48
h-56q-40 0 -44 -48zM1439 168v-48q4 -48 44 -48h56q40 0 44 48v48q-4 48 -44 48h-56q-40 0 -44 -48z" />
    <glyph glyph-name="nine" unicode="9" 
d="M-1 1728h1720v-72h-20q-40 0 -44 -48v-48q4 -48 44 -48h20v-1296h-20q-40 0 -44 -48v-48q4 -48 44 -48h20v-72h-1720v72h28q40 0 44 48v48q-4 48 -44 48h-28v1296h28q40 0 44 48v48q-4 48 -44 48h-28v72zM143 1608v-48q4 -48 44 -48h56q40 0 44 48v48q-4 48 -44 48h-56
q-40 0 -44 -48zM359 1608v-48q4 -48 44 -48h56q40 0 44 48v48q-4 48 -44 48h-56q-40 0 -44 -48zM575 1608v-48q4 -48 44 -48h56q40 0 44 48v48q-4 48 -44 48h-56q-40 0 -44 -48zM791 1608v-48q4 -48 44 -48h56q40 0 44 48v48q-4 48 -44 48h-56q-40 0 -44 -48zM1007 1608v-48
q4 -48 44 -48h56q40 0 44 48v48q-4 48 -44 48h-56q-40 0 -44 -48zM1223 1608v-48q4 -48 44 -48h56q40 0 44 48v48q-4 48 -44 48h-56q-40 0 -44 -48zM1439 1608v-48q4 -48 44 -48h56q40 0 44 48v48q-4 48 -44 48h-56q-40 0 -44 -48zM143 1304v-880q0 -103 48 -128
q38 -8 60 -8h1224q70 0 96 44q12 44 12 92v880q0 103 -48 128q-38 8 -60 8h-1224q-70 0 -96 -44q-12 -44 -12 -92zM659 1332h400q75 0 100 -40v-824q-25 -40 -100 -40h-500v104h400v296h-300q-75 0 -100 40v424q25 40 100 40zM759 1228v-296h200v296h-200zM143 168v-48
q4 -48 44 -48h56q40 0 44 48v48q-4 48 -44 48h-56q-40 0 -44 -48zM359 168v-48q4 -48 44 -48h56q40 0 44 48v48q-4 48 -44 48h-56q-40 0 -44 -48zM575 168v-48q4 -48 44 -48h56q40 0 44 48v48q-4 48 -44 48h-56q-40 0 -44 -48zM791 168v-48q4 -48 44 -48h56q40 0 44 48v48
q-4 48 -44 48h-56q-40 0 -44 -48zM1007 168v-48q4 -48 44 -48h56q40 0 44 48v48q-4 48 -44 48h-56q-40 0 -44 -48zM1223 168v-48q4 -48 44 -48h56q40 0 44 48v48q-4 48 -44 48h-56q-40 0 -44 -48zM1439 168v-48q4 -48 44 -48h56q40 0 44 48v48q-4 48 -44 48h-56
q-40 0 -44 -48z" />
    <glyph glyph-name="colon" unicode=":" 
d="M-1 1728h1720v-72h-20q-40 0 -44 -48v-48q4 -48 44 -48h20v-1296h-20q-40 0 -44 -48v-48q4 -48 44 -48h20v-72h-1720v72h28q40 0 44 48v48q-4 48 -44 48h-28v1296h28q40 0 44 48v48q-4 48 -44 48h-28v72zM143 1608v-48q4 -48 44 -48h56q40 0 44 48v48q-4 48 -44 48h-56
q-40 0 -44 -48zM359 1608v-48q4 -48 44 -48h56q40 0 44 48v48q-4 48 -44 48h-56q-40 0 -44 -48zM575 1608v-48q4 -48 44 -48h56q40 0 44 48v48q-4 48 -44 48h-56q-40 0 -44 -48zM791 1608v-48q4 -48 44 -48h56q40 0 44 48v48q-4 48 -44 48h-56q-40 0 -44 -48zM1007 1608v-48
q4 -48 44 -48h56q40 0 44 48v48q-4 48 -44 48h-56q-40 0 -44 -48zM1223 1608v-48q4 -48 44 -48h56q40 0 44 48v48q-4 48 -44 48h-56q-40 0 -44 -48zM1439 1608v-48q4 -48 44 -48h56q40 0 44 48v48q-4 48 -44 48h-56q-40 0 -44 -48zM143 1304v-880q0 -103 48 -128
q38 -8 60 -8h1224q70 0 96 44q12 44 12 92v880q0 103 -48 128q-38 8 -60 8h-1224q-70 0 -96 -44q-12 -44 -12 -92zM847 1184h24q88 -19 88 -88v-24q-19 -88 -88 -88h-24q-88 19 -88 88v24q19 88 88 88zM847 632h24q88 -19 88 -88v-24q-19 -88 -88 -88h-24q-88 19 -88 88v24
q19 88 88 88zM143 168v-48q4 -48 44 -48h56q40 0 44 48v48q-4 48 -44 48h-56q-40 0 -44 -48zM359 168v-48q4 -48 44 -48h56q40 0 44 48v48q-4 48 -44 48h-56q-40 0 -44 -48zM575 168v-48q4 -48 44 -48h56q40 0 44 48v48q-4 48 -44 48h-56q-40 0 -44 -48zM791 168v-48
q4 -48 44 -48h56q40 0 44 48v48q-4 48 -44 48h-56q-40 0 -44 -48zM1007 168v-48q4 -48 44 -48h56q40 0 44 48v48q-4 48 -44 48h-56q-40 0 -44 -48zM1223 168v-48q4 -48 44 -48h56q40 0 44 48v48q-4 48 -44 48h-56q-40 0 -44 -48zM1439 168v-48q4 -48 44 -48h56q40 0 44 48
v48q-4 48 -44 48h-56q-40 0 -44 -48z" />
    <glyph glyph-name="semicolon" unicode=";" 
d="M-1 1728h1720v-72h-20q-40 0 -44 -48v-48q4 -48 44 -48h20v-1296h-20q-40 0 -44 -48v-48q4 -48 44 -48h20v-72h-1720v72h28q40 0 44 48v48q-4 48 -44 48h-28v1296h28q40 0 44 48v48q-4 48 -44 48h-28v72zM143 1608v-48q4 -48 44 -48h56q40 0 44 48v48q-4 48 -44 48h-56
q-40 0 -44 -48zM359 1608v-48q4 -48 44 -48h56q40 0 44 48v48q-4 48 -44 48h-56q-40 0 -44 -48zM575 1608v-48q4 -48 44 -48h56q40 0 44 48v48q-4 48 -44 48h-56q-40 0 -44 -48zM791 1608v-48q4 -48 44 -48h56q40 0 44 48v48q-4 48 -44 48h-56q-40 0 -44 -48zM1007 1608v-48
q4 -48 44 -48h56q40 0 44 48v48q-4 48 -44 48h-56q-40 0 -44 -48zM1223 1608v-48q4 -48 44 -48h56q40 0 44 48v48q-4 48 -44 48h-56q-40 0 -44 -48zM1439 1608v-48q4 -48 44 -48h56q40 0 44 48v48q-4 48 -44 48h-56q-40 0 -44 -48zM143 1304v-880q0 -103 48 -128
q38 -8 60 -8h1224q70 0 96 44q12 44 12 92v880q0 103 -48 128q-38 8 -60 8h-1224q-70 0 -96 -44q-12 -44 -12 -92zM847 1184h24q88 -19 88 -88v-24q-19 -88 -88 -88h-24q-88 19 -88 88v24q19 88 88 88zM847 632h24q88 -19 88 -88v-20q0 -65 -128 -200q-24 -12 -32 -12h-20
q-21 0 -28 92q0 172 32 200q36 28 64 28zM143 168v-48q4 -48 44 -48h56q40 0 44 48v48q-4 48 -44 48h-56q-40 0 -44 -48zM359 168v-48q4 -48 44 -48h56q40 0 44 48v48q-4 48 -44 48h-56q-40 0 -44 -48zM575 168v-48q4 -48 44 -48h56q40 0 44 48v48q-4 48 -44 48h-56
q-40 0 -44 -48zM791 168v-48q4 -48 44 -48h56q40 0 44 48v48q-4 48 -44 48h-56q-40 0 -44 -48zM1007 168v-48q4 -48 44 -48h56q40 0 44 48v48q-4 48 -44 48h-56q-40 0 -44 -48zM1223 168v-48q4 -48 44 -48h56q40 0 44 48v48q-4 48 -44 48h-56q-40 0 -44 -48zM1439 168v-48
q4 -48 44 -48h56q40 0 44 48v48q-4 48 -44 48h-56q-40 0 -44 -48z" />
    <glyph glyph-name="semicolon" unicode="&#x37e;" 
d="M-1 1728h1720v-72h-20q-40 0 -44 -48v-48q4 -48 44 -48h20v-1296h-20q-40 0 -44 -48v-48q4 -48 44 -48h20v-72h-1720v72h28q40 0 44 48v48q-4 48 -44 48h-28v1296h28q40 0 44 48v48q-4 48 -44 48h-28v72zM143 1608v-48q4 -48 44 -48h56q40 0 44 48v48q-4 48 -44 48h-56
q-40 0 -44 -48zM359 1608v-48q4 -48 44 -48h56q40 0 44 48v48q-4 48 -44 48h-56q-40 0 -44 -48zM575 1608v-48q4 -48 44 -48h56q40 0 44 48v48q-4 48 -44 48h-56q-40 0 -44 -48zM791 1608v-48q4 -48 44 -48h56q40 0 44 48v48q-4 48 -44 48h-56q-40 0 -44 -48zM1007 1608v-48
q4 -48 44 -48h56q40 0 44 48v48q-4 48 -44 48h-56q-40 0 -44 -48zM1223 1608v-48q4 -48 44 -48h56q40 0 44 48v48q-4 48 -44 48h-56q-40 0 -44 -48zM1439 1608v-48q4 -48 44 -48h56q40 0 44 48v48q-4 48 -44 48h-56q-40 0 -44 -48zM143 1304v-880q0 -103 48 -128
q38 -8 60 -8h1224q70 0 96 44q12 44 12 92v880q0 103 -48 128q-38 8 -60 8h-1224q-70 0 -96 -44q-12 -44 -12 -92zM847 1184h24q88 -19 88 -88v-24q-19 -88 -88 -88h-24q-88 19 -88 88v24q19 88 88 88zM847 632h24q88 -19 88 -88v-20q0 -65 -128 -200q-24 -12 -32 -12h-20
q-21 0 -28 92q0 172 32 200q36 28 64 28zM143 168v-48q4 -48 44 -48h56q40 0 44 48v48q-4 48 -44 48h-56q-40 0 -44 -48zM359 168v-48q4 -48 44 -48h56q40 0 44 48v48q-4 48 -44 48h-56q-40 0 -44 -48zM575 168v-48q4 -48 44 -48h56q40 0 44 48v48q-4 48 -44 48h-56
q-40 0 -44 -48zM791 168v-48q4 -48 44 -48h56q40 0 44 48v48q-4 48 -44 48h-56q-40 0 -44 -48zM1007 168v-48q4 -48 44 -48h56q40 0 44 48v48q-4 48 -44 48h-56q-40 0 -44 -48zM1223 168v-48q4 -48 44 -48h56q40 0 44 48v48q-4 48 -44 48h-56q-40 0 -44 -48zM1439 168v-48
q4 -48 44 -48h56q40 0 44 48v48q-4 48 -44 48h-56q-40 0 -44 -48z" />
    <glyph glyph-name="less" unicode="&#x3c;" 
 />
    <glyph glyph-name="equal" unicode="=" 
d="M-1 1728h1720v-72h-20q-40 0 -44 -48v-48q4 -48 44 -48h20v-1296h-20q-40 0 -44 -48v-48q4 -48 44 -48h20v-72h-1720v72h28q40 0 44 48v48q-4 48 -44 48h-28v1296h28q40 0 44 48v48q-4 48 -44 48h-28v72zM143 1608v-48q4 -48 44 -48h56q40 0 44 48v48q-4 48 -44 48h-56
q-40 0 -44 -48zM359 1608v-48q4 -48 44 -48h56q40 0 44 48v48q-4 48 -44 48h-56q-40 0 -44 -48zM575 1608v-48q4 -48 44 -48h56q40 0 44 48v48q-4 48 -44 48h-56q-40 0 -44 -48zM791 1608v-48q4 -48 44 -48h56q40 0 44 48v48q-4 48 -44 48h-56q-40 0 -44 -48zM1007 1608v-48
q4 -48 44 -48h56q40 0 44 48v48q-4 48 -44 48h-56q-40 0 -44 -48zM1223 1608v-48q4 -48 44 -48h56q40 0 44 48v48q-4 48 -44 48h-56q-40 0 -44 -48zM1439 1608v-48q4 -48 44 -48h56q40 0 44 48v48q-4 48 -44 48h-56q-40 0 -44 -48zM143 1304v-880q0 -103 48 -128
q38 -8 60 -8h1224q70 0 96 44q12 44 12 92v880q0 103 -48 128q-38 8 -60 8h-1224q-70 0 -96 -44q-12 -44 -12 -92zM559 1012h600v-100h-600v100zM559 812h600v-100h-600v100zM143 168v-48q4 -48 44 -48h56q40 0 44 48v48q-4 48 -44 48h-56q-40 0 -44 -48zM359 168v-48
q4 -48 44 -48h56q40 0 44 48v48q-4 48 -44 48h-56q-40 0 -44 -48zM575 168v-48q4 -48 44 -48h56q40 0 44 48v48q-4 48 -44 48h-56q-40 0 -44 -48zM791 168v-48q4 -48 44 -48h56q40 0 44 48v48q-4 48 -44 48h-56q-40 0 -44 -48zM1007 168v-48q4 -48 44 -48h56q40 0 44 48v48
q-4 48 -44 48h-56q-40 0 -44 -48zM1223 168v-48q4 -48 44 -48h56q40 0 44 48v48q-4 48 -44 48h-56q-40 0 -44 -48zM1439 168v-48q4 -48 44 -48h56q40 0 44 48v48q-4 48 -44 48h-56q-40 0 -44 -48z" />
    <glyph glyph-name="greater" unicode="&#x3e;" 
 />
    <glyph glyph-name="question" unicode="?" 
 />
    <glyph glyph-name="at" unicode="@" 
 />
    <glyph glyph-name="A" unicode="A" 
d="M-1 1728h1720v-72h-20q-40 0 -44 -48v-48q4 -48 44 -48h20v-1296h-20q-40 0 -44 -48v-48q4 -48 44 -48h20v-72h-1720v72h28q40 0 44 48v48q-4 48 -44 48h-28v1296h28q40 0 44 48v48q-4 48 -44 48h-28v72zM143 1608v-48q4 -48 44 -48h56q40 0 44 48v48q-4 48 -44 48h-56
q-40 0 -44 -48zM359 1608v-48q4 -48 44 -48h56q40 0 44 48v48q-4 48 -44 48h-56q-40 0 -44 -48zM575 1608v-48q4 -48 44 -48h56q40 0 44 48v48q-4 48 -44 48h-56q-40 0 -44 -48zM791 1608v-48q4 -48 44 -48h56q40 0 44 48v48q-4 48 -44 48h-56q-40 0 -44 -48zM1007 1608v-48
q4 -48 44 -48h56q40 0 44 48v48q-4 48 -44 48h-56q-40 0 -44 -48zM1223 1608v-48q4 -48 44 -48h56q40 0 44 48v48q-4 48 -44 48h-56q-40 0 -44 -48zM1439 1608v-48q4 -48 44 -48h56q40 0 44 48v48q-4 48 -44 48h-56q-40 0 -44 -48zM143 1304v-880q0 -103 48 -128
q38 -8 60 -8h1224q70 0 96 44q12 44 12 92v880q0 103 -48 128q-38 8 -60 8h-1224q-70 0 -96 -44q-12 -44 -12 -92zM659 1332h400q75 0 100 -40v-864h-200v400h-200v-400h-200v864q25 40 100 40zM759 1228v-296h200v296h-200zM143 168v-48q4 -48 44 -48h56q40 0 44 48v48
q-4 48 -44 48h-56q-40 0 -44 -48zM359 168v-48q4 -48 44 -48h56q40 0 44 48v48q-4 48 -44 48h-56q-40 0 -44 -48zM575 168v-48q4 -48 44 -48h56q40 0 44 48v48q-4 48 -44 48h-56q-40 0 -44 -48zM791 168v-48q4 -48 44 -48h56q40 0 44 48v48q-4 48 -44 48h-56q-40 0 -44 -48z
M1007 168v-48q4 -48 44 -48h56q40 0 44 48v48q-4 48 -44 48h-56q-40 0 -44 -48zM1223 168v-48q4 -48 44 -48h56q40 0 44 48v48q-4 48 -44 48h-56q-40 0 -44 -48zM1439 168v-48q4 -48 44 -48h56q40 0 44 48v48q-4 48 -44 48h-56q-40 0 -44 -48z" />
    <glyph glyph-name="B" unicode="B" 
d="M-1 1728h1720v-72h-20q-40 0 -44 -48v-48q4 -48 44 -48h20v-1296h-20q-40 0 -44 -48v-48q4 -48 44 -48h20v-72h-1720v72h28q40 0 44 48v48q-4 48 -44 48h-28v1296h28q40 0 44 48v48q-4 48 -44 48h-28v72zM143 1608v-48q4 -48 44 -48h56q40 0 44 48v48q-4 48 -44 48h-56
q-40 0 -44 -48zM359 1608v-48q4 -48 44 -48h56q40 0 44 48v48q-4 48 -44 48h-56q-40 0 -44 -48zM575 1608v-48q4 -48 44 -48h56q40 0 44 48v48q-4 48 -44 48h-56q-40 0 -44 -48zM791 1608v-48q4 -48 44 -48h56q40 0 44 48v48q-4 48 -44 48h-56q-40 0 -44 -48zM1007 1608v-48
q4 -48 44 -48h56q40 0 44 48v48q-4 48 -44 48h-56q-40 0 -44 -48zM1223 1608v-48q4 -48 44 -48h56q40 0 44 48v48q-4 48 -44 48h-56q-40 0 -44 -48zM1439 1608v-48q4 -48 44 -48h56q40 0 44 48v48q-4 48 -44 48h-56q-40 0 -44 -48zM143 1304v-880q0 -103 48 -128
q38 -8 60 -8h1224q70 0 96 44q12 44 12 92v880q0 103 -48 128q-38 8 -60 8h-1224q-70 0 -96 -44q-12 -44 -12 -92zM559 1328h516q84 -7 84 -48v-364q-28 -36 -60 -36v-4q51 0 60 -44v-356q0 -41 -84 -48h-516v900zM759 1228v-300h200v300h-200zM759 828v-300h200v300h-200z
M143 168v-48q4 -48 44 -48h56q40 0 44 48v48q-4 48 -44 48h-56q-40 0 -44 -48zM359 168v-48q4 -48 44 -48h56q40 0 44 48v48q-4 48 -44 48h-56q-40 0 -44 -48zM575 168v-48q4 -48 44 -48h56q40 0 44 48v48q-4 48 -44 48h-56q-40 0 -44 -48zM791 168v-48q4 -48 44 -48h56
q40 0 44 48v48q-4 48 -44 48h-56q-40 0 -44 -48zM1007 168v-48q4 -48 44 -48h56q40 0 44 48v48q-4 48 -44 48h-56q-40 0 -44 -48zM1223 168v-48q4 -48 44 -48h56q40 0 44 48v48q-4 48 -44 48h-56q-40 0 -44 -48zM1439 168v-48q4 -48 44 -48h56q40 0 44 48v48q-4 48 -44 48
h-56q-40 0 -44 -48z" />
    <glyph glyph-name="C" unicode="C" 
d="M-1 1728h1720v-72h-20q-40 0 -44 -48v-48q4 -48 44 -48h20v-1296h-20q-40 0 -44 -48v-48q4 -48 44 -48h20v-72h-1720v72h28q40 0 44 48v48q-4 48 -44 48h-28v1296h28q40 0 44 48v48q-4 48 -44 48h-28v72zM143 1608v-48q4 -48 44 -48h56q40 0 44 48v48q-4 48 -44 48h-56
q-40 0 -44 -48zM359 1608v-48q4 -48 44 -48h56q40 0 44 48v48q-4 48 -44 48h-56q-40 0 -44 -48zM575 1608v-48q4 -48 44 -48h56q40 0 44 48v48q-4 48 -44 48h-56q-40 0 -44 -48zM791 1608v-48q4 -48 44 -48h56q40 0 44 48v48q-4 48 -44 48h-56q-40 0 -44 -48zM1007 1608v-48
q4 -48 44 -48h56q40 0 44 48v48q-4 48 -44 48h-56q-40 0 -44 -48zM1223 1608v-48q4 -48 44 -48h56q40 0 44 48v48q-4 48 -44 48h-56q-40 0 -44 -48zM1439 1608v-48q4 -48 44 -48h56q40 0 44 48v48q-4 48 -44 48h-56q-40 0 -44 -48zM143 1304v-880q0 -103 48 -128
q38 -8 60 -8h1224q70 0 96 44q12 44 12 92v880q0 103 -48 128q-38 8 -60 8h-1224q-70 0 -96 -44q-12 -44 -12 -92zM659 1332h400q75 0 100 -40v-164h-200v100h-200v-696h200v100h200v-164q-25 -40 -100 -40h-400q-75 0 -100 40v824q25 40 100 40zM143 168v-48q4 -48 44 -48
h56q40 0 44 48v48q-4 48 -44 48h-56q-40 0 -44 -48zM359 168v-48q4 -48 44 -48h56q40 0 44 48v48q-4 48 -44 48h-56q-40 0 -44 -48zM575 168v-48q4 -48 44 -48h56q40 0 44 48v48q-4 48 -44 48h-56q-40 0 -44 -48zM791 168v-48q4 -48 44 -48h56q40 0 44 48v48q-4 48 -44 48
h-56q-40 0 -44 -48zM1007 168v-48q4 -48 44 -48h56q40 0 44 48v48q-4 48 -44 48h-56q-40 0 -44 -48zM1223 168v-48q4 -48 44 -48h56q40 0 44 48v48q-4 48 -44 48h-56q-40 0 -44 -48zM1439 168v-48q4 -48 44 -48h56q40 0 44 48v48q-4 48 -44 48h-56q-40 0 -44 -48z" />
    <glyph glyph-name="D" unicode="D" 
d="M-1 1728h1720v-72h-20q-40 0 -44 -48v-48q4 -48 44 -48h20v-1296h-20q-40 0 -44 -48v-48q4 -48 44 -48h20v-72h-1720v72h28q40 0 44 48v48q-4 48 -44 48h-28v1296h28q40 0 44 48v48q-4 48 -44 48h-28v72zM143 1608v-48q4 -48 44 -48h56q40 0 44 48v48q-4 48 -44 48h-56
q-40 0 -44 -48zM359 1608v-48q4 -48 44 -48h56q40 0 44 48v48q-4 48 -44 48h-56q-40 0 -44 -48zM575 1608v-48q4 -48 44 -48h56q40 0 44 48v48q-4 48 -44 48h-56q-40 0 -44 -48zM791 1608v-48q4 -48 44 -48h56q40 0 44 48v48q-4 48 -44 48h-56q-40 0 -44 -48zM1007 1608v-48
q4 -48 44 -48h56q40 0 44 48v48q-4 48 -44 48h-56q-40 0 -44 -48zM1223 1608v-48q4 -48 44 -48h56q40 0 44 48v48q-4 48 -44 48h-56q-40 0 -44 -48zM1439 1608v-48q4 -48 44 -48h56q40 0 44 48v48q-4 48 -44 48h-56q-40 0 -44 -48zM143 1304v-880q0 -103 48 -128
q38 -8 60 -8h1224q70 0 96 44q12 44 12 92v880q0 103 -48 128q-38 8 -60 8h-1224q-70 0 -96 -44q-12 -44 -12 -92zM559 1332h500q75 0 100 -40v-824q-25 -40 -100 -40h-500v904zM759 1228v-696h200v696h-200zM143 168v-48q4 -48 44 -48h56q40 0 44 48v48q-4 48 -44 48h-56
q-40 0 -44 -48zM359 168v-48q4 -48 44 -48h56q40 0 44 48v48q-4 48 -44 48h-56q-40 0 -44 -48zM575 168v-48q4 -48 44 -48h56q40 0 44 48v48q-4 48 -44 48h-56q-40 0 -44 -48zM791 168v-48q4 -48 44 -48h56q40 0 44 48v48q-4 48 -44 48h-56q-40 0 -44 -48zM1007 168v-48
q4 -48 44 -48h56q40 0 44 48v48q-4 48 -44 48h-56q-40 0 -44 -48zM1223 168v-48q4 -48 44 -48h56q40 0 44 48v48q-4 48 -44 48h-56q-40 0 -44 -48zM1439 168v-48q4 -48 44 -48h56q40 0 44 48v48q-4 48 -44 48h-56q-40 0 -44 -48z" />
    <glyph glyph-name="E" unicode="E" 
d="M-1 1728h1720v-72h-20q-40 0 -44 -48v-48q4 -48 44 -48h20v-1296h-20q-40 0 -44 -48v-48q4 -48 44 -48h20v-72h-1720v72h28q40 0 44 48v48q-4 48 -44 48h-28v1296h28q40 0 44 48v48q-4 48 -44 48h-28v72zM143 1608v-48q4 -48 44 -48h56q40 0 44 48v48q-4 48 -44 48h-56
q-40 0 -44 -48zM359 1608v-48q4 -48 44 -48h56q40 0 44 48v48q-4 48 -44 48h-56q-40 0 -44 -48zM575 1608v-48q4 -48 44 -48h56q40 0 44 48v48q-4 48 -44 48h-56q-40 0 -44 -48zM791 1608v-48q4 -48 44 -48h56q40 0 44 48v48q-4 48 -44 48h-56q-40 0 -44 -48zM1007 1608v-48
q4 -48 44 -48h56q40 0 44 48v48q-4 48 -44 48h-56q-40 0 -44 -48zM1223 1608v-48q4 -48 44 -48h56q40 0 44 48v48q-4 48 -44 48h-56q-40 0 -44 -48zM1439 1608v-48q4 -48 44 -48h56q40 0 44 48v48q-4 48 -44 48h-56q-40 0 -44 -48zM143 1304v-880q0 -103 48 -128
q38 -8 60 -8h1224q70 0 96 44q12 44 12 92v880q0 103 -48 128q-38 8 -60 8h-1224q-70 0 -96 -44q-12 -44 -12 -92zM559 1332h600v-104h-400v-296h200v-104h-200v-296h400v-104h-600v904zM143 168v-48q4 -48 44 -48h56q40 0 44 48v48q-4 48 -44 48h-56q-40 0 -44 -48z
M359 168v-48q4 -48 44 -48h56q40 0 44 48v48q-4 48 -44 48h-56q-40 0 -44 -48zM575 168v-48q4 -48 44 -48h56q40 0 44 48v48q-4 48 -44 48h-56q-40 0 -44 -48zM791 168v-48q4 -48 44 -48h56q40 0 44 48v48q-4 48 -44 48h-56q-40 0 -44 -48zM1007 168v-48q4 -48 44 -48h56
q40 0 44 48v48q-4 48 -44 48h-56q-40 0 -44 -48zM1223 168v-48q4 -48 44 -48h56q40 0 44 48v48q-4 48 -44 48h-56q-40 0 -44 -48zM1439 168v-48q4 -48 44 -48h56q40 0 44 48v48q-4 48 -44 48h-56q-40 0 -44 -48z" />
    <glyph glyph-name="F" unicode="F" 
d="M-1 1728h1720v-72h-20q-40 0 -44 -48v-48q4 -48 44 -48h20v-1296h-20q-40 0 -44 -48v-48q4 -48 44 -48h20v-72h-1720v72h28q40 0 44 48v48q-4 48 -44 48h-28v1296h28q40 0 44 48v48q-4 48 -44 48h-28v72zM143 1608v-48q4 -48 44 -48h56q40 0 44 48v48q-4 48 -44 48h-56
q-40 0 -44 -48zM359 1608v-48q4 -48 44 -48h56q40 0 44 48v48q-4 48 -44 48h-56q-40 0 -44 -48zM575 1608v-48q4 -48 44 -48h56q40 0 44 48v48q-4 48 -44 48h-56q-40 0 -44 -48zM791 1608v-48q4 -48 44 -48h56q40 0 44 48v48q-4 48 -44 48h-56q-40 0 -44 -48zM1007 1608v-48
q4 -48 44 -48h56q40 0 44 48v48q-4 48 -44 48h-56q-40 0 -44 -48zM1223 1608v-48q4 -48 44 -48h56q40 0 44 48v48q-4 48 -44 48h-56q-40 0 -44 -48zM1439 1608v-48q4 -48 44 -48h56q40 0 44 48v48q-4 48 -44 48h-56q-40 0 -44 -48zM143 1304v-880q0 -103 48 -128
q38 -8 60 -8h1224q70 0 96 44q12 44 12 92v880q0 103 -48 128q-38 8 -60 8h-1224q-70 0 -96 -44q-12 -44 -12 -92zM563 1332h600v-104h-400v-296h200v-104h-200v-400h-200v904zM143 168v-48q4 -48 44 -48h56q40 0 44 48v48q-4 48 -44 48h-56q-40 0 -44 -48zM359 168v-48
q4 -48 44 -48h56q40 0 44 48v48q-4 48 -44 48h-56q-40 0 -44 -48zM575 168v-48q4 -48 44 -48h56q40 0 44 48v48q-4 48 -44 48h-56q-40 0 -44 -48zM791 168v-48q4 -48 44 -48h56q40 0 44 48v48q-4 48 -44 48h-56q-40 0 -44 -48zM1007 168v-48q4 -48 44 -48h56q40 0 44 48v48
q-4 48 -44 48h-56q-40 0 -44 -48zM1223 168v-48q4 -48 44 -48h56q40 0 44 48v48q-4 48 -44 48h-56q-40 0 -44 -48zM1439 168v-48q4 -48 44 -48h56q40 0 44 48v48q-4 48 -44 48h-56q-40 0 -44 -48z" />
    <glyph glyph-name="G" unicode="G" 
d="M-1 1728h1720v-72h-20q-40 0 -44 -48v-48q4 -48 44 -48h20v-1296h-20q-40 0 -44 -48v-48q4 -48 44 -48h20v-72h-1720v72h28q40 0 44 48v48q-4 48 -44 48h-28v1296h28q40 0 44 48v48q-4 48 -44 48h-28v72zM143 1608v-48q4 -48 44 -48h56q40 0 44 48v48q-4 48 -44 48h-56
q-40 0 -44 -48zM359 1608v-48q4 -48 44 -48h56q40 0 44 48v48q-4 48 -44 48h-56q-40 0 -44 -48zM575 1608v-48q4 -48 44 -48h56q40 0 44 48v48q-4 48 -44 48h-56q-40 0 -44 -48zM791 1608v-48q4 -48 44 -48h56q40 0 44 48v48q-4 48 -44 48h-56q-40 0 -44 -48zM1007 1608v-48
q4 -48 44 -48h56q40 0 44 48v48q-4 48 -44 48h-56q-40 0 -44 -48zM1223 1608v-48q4 -48 44 -48h56q40 0 44 48v48q-4 48 -44 48h-56q-40 0 -44 -48zM1439 1608v-48q4 -48 44 -48h56q40 0 44 48v48q-4 48 -44 48h-56q-40 0 -44 -48zM143 1304v-880q0 -103 48 -128
q38 -8 60 -8h1224q70 0 96 44q12 44 12 92v880q0 103 -48 128q-38 8 -60 8h-1224q-70 0 -96 -44q-12 -44 -12 -92zM663 1332h400q75 0 100 -40v-164h-200v100h-200v-696h200v248h-100v52q0 41 84 48h132q84 -7 84 -48v-364q-25 -40 -100 -40h-400q-75 0 -100 40v824
q25 40 100 40zM143 168v-48q4 -48 44 -48h56q40 0 44 48v48q-4 48 -44 48h-56q-40 0 -44 -48zM359 168v-48q4 -48 44 -48h56q40 0 44 48v48q-4 48 -44 48h-56q-40 0 -44 -48zM575 168v-48q4 -48 44 -48h56q40 0 44 48v48q-4 48 -44 48h-56q-40 0 -44 -48zM791 168v-48
q4 -48 44 -48h56q40 0 44 48v48q-4 48 -44 48h-56q-40 0 -44 -48zM1007 168v-48q4 -48 44 -48h56q40 0 44 48v48q-4 48 -44 48h-56q-40 0 -44 -48zM1223 168v-48q4 -48 44 -48h56q40 0 44 48v48q-4 48 -44 48h-56q-40 0 -44 -48zM1439 168v-48q4 -48 44 -48h56q40 0 44 48
v48q-4 48 -44 48h-56q-40 0 -44 -48z" />
    <glyph glyph-name="H" unicode="H" 
d="M-1 1728h1720v-72h-20q-40 0 -44 -48v-48q4 -48 44 -48h20v-1296h-20q-40 0 -44 -48v-48q4 -48 44 -48h20v-72h-1720v72h28q40 0 44 48v48q-4 48 -44 48h-28v1296h28q40 0 44 48v48q-4 48 -44 48h-28v72zM143 1608v-48q4 -48 44 -48h56q40 0 44 48v48q-4 48 -44 48h-56
q-40 0 -44 -48zM359 1608v-48q4 -48 44 -48h56q40 0 44 48v48q-4 48 -44 48h-56q-40 0 -44 -48zM575 1608v-48q4 -48 44 -48h56q40 0 44 48v48q-4 48 -44 48h-56q-40 0 -44 -48zM791 1608v-48q4 -48 44 -48h56q40 0 44 48v48q-4 48 -44 48h-56q-40 0 -44 -48zM1007 1608v-48
q4 -48 44 -48h56q40 0 44 48v48q-4 48 -44 48h-56q-40 0 -44 -48zM1223 1608v-48q4 -48 44 -48h56q40 0 44 48v48q-4 48 -44 48h-56q-40 0 -44 -48zM1439 1608v-48q4 -48 44 -48h56q40 0 44 48v48q-4 48 -44 48h-56q-40 0 -44 -48zM143 1304v-880q0 -103 48 -128
q38 -8 60 -8h1224q70 0 96 44q12 44 12 92v880q0 103 -48 128q-38 8 -60 8h-1224q-70 0 -96 -44q-12 -44 -12 -92zM559 1332h200v-400h200v400h200v-904h-200v400h-200v-400h-200v904zM143 168v-48q4 -48 44 -48h56q40 0 44 48v48q-4 48 -44 48h-56q-40 0 -44 -48zM359 168
v-48q4 -48 44 -48h56q40 0 44 48v48q-4 48 -44 48h-56q-40 0 -44 -48zM575 168v-48q4 -48 44 -48h56q40 0 44 48v48q-4 48 -44 48h-56q-40 0 -44 -48zM791 168v-48q4 -48 44 -48h56q40 0 44 48v48q-4 48 -44 48h-56q-40 0 -44 -48zM1007 168v-48q4 -48 44 -48h56q40 0 44 48
v48q-4 48 -44 48h-56q-40 0 -44 -48zM1223 168v-48q4 -48 44 -48h56q40 0 44 48v48q-4 48 -44 48h-56q-40 0 -44 -48zM1439 168v-48q4 -48 44 -48h56q40 0 44 48v48q-4 48 -44 48h-56q-40 0 -44 -48z" />
    <glyph glyph-name="I" unicode="I" 
d="M-1 1728h1720v-72h-20q-40 0 -44 -48v-48q4 -48 44 -48h20v-1296h-20q-40 0 -44 -48v-48q4 -48 44 -48h20v-72h-1720v72h28q40 0 44 48v48q-4 48 -44 48h-28v1296h28q40 0 44 48v48q-4 48 -44 48h-28v72zM143 1608v-48q4 -48 44 -48h56q40 0 44 48v48q-4 48 -44 48h-56
q-40 0 -44 -48zM359 1608v-48q4 -48 44 -48h56q40 0 44 48v48q-4 48 -44 48h-56q-40 0 -44 -48zM575 1608v-48q4 -48 44 -48h56q40 0 44 48v48q-4 48 -44 48h-56q-40 0 -44 -48zM791 1608v-48q4 -48 44 -48h56q40 0 44 48v48q-4 48 -44 48h-56q-40 0 -44 -48zM1007 1608v-48
q4 -48 44 -48h56q40 0 44 48v48q-4 48 -44 48h-56q-40 0 -44 -48zM1223 1608v-48q4 -48 44 -48h56q40 0 44 48v48q-4 48 -44 48h-56q-40 0 -44 -48zM1439 1608v-48q4 -48 44 -48h56q40 0 44 48v48q-4 48 -44 48h-56q-40 0 -44 -48zM143 1304v-880q0 -103 48 -128
q38 -8 60 -8h1224q70 0 96 44q12 44 12 92v880q0 103 -48 128q-38 8 -60 8h-1224q-70 0 -96 -44q-12 -44 -12 -92zM759 1332h200v-900h-200v900zM143 168v-48q4 -48 44 -48h56q40 0 44 48v48q-4 48 -44 48h-56q-40 0 -44 -48zM359 168v-48q4 -48 44 -48h56q40 0 44 48v48
q-4 48 -44 48h-56q-40 0 -44 -48zM575 168v-48q4 -48 44 -48h56q40 0 44 48v48q-4 48 -44 48h-56q-40 0 -44 -48zM791 168v-48q4 -48 44 -48h56q40 0 44 48v48q-4 48 -44 48h-56q-40 0 -44 -48zM1007 168v-48q4 -48 44 -48h56q40 0 44 48v48q-4 48 -44 48h-56q-40 0 -44 -48
zM1223 168v-48q4 -48 44 -48h56q40 0 44 48v48q-4 48 -44 48h-56q-40 0 -44 -48zM1439 168v-48q4 -48 44 -48h56q40 0 44 48v48q-4 48 -44 48h-56q-40 0 -44 -48z" />
    <glyph glyph-name="J" unicode="J" 
d="M-1 1728h1720v-72h-20q-40 0 -44 -48v-48q4 -48 44 -48h20v-1296h-20q-40 0 -44 -48v-48q4 -48 44 -48h20v-72h-1720v72h28q40 0 44 48v48q-4 48 -44 48h-28v1296h28q40 0 44 48v48q-4 48 -44 48h-28v72zM143 1608v-48q4 -48 44 -48h56q40 0 44 48v48q-4 48 -44 48h-56
q-40 0 -44 -48zM359 1608v-48q4 -48 44 -48h56q40 0 44 48v48q-4 48 -44 48h-56q-40 0 -44 -48zM575 1608v-48q4 -48 44 -48h56q40 0 44 48v48q-4 48 -44 48h-56q-40 0 -44 -48zM791 1608v-48q4 -48 44 -48h56q40 0 44 48v48q-4 48 -44 48h-56q-40 0 -44 -48zM1007 1608v-48
q4 -48 44 -48h56q40 0 44 48v48q-4 48 -44 48h-56q-40 0 -44 -48zM1223 1608v-48q4 -48 44 -48h56q40 0 44 48v48q-4 48 -44 48h-56q-40 0 -44 -48zM1439 1608v-48q4 -48 44 -48h56q40 0 44 48v48q-4 48 -44 48h-56q-40 0 -44 -48zM143 1304v-880q0 -103 48 -128
q38 -8 60 -8h1224q70 0 96 44q12 44 12 92v880q0 103 -48 128q-38 8 -60 8h-1224q-70 0 -96 -44q-12 -44 -12 -92zM963 1332h200v-864q-25 -40 -100 -40h-400q-75 0 -100 40v424h200v-360h200v800zM143 168v-48q4 -48 44 -48h56q40 0 44 48v48q-4 48 -44 48h-56
q-40 0 -44 -48zM359 168v-48q4 -48 44 -48h56q40 0 44 48v48q-4 48 -44 48h-56q-40 0 -44 -48zM575 168v-48q4 -48 44 -48h56q40 0 44 48v48q-4 48 -44 48h-56q-40 0 -44 -48zM791 168v-48q4 -48 44 -48h56q40 0 44 48v48q-4 48 -44 48h-56q-40 0 -44 -48zM1007 168v-48
q4 -48 44 -48h56q40 0 44 48v48q-4 48 -44 48h-56q-40 0 -44 -48zM1223 168v-48q4 -48 44 -48h56q40 0 44 48v48q-4 48 -44 48h-56q-40 0 -44 -48zM1439 168v-48q4 -48 44 -48h56q40 0 44 48v48q-4 48 -44 48h-56q-40 0 -44 -48z" />
    <glyph glyph-name="K" unicode="K" 
d="M-1 1728h1720v-72h-20q-40 0 -44 -48v-48q4 -48 44 -48h20v-1296h-20q-40 0 -44 -48v-48q4 -48 44 -48h20v-72h-1720v72h28q40 0 44 48v48q-4 48 -44 48h-28v1296h28q40 0 44 48v48q-4 48 -44 48h-28v72zM143 1608v-48q4 -48 44 -48h56q40 0 44 48v48q-4 48 -44 48h-56
q-40 0 -44 -48zM359 1608v-48q4 -48 44 -48h56q40 0 44 48v48q-4 48 -44 48h-56q-40 0 -44 -48zM575 1608v-48q4 -48 44 -48h56q40 0 44 48v48q-4 48 -44 48h-56q-40 0 -44 -48zM791 1608v-48q4 -48 44 -48h56q40 0 44 48v48q-4 48 -44 48h-56q-40 0 -44 -48zM1007 1608v-48
q4 -48 44 -48h56q40 0 44 48v48q-4 48 -44 48h-56q-40 0 -44 -48zM1223 1608v-48q4 -48 44 -48h56q40 0 44 48v48q-4 48 -44 48h-56q-40 0 -44 -48zM1439 1608v-48q4 -48 44 -48h56q40 0 44 48v48q-4 48 -44 48h-56q-40 0 -44 -48zM143 1304v-880q0 -103 48 -128
q38 -8 60 -8h1224q70 0 96 44q12 44 12 92v880q0 103 -48 128q-38 8 -60 8h-1224q-70 0 -96 -44q-12 -44 -12 -92zM559 1336h200v-196l200 196h200v-4l-280 -256q272 -612 280 -644q-106 -4 -168 -4h-8q-40 0 -40 40q-132 320 -180 452h-4v-488h-200v904zM143 168v-48
q4 -48 44 -48h56q40 0 44 48v48q-4 48 -44 48h-56q-40 0 -44 -48zM359 168v-48q4 -48 44 -48h56q40 0 44 48v48q-4 48 -44 48h-56q-40 0 -44 -48zM575 168v-48q4 -48 44 -48h56q40 0 44 48v48q-4 48 -44 48h-56q-40 0 -44 -48zM791 168v-48q4 -48 44 -48h56q40 0 44 48v48
q-4 48 -44 48h-56q-40 0 -44 -48zM1007 168v-48q4 -48 44 -48h56q40 0 44 48v48q-4 48 -44 48h-56q-40 0 -44 -48zM1223 168v-48q4 -48 44 -48h56q40 0 44 48v48q-4 48 -44 48h-56q-40 0 -44 -48zM1439 168v-48q4 -48 44 -48h56q40 0 44 48v48q-4 48 -44 48h-56
q-40 0 -44 -48z" />
    <glyph glyph-name="L" unicode="L" 
d="M-1 1728h1720v-72h-20q-40 0 -44 -48v-48q4 -48 44 -48h20v-1296h-20q-40 0 -44 -48v-48q4 -48 44 -48h20v-72h-1720v72h28q40 0 44 48v48q-4 48 -44 48h-28v1296h28q40 0 44 48v48q-4 48 -44 48h-28v72zM143 1608v-48q4 -48 44 -48h56q40 0 44 48v48q-4 48 -44 48h-56
q-40 0 -44 -48zM359 1608v-48q4 -48 44 -48h56q40 0 44 48v48q-4 48 -44 48h-56q-40 0 -44 -48zM575 1608v-48q4 -48 44 -48h56q40 0 44 48v48q-4 48 -44 48h-56q-40 0 -44 -48zM791 1608v-48q4 -48 44 -48h56q40 0 44 48v48q-4 48 -44 48h-56q-40 0 -44 -48zM1007 1608v-48
q4 -48 44 -48h56q40 0 44 48v48q-4 48 -44 48h-56q-40 0 -44 -48zM1223 1608v-48q4 -48 44 -48h56q40 0 44 48v48q-4 48 -44 48h-56q-40 0 -44 -48zM1439 1608v-48q4 -48 44 -48h56q40 0 44 48v48q-4 48 -44 48h-56q-40 0 -44 -48zM143 1304v-880q0 -103 48 -128
q38 -8 60 -8h1224q70 0 96 44q12 44 12 92v880q0 103 -48 128q-38 8 -60 8h-1224q-70 0 -96 -44q-12 -44 -12 -92zM559 1336h200v-800h400v-104h-600v904zM143 168v-48q4 -48 44 -48h56q40 0 44 48v48q-4 48 -44 48h-56q-40 0 -44 -48zM359 168v-48q4 -48 44 -48h56
q40 0 44 48v48q-4 48 -44 48h-56q-40 0 -44 -48zM575 168v-48q4 -48 44 -48h56q40 0 44 48v48q-4 48 -44 48h-56q-40 0 -44 -48zM791 168v-48q4 -48 44 -48h56q40 0 44 48v48q-4 48 -44 48h-56q-40 0 -44 -48zM1007 168v-48q4 -48 44 -48h56q40 0 44 48v48q-4 48 -44 48h-56
q-40 0 -44 -48zM1223 168v-48q4 -48 44 -48h56q40 0 44 48v48q-4 48 -44 48h-56q-40 0 -44 -48zM1439 168v-48q4 -48 44 -48h56q40 0 44 48v48q-4 48 -44 48h-56q-40 0 -44 -48z" />
    <glyph glyph-name="M" unicode="M" 
d="M-1 1728h1720v-72h-20q-40 0 -44 -48v-48q4 -48 44 -48h20v-1296h-20q-40 0 -44 -48v-48q4 -48 44 -48h20v-72h-1720v72h28q40 0 44 48v48q-4 48 -44 48h-28v1296h28q40 0 44 48v48q-4 48 -44 48h-28v72zM143 1608v-48q4 -48 44 -48h56q40 0 44 48v48q-4 48 -44 48h-56
q-40 0 -44 -48zM359 1608v-48q4 -48 44 -48h56q40 0 44 48v48q-4 48 -44 48h-56q-40 0 -44 -48zM575 1608v-48q4 -48 44 -48h56q40 0 44 48v48q-4 48 -44 48h-56q-40 0 -44 -48zM791 1608v-48q4 -48 44 -48h56q40 0 44 48v48q-4 48 -44 48h-56q-40 0 -44 -48zM1007 1608v-48
q4 -48 44 -48h56q40 0 44 48v48q-4 48 -44 48h-56q-40 0 -44 -48zM1223 1608v-48q4 -48 44 -48h56q40 0 44 48v48q-4 48 -44 48h-56q-40 0 -44 -48zM1439 1608v-48q4 -48 44 -48h56q40 0 44 48v48q-4 48 -44 48h-56q-40 0 -44 -48zM143 1304v-880q0 -103 48 -128
q38 -8 60 -8h1224q70 0 96 44q12 44 12 92v880q0 103 -48 128q-38 8 -60 8h-1224q-70 0 -96 -44q-12 -44 -12 -92zM359 1328h204l292 -664h8l292 664h204v-900h-200v440h-4q0 -7 -192 -440h-208q-192 433 -192 440h-4v-440h-200v900zM143 168v-48q4 -48 44 -48h56
q40 0 44 48v48q-4 48 -44 48h-56q-40 0 -44 -48zM359 168v-48q4 -48 44 -48h56q40 0 44 48v48q-4 48 -44 48h-56q-40 0 -44 -48zM575 168v-48q4 -48 44 -48h56q40 0 44 48v48q-4 48 -44 48h-56q-40 0 -44 -48zM791 168v-48q4 -48 44 -48h56q40 0 44 48v48q-4 48 -44 48h-56
q-40 0 -44 -48zM1007 168v-48q4 -48 44 -48h56q40 0 44 48v48q-4 48 -44 48h-56q-40 0 -44 -48zM1223 168v-48q4 -48 44 -48h56q40 0 44 48v48q-4 48 -44 48h-56q-40 0 -44 -48zM1439 168v-48q4 -48 44 -48h56q40 0 44 48v48q-4 48 -44 48h-56q-40 0 -44 -48z" />
    <glyph glyph-name="N" unicode="N" 
d="M-1 1728h1720v-72h-20q-40 0 -44 -48v-48q4 -48 44 -48h20v-1296h-20q-40 0 -44 -48v-48q4 -48 44 -48h20v-72h-1720v72h28q40 0 44 48v48q-4 48 -44 48h-28v1296h28q40 0 44 48v48q-4 48 -44 48h-28v72zM143 1608v-48q4 -48 44 -48h56q40 0 44 48v48q-4 48 -44 48h-56
q-40 0 -44 -48zM359 1608v-48q4 -48 44 -48h56q40 0 44 48v48q-4 48 -44 48h-56q-40 0 -44 -48zM575 1608v-48q4 -48 44 -48h56q40 0 44 48v48q-4 48 -44 48h-56q-40 0 -44 -48zM791 1608v-48q4 -48 44 -48h56q40 0 44 48v48q-4 48 -44 48h-56q-40 0 -44 -48zM1007 1608v-48
q4 -48 44 -48h56q40 0 44 48v48q-4 48 -44 48h-56q-40 0 -44 -48zM1223 1608v-48q4 -48 44 -48h56q40 0 44 48v48q-4 48 -44 48h-56q-40 0 -44 -48zM1439 1608v-48q4 -48 44 -48h56q40 0 44 48v48q-4 48 -44 48h-56q-40 0 -44 -48zM143 1304v-880q0 -103 48 -128
q38 -8 60 -8h1224q70 0 96 44q12 44 12 92v880q0 103 -48 128q-38 8 -60 8h-1224q-70 0 -96 -44q-12 -44 -12 -92zM559 1332h204l192 -440h4v440h200v-904h-204l-192 440h-4v-440h-200v904zM143 168v-48q4 -48 44 -48h56q40 0 44 48v48q-4 48 -44 48h-56q-40 0 -44 -48z
M359 168v-48q4 -48 44 -48h56q40 0 44 48v48q-4 48 -44 48h-56q-40 0 -44 -48zM575 168v-48q4 -48 44 -48h56q40 0 44 48v48q-4 48 -44 48h-56q-40 0 -44 -48zM791 168v-48q4 -48 44 -48h56q40 0 44 48v48q-4 48 -44 48h-56q-40 0 -44 -48zM1007 168v-48q4 -48 44 -48h56
q40 0 44 48v48q-4 48 -44 48h-56q-40 0 -44 -48zM1223 168v-48q4 -48 44 -48h56q40 0 44 48v48q-4 48 -44 48h-56q-40 0 -44 -48zM1439 168v-48q4 -48 44 -48h56q40 0 44 48v48q-4 48 -44 48h-56q-40 0 -44 -48z" />
    <glyph glyph-name="O" unicode="O" 
d="M-1 1728h1720v-72h-20q-40 0 -44 -48v-48q4 -48 44 -48h20v-1296h-20q-40 0 -44 -48v-48q4 -48 44 -48h20v-72h-1720v72h28q40 0 44 48v48q-4 48 -44 48h-28v1296h28q40 0 44 48v48q-4 48 -44 48h-28v72zM143 1608v-48q4 -48 44 -48h56q40 0 44 48v48q-4 48 -44 48h-56
q-40 0 -44 -48zM359 1608v-48q4 -48 44 -48h56q40 0 44 48v48q-4 48 -44 48h-56q-40 0 -44 -48zM575 1608v-48q4 -48 44 -48h56q40 0 44 48v48q-4 48 -44 48h-56q-40 0 -44 -48zM791 1608v-48q4 -48 44 -48h56q40 0 44 48v48q-4 48 -44 48h-56q-40 0 -44 -48zM1007 1608v-48
q4 -48 44 -48h56q40 0 44 48v48q-4 48 -44 48h-56q-40 0 -44 -48zM1223 1608v-48q4 -48 44 -48h56q40 0 44 48v48q-4 48 -44 48h-56q-40 0 -44 -48zM1439 1608v-48q4 -48 44 -48h56q40 0 44 48v48q-4 48 -44 48h-56q-40 0 -44 -48zM143 1304v-880q0 -103 48 -128
q38 -8 60 -8h1224q70 0 96 44q12 44 12 92v880q0 103 -48 128q-38 8 -60 8h-1224q-70 0 -96 -44q-12 -44 -12 -92zM659 1332h400q75 0 100 -40v-824q-25 -40 -100 -40h-400q-75 0 -100 40v824q25 40 100 40zM759 1228v-696h200v696h-200zM143 168v-48q4 -48 44 -48h56
q40 0 44 48v48q-4 48 -44 48h-56q-40 0 -44 -48zM359 168v-48q4 -48 44 -48h56q40 0 44 48v48q-4 48 -44 48h-56q-40 0 -44 -48zM575 168v-48q4 -48 44 -48h56q40 0 44 48v48q-4 48 -44 48h-56q-40 0 -44 -48zM791 168v-48q4 -48 44 -48h56q40 0 44 48v48q-4 48 -44 48h-56
q-40 0 -44 -48zM1007 168v-48q4 -48 44 -48h56q40 0 44 48v48q-4 48 -44 48h-56q-40 0 -44 -48zM1223 168v-48q4 -48 44 -48h56q40 0 44 48v48q-4 48 -44 48h-56q-40 0 -44 -48zM1439 168v-48q4 -48 44 -48h56q40 0 44 48v48q-4 48 -44 48h-56q-40 0 -44 -48z" />
    <glyph glyph-name="P" unicode="P" 
d="M-1 1728h1720v-72h-20q-40 0 -44 -48v-48q4 -48 44 -48h20v-1296h-20q-40 0 -44 -48v-48q4 -48 44 -48h20v-72h-1720v72h28q40 0 44 48v48q-4 48 -44 48h-28v1296h28q40 0 44 48v48q-4 48 -44 48h-28v72zM143 1608v-48q4 -48 44 -48h56q40 0 44 48v48q-4 48 -44 48h-56
q-40 0 -44 -48zM359 1608v-48q4 -48 44 -48h56q40 0 44 48v48q-4 48 -44 48h-56q-40 0 -44 -48zM575 1608v-48q4 -48 44 -48h56q40 0 44 48v48q-4 48 -44 48h-56q-40 0 -44 -48zM791 1608v-48q4 -48 44 -48h56q40 0 44 48v48q-4 48 -44 48h-56q-40 0 -44 -48zM1007 1608v-48
q4 -48 44 -48h56q40 0 44 48v48q-4 48 -44 48h-56q-40 0 -44 -48zM1223 1608v-48q4 -48 44 -48h56q40 0 44 48v48q-4 48 -44 48h-56q-40 0 -44 -48zM1439 1608v-48q4 -48 44 -48h56q40 0 44 48v48q-4 48 -44 48h-56q-40 0 -44 -48zM143 1304v-880q0 -103 48 -128
q38 -8 60 -8h1224q70 0 96 44q12 44 12 92v880q0 103 -48 128q-38 8 -60 8h-1224q-70 0 -96 -44q-12 -44 -12 -92zM563 1332h500q75 0 100 -40v-464q0 -41 -84 -48h-316v-352h-200v904zM763 1228v-348h200v348h-200zM143 168v-48q4 -48 44 -48h56q40 0 44 48v48
q-4 48 -44 48h-56q-40 0 -44 -48zM359 168v-48q4 -48 44 -48h56q40 0 44 48v48q-4 48 -44 48h-56q-40 0 -44 -48zM575 168v-48q4 -48 44 -48h56q40 0 44 48v48q-4 48 -44 48h-56q-40 0 -44 -48zM791 168v-48q4 -48 44 -48h56q40 0 44 48v48q-4 48 -44 48h-56q-40 0 -44 -48z
M1007 168v-48q4 -48 44 -48h56q40 0 44 48v48q-4 48 -44 48h-56q-40 0 -44 -48zM1223 168v-48q4 -48 44 -48h56q40 0 44 48v48q-4 48 -44 48h-56q-40 0 -44 -48zM1439 168v-48q4 -48 44 -48h56q40 0 44 48v48q-4 48 -44 48h-56q-40 0 -44 -48z" />
    <glyph glyph-name="Q" unicode="Q" 
d="M-1 1728h1720v-72h-20q-40 0 -44 -48v-48q4 -48 44 -48h20v-1296h-20q-40 0 -44 -48v-48q4 -48 44 -48h20v-72h-1720v72h28q40 0 44 48v48q-4 48 -44 48h-28v1296h28q40 0 44 48v48q-4 48 -44 48h-28v72zM143 1608v-48q4 -48 44 -48h56q40 0 44 48v48q-4 48 -44 48h-56
q-40 0 -44 -48zM359 1608v-48q4 -48 44 -48h56q40 0 44 48v48q-4 48 -44 48h-56q-40 0 -44 -48zM575 1608v-48q4 -48 44 -48h56q40 0 44 48v48q-4 48 -44 48h-56q-40 0 -44 -48zM791 1608v-48q4 -48 44 -48h56q40 0 44 48v48q-4 48 -44 48h-56q-40 0 -44 -48zM1007 1608v-48
q4 -48 44 -48h56q40 0 44 48v48q-4 48 -44 48h-56q-40 0 -44 -48zM1223 1608v-48q4 -48 44 -48h56q40 0 44 48v48q-4 48 -44 48h-56q-40 0 -44 -48zM1439 1608v-48q4 -48 44 -48h56q40 0 44 48v48q-4 48 -44 48h-56q-40 0 -44 -48zM143 1304v-880q0 -103 48 -128
q38 -8 60 -8h1224q70 0 96 44q12 44 12 92v880q0 103 -48 128q-38 8 -60 8h-1224q-70 0 -96 -44q-12 -44 -12 -92zM647 1328h432q84 -7 84 -48v-804q0 -41 -84 -48h-116v-100h-116q-84 7 -84 48v52h-116q-84 7 -84 48v804q0 41 84 48zM763 1228v-700h200v700h-200zM143 168
v-48q4 -48 44 -48h56q40 0 44 48v48q-4 48 -44 48h-56q-40 0 -44 -48zM359 168v-48q4 -48 44 -48h56q40 0 44 48v48q-4 48 -44 48h-56q-40 0 -44 -48zM575 168v-48q4 -48 44 -48h56q40 0 44 48v48q-4 48 -44 48h-56q-40 0 -44 -48zM791 168v-48q4 -48 44 -48h56q40 0 44 48
v48q-4 48 -44 48h-56q-40 0 -44 -48zM1007 168v-48q4 -48 44 -48h56q40 0 44 48v48q-4 48 -44 48h-56q-40 0 -44 -48zM1223 168v-48q4 -48 44 -48h56q40 0 44 48v48q-4 48 -44 48h-56q-40 0 -44 -48zM1439 168v-48q4 -48 44 -48h56q40 0 44 48v48q-4 48 -44 48h-56
q-40 0 -44 -48z" />
    <glyph glyph-name="R" unicode="R" 
d="M-1 1728h1720v-72h-20q-40 0 -44 -48v-48q4 -48 44 -48h20v-1296h-20q-40 0 -44 -48v-48q4 -48 44 -48h20v-72h-1720v72h28q40 0 44 48v48q-4 48 -44 48h-28v1296h28q40 0 44 48v48q-4 48 -44 48h-28v72zM143 1608v-48q4 -48 44 -48h56q40 0 44 48v48q-4 48 -44 48h-56
q-40 0 -44 -48zM359 1608v-48q4 -48 44 -48h56q40 0 44 48v48q-4 48 -44 48h-56q-40 0 -44 -48zM575 1608v-48q4 -48 44 -48h56q40 0 44 48v48q-4 48 -44 48h-56q-40 0 -44 -48zM791 1608v-48q4 -48 44 -48h56q40 0 44 48v48q-4 48 -44 48h-56q-40 0 -44 -48zM1007 1608v-48
q4 -48 44 -48h56q40 0 44 48v48q-4 48 -44 48h-56q-40 0 -44 -48zM1223 1608v-48q4 -48 44 -48h56q40 0 44 48v48q-4 48 -44 48h-56q-40 0 -44 -48zM1439 1608v-48q4 -48 44 -48h56q40 0 44 48v48q-4 48 -44 48h-56q-40 0 -44 -48zM143 1304v-880q0 -103 48 -128
q38 -8 60 -8h1224q70 0 96 44q12 44 12 92v880q0 103 -48 128q-38 8 -60 8h-1224q-70 0 -96 -44q-12 -44 -12 -92zM559 1332h500q75 0 100 -40v-364q-9 -44 -60 -44v-8q51 0 60 -44v-404h-200v400h-200v-400h-200v904zM759 1228v-300h200v300h-200zM143 168v-48
q4 -48 44 -48h56q40 0 44 48v48q-4 48 -44 48h-56q-40 0 -44 -48zM359 168v-48q4 -48 44 -48h56q40 0 44 48v48q-4 48 -44 48h-56q-40 0 -44 -48zM575 168v-48q4 -48 44 -48h56q40 0 44 48v48q-4 48 -44 48h-56q-40 0 -44 -48zM791 168v-48q4 -48 44 -48h56q40 0 44 48v48
q-4 48 -44 48h-56q-40 0 -44 -48zM1007 168v-48q4 -48 44 -48h56q40 0 44 48v48q-4 48 -44 48h-56q-40 0 -44 -48zM1223 168v-48q4 -48 44 -48h56q40 0 44 48v48q-4 48 -44 48h-56q-40 0 -44 -48zM1439 168v-48q4 -48 44 -48h56q40 0 44 48v48q-4 48 -44 48h-56
q-40 0 -44 -48z" />
    <glyph glyph-name="S" unicode="S" 
d="M-1 1728h1720v-72h-20q-40 0 -44 -48v-48q4 -48 44 -48h20v-1296h-20q-40 0 -44 -48v-48q4 -48 44 -48h20v-72h-1720v72h28q40 0 44 48v48q-4 48 -44 48h-28v1296h28q40 0 44 48v48q-4 48 -44 48h-28v72zM143 1608v-48q4 -48 44 -48h56q40 0 44 48v48q-4 48 -44 48h-56
q-40 0 -44 -48zM359 1608v-48q4 -48 44 -48h56q40 0 44 48v48q-4 48 -44 48h-56q-40 0 -44 -48zM575 1608v-48q4 -48 44 -48h56q40 0 44 48v48q-4 48 -44 48h-56q-40 0 -44 -48zM791 1608v-48q4 -48 44 -48h56q40 0 44 48v48q-4 48 -44 48h-56q-40 0 -44 -48zM1007 1608v-48
q4 -48 44 -48h56q40 0 44 48v48q-4 48 -44 48h-56q-40 0 -44 -48zM1223 1608v-48q4 -48 44 -48h56q40 0 44 48v48q-4 48 -44 48h-56q-40 0 -44 -48zM1439 1608v-48q4 -48 44 -48h56q40 0 44 48v48q-4 48 -44 48h-56q-40 0 -44 -48zM143 1304v-880q0 -103 48 -128
q38 -8 60 -8h1224q70 0 96 44q12 44 12 92v880q0 103 -48 128q-38 8 -60 8h-1224q-70 0 -96 -44q-12 -44 -12 -92zM659 1332h500v-104h-400v-296h300q67 0 100 -36q4 -101 4 -160v-268q-25 -40 -100 -40h-500v104h400v296h-4q-123 0 -332 4q-68 13 -68 48v412q25 40 100 40z
M143 168v-48q4 -48 44 -48h56q40 0 44 48v48q-4 48 -44 48h-56q-40 0 -44 -48zM359 168v-48q4 -48 44 -48h56q40 0 44 48v48q-4 48 -44 48h-56q-40 0 -44 -48zM575 168v-48q4 -48 44 -48h56q40 0 44 48v48q-4 48 -44 48h-56q-40 0 -44 -48zM791 168v-48q4 -48 44 -48h56
q40 0 44 48v48q-4 48 -44 48h-56q-40 0 -44 -48zM1007 168v-48q4 -48 44 -48h56q40 0 44 48v48q-4 48 -44 48h-56q-40 0 -44 -48zM1223 168v-48q4 -48 44 -48h56q40 0 44 48v48q-4 48 -44 48h-56q-40 0 -44 -48zM1439 168v-48q4 -48 44 -48h56q40 0 44 48v48q-4 48 -44 48
h-56q-40 0 -44 -48z" />
    <glyph glyph-name="T" unicode="T" 
d="M-1 1728h1720v-72h-20q-40 0 -44 -48v-48q4 -48 44 -48h20v-1296h-20q-40 0 -44 -48v-48q4 -48 44 -48h20v-72h-1720v72h28q40 0 44 48v48q-4 48 -44 48h-28v1296h28q40 0 44 48v48q-4 48 -44 48h-28v72zM143 1608v-48q4 -48 44 -48h56q40 0 44 48v48q-4 48 -44 48h-56
q-40 0 -44 -48zM359 1608v-48q4 -48 44 -48h56q40 0 44 48v48q-4 48 -44 48h-56q-40 0 -44 -48zM575 1608v-48q4 -48 44 -48h56q40 0 44 48v48q-4 48 -44 48h-56q-40 0 -44 -48zM791 1608v-48q4 -48 44 -48h56q40 0 44 48v48q-4 48 -44 48h-56q-40 0 -44 -48zM1007 1608v-48
q4 -48 44 -48h56q40 0 44 48v48q-4 48 -44 48h-56q-40 0 -44 -48zM1223 1608v-48q4 -48 44 -48h56q40 0 44 48v48q-4 48 -44 48h-56q-40 0 -44 -48zM1439 1608v-48q4 -48 44 -48h56q40 0 44 48v48q-4 48 -44 48h-56q-40 0 -44 -48zM143 1304v-880q0 -103 48 -128
q38 -8 60 -8h1224q70 0 96 44q12 44 12 92v880q0 103 -48 128q-38 8 -60 8h-1224q-70 0 -96 -44q-12 -44 -12 -92zM559 1332h600v-104h-200v-800h-200v800h-200v104zM143 168v-48q4 -48 44 -48h56q40 0 44 48v48q-4 48 -44 48h-56q-40 0 -44 -48zM359 168v-48q4 -48 44 -48
h56q40 0 44 48v48q-4 48 -44 48h-56q-40 0 -44 -48zM575 168v-48q4 -48 44 -48h56q40 0 44 48v48q-4 48 -44 48h-56q-40 0 -44 -48zM791 168v-48q4 -48 44 -48h56q40 0 44 48v48q-4 48 -44 48h-56q-40 0 -44 -48zM1007 168v-48q4 -48 44 -48h56q40 0 44 48v48q-4 48 -44 48
h-56q-40 0 -44 -48zM1223 168v-48q4 -48 44 -48h56q40 0 44 48v48q-4 48 -44 48h-56q-40 0 -44 -48zM1439 168v-48q4 -48 44 -48h56q40 0 44 48v48q-4 48 -44 48h-56q-40 0 -44 -48z" />
    <glyph glyph-name="U" unicode="U" 
d="M-1 1728h1720v-72h-20q-40 0 -44 -48v-48q4 -48 44 -48h20v-1296h-20q-40 0 -44 -48v-48q4 -48 44 -48h20v-72h-1720v72h28q40 0 44 48v48q-4 48 -44 48h-28v1296h28q40 0 44 48v48q-4 48 -44 48h-28v72zM143 1608v-48q4 -48 44 -48h56q40 0 44 48v48q-4 48 -44 48h-56
q-40 0 -44 -48zM359 1608v-48q4 -48 44 -48h56q40 0 44 48v48q-4 48 -44 48h-56q-40 0 -44 -48zM575 1608v-48q4 -48 44 -48h56q40 0 44 48v48q-4 48 -44 48h-56q-40 0 -44 -48zM791 1608v-48q4 -48 44 -48h56q40 0 44 48v48q-4 48 -44 48h-56q-40 0 -44 -48zM1007 1608v-48
q4 -48 44 -48h56q40 0 44 48v48q-4 48 -44 48h-56q-40 0 -44 -48zM1223 1608v-48q4 -48 44 -48h56q40 0 44 48v48q-4 48 -44 48h-56q-40 0 -44 -48zM1439 1608v-48q4 -48 44 -48h56q40 0 44 48v48q-4 48 -44 48h-56q-40 0 -44 -48zM143 1304v-880q0 -103 48 -128
q38 -8 60 -8h1224q70 0 96 44q12 44 12 92v880q0 103 -48 128q-38 8 -60 8h-1224q-70 0 -96 -44q-12 -44 -12 -92zM559 1332h200v-800h200v800h200v-864q-25 -40 -100 -40h-400q-75 0 -100 40v864zM143 168v-48q4 -48 44 -48h56q40 0 44 48v48q-4 48 -44 48h-56
q-40 0 -44 -48zM359 168v-48q4 -48 44 -48h56q40 0 44 48v48q-4 48 -44 48h-56q-40 0 -44 -48zM575 168v-48q4 -48 44 -48h56q40 0 44 48v48q-4 48 -44 48h-56q-40 0 -44 -48zM791 168v-48q4 -48 44 -48h56q40 0 44 48v48q-4 48 -44 48h-56q-40 0 -44 -48zM1007 168v-48
q4 -48 44 -48h56q40 0 44 48v48q-4 48 -44 48h-56q-40 0 -44 -48zM1223 168v-48q4 -48 44 -48h56q40 0 44 48v48q-4 48 -44 48h-56q-40 0 -44 -48zM1439 168v-48q4 -48 44 -48h56q40 0 44 48v48q-4 48 -44 48h-56q-40 0 -44 -48z" />
    <glyph glyph-name="V" unicode="V" 
d="M-1 1728h1720v-72h-20q-40 0 -44 -48v-48q4 -48 44 -48h20v-1296h-20q-40 0 -44 -48v-48q4 -48 44 -48h20v-72h-1720v72h28q40 0 44 48v48q-4 48 -44 48h-28v1296h28q40 0 44 48v48q-4 48 -44 48h-28v72zM143 1608v-48q4 -48 44 -48h56q40 0 44 48v48q-4 48 -44 48h-56
q-40 0 -44 -48zM359 1608v-48q4 -48 44 -48h56q40 0 44 48v48q-4 48 -44 48h-56q-40 0 -44 -48zM575 1608v-48q4 -48 44 -48h56q40 0 44 48v48q-4 48 -44 48h-56q-40 0 -44 -48zM791 1608v-48q4 -48 44 -48h56q40 0 44 48v48q-4 48 -44 48h-56q-40 0 -44 -48zM1007 1608v-48
q4 -48 44 -48h56q40 0 44 48v48q-4 48 -44 48h-56q-40 0 -44 -48zM1223 1608v-48q4 -48 44 -48h56q40 0 44 48v48q-4 48 -44 48h-56q-40 0 -44 -48zM1439 1608v-48q4 -48 44 -48h56q40 0 44 48v48q-4 48 -44 48h-56q-40 0 -44 -48zM143 1304v-880q0 -103 48 -128
q38 -8 60 -8h1224q70 0 96 44q12 44 12 92v880q0 103 -48 128q-38 8 -60 8h-1224q-70 0 -96 -44q-12 -44 -12 -92zM563 1332h204v-4q0 -15 96 -640h4q84 567 92 644h204q0 -12 -196 -904h-208q-196 892 -196 904zM143 168v-48q4 -48 44 -48h56q40 0 44 48v48q-4 48 -44 48
h-56q-40 0 -44 -48zM359 168v-48q4 -48 44 -48h56q40 0 44 48v48q-4 48 -44 48h-56q-40 0 -44 -48zM575 168v-48q4 -48 44 -48h56q40 0 44 48v48q-4 48 -44 48h-56q-40 0 -44 -48zM791 168v-48q4 -48 44 -48h56q40 0 44 48v48q-4 48 -44 48h-56q-40 0 -44 -48zM1007 168v-48
q4 -48 44 -48h56q40 0 44 48v48q-4 48 -44 48h-56q-40 0 -44 -48zM1223 168v-48q4 -48 44 -48h56q40 0 44 48v48q-4 48 -44 48h-56q-40 0 -44 -48zM1439 168v-48q4 -48 44 -48h56q40 0 44 48v48q-4 48 -44 48h-56q-40 0 -44 -48z" />
    <glyph glyph-name="W" unicode="W" 
d="M-1 1728h1720v-72h-20q-40 0 -44 -48v-48q4 -48 44 -48h20v-1296h-20q-40 0 -44 -48v-48q4 -48 44 -48h20v-72h-1720v72h28q40 0 44 48v48q-4 48 -44 48h-28v1296h28q40 0 44 48v48q-4 48 -44 48h-28v72zM143 1608v-48q4 -48 44 -48h56q40 0 44 48v48q-4 48 -44 48h-56
q-40 0 -44 -48zM359 1608v-48q4 -48 44 -48h56q40 0 44 48v48q-4 48 -44 48h-56q-40 0 -44 -48zM575 1608v-48q4 -48 44 -48h56q40 0 44 48v48q-4 48 -44 48h-56q-40 0 -44 -48zM791 1608v-48q4 -48 44 -48h56q40 0 44 48v48q-4 48 -44 48h-56q-40 0 -44 -48zM1007 1608v-48
q4 -48 44 -48h56q40 0 44 48v48q-4 48 -44 48h-56q-40 0 -44 -48zM1223 1608v-48q4 -48 44 -48h56q40 0 44 48v48q-4 48 -44 48h-56q-40 0 -44 -48zM1439 1608v-48q4 -48 44 -48h56q40 0 44 48v48q-4 48 -44 48h-56q-40 0 -44 -48zM143 1304v-880q0 -103 48 -128
q38 -8 60 -8h1224q70 0 96 44q12 44 12 92v880q0 103 -48 128q-38 8 -60 8h-1224q-70 0 -96 -44q-12 -44 -12 -92zM359 1328h204q4 -42 96 -644h4q92 627 92 644h208q4 -42 96 -644h4q92 627 92 644h204v-4l-196 -896h-208l-92 428h-8l-92 -428h-208q-196 888 -196 900z
M143 168v-48q4 -48 44 -48h56q40 0 44 48v48q-4 48 -44 48h-56q-40 0 -44 -48zM359 168v-48q4 -48 44 -48h56q40 0 44 48v48q-4 48 -44 48h-56q-40 0 -44 -48zM575 168v-48q4 -48 44 -48h56q40 0 44 48v48q-4 48 -44 48h-56q-40 0 -44 -48zM791 168v-48q4 -48 44 -48h56
q40 0 44 48v48q-4 48 -44 48h-56q-40 0 -44 -48zM1007 168v-48q4 -48 44 -48h56q40 0 44 48v48q-4 48 -44 48h-56q-40 0 -44 -48zM1223 168v-48q4 -48 44 -48h56q40 0 44 48v48q-4 48 -44 48h-56q-40 0 -44 -48zM1439 168v-48q4 -48 44 -48h56q40 0 44 48v48q-4 48 -44 48
h-56q-40 0 -44 -48z" />
    <glyph glyph-name="X" unicode="X" 
d="M-1 1728h1720v-72h-20q-40 0 -44 -48v-48q4 -48 44 -48h20v-1296h-20q-40 0 -44 -48v-48q4 -48 44 -48h20v-72h-1720v72h28q40 0 44 48v48q-4 48 -44 48h-28v1296h28q40 0 44 48v48q-4 48 -44 48h-28v72zM143 1608v-48q4 -48 44 -48h56q40 0 44 48v48q-4 48 -44 48h-56
q-40 0 -44 -48zM359 1608v-48q4 -48 44 -48h56q40 0 44 48v48q-4 48 -44 48h-56q-40 0 -44 -48zM575 1608v-48q4 -48 44 -48h56q40 0 44 48v48q-4 48 -44 48h-56q-40 0 -44 -48zM791 1608v-48q4 -48 44 -48h56q40 0 44 48v48q-4 48 -44 48h-56q-40 0 -44 -48zM1007 1608v-48
q4 -48 44 -48h56q40 0 44 48v48q-4 48 -44 48h-56q-40 0 -44 -48zM1223 1608v-48q4 -48 44 -48h56q40 0 44 48v48q-4 48 -44 48h-56q-40 0 -44 -48zM1439 1608v-48q4 -48 44 -48h56q40 0 44 48v48q-4 48 -44 48h-56q-40 0 -44 -48zM143 1304v-880q0 -103 48 -128
q38 -8 60 -8h1224q70 0 96 44q12 44 12 92v880q0 103 -48 128q-38 8 -60 8h-1224q-70 0 -96 -44q-12 -44 -12 -92zM563 1332h204l92 -312h4l96 312h204v-4l-196 -452q196 -435 196 -448h-204l-96 312h-4l-92 -312h-204q0 10 184 424q12 20 12 32q-193 425 -196 448zM143 168
v-48q4 -48 44 -48h56q40 0 44 48v48q-4 48 -44 48h-56q-40 0 -44 -48zM359 168v-48q4 -48 44 -48h56q40 0 44 48v48q-4 48 -44 48h-56q-40 0 -44 -48zM575 168v-48q4 -48 44 -48h56q40 0 44 48v48q-4 48 -44 48h-56q-40 0 -44 -48zM791 168v-48q4 -48 44 -48h56q40 0 44 48
v48q-4 48 -44 48h-56q-40 0 -44 -48zM1007 168v-48q4 -48 44 -48h56q40 0 44 48v48q-4 48 -44 48h-56q-40 0 -44 -48zM1223 168v-48q4 -48 44 -48h56q40 0 44 48v48q-4 48 -44 48h-56q-40 0 -44 -48zM1439 168v-48q4 -48 44 -48h56q40 0 44 48v48q-4 48 -44 48h-56
q-40 0 -44 -48z" />
    <glyph glyph-name="Y" unicode="Y" 
d="M-1 1728h1720v-72h-20q-40 0 -44 -48v-48q4 -48 44 -48h20v-1296h-20q-40 0 -44 -48v-48q4 -48 44 -48h20v-72h-1720v72h28q40 0 44 48v48q-4 48 -44 48h-28v1296h28q40 0 44 48v48q-4 48 -44 48h-28v72zM143 1608v-48q4 -48 44 -48h56q40 0 44 48v48q-4 48 -44 48h-56
q-40 0 -44 -48zM359 1608v-48q4 -48 44 -48h56q40 0 44 48v48q-4 48 -44 48h-56q-40 0 -44 -48zM575 1608v-48q4 -48 44 -48h56q40 0 44 48v48q-4 48 -44 48h-56q-40 0 -44 -48zM791 1608v-48q4 -48 44 -48h56q40 0 44 48v48q-4 48 -44 48h-56q-40 0 -44 -48zM1007 1608v-48
q4 -48 44 -48h56q40 0 44 48v48q-4 48 -44 48h-56q-40 0 -44 -48zM1223 1608v-48q4 -48 44 -48h56q40 0 44 48v48q-4 48 -44 48h-56q-40 0 -44 -48zM1439 1608v-48q4 -48 44 -48h56q40 0 44 48v48q-4 48 -44 48h-56q-40 0 -44 -48zM143 1304v-880q0 -103 48 -128
q38 -8 60 -8h1224q70 0 96 44q12 44 12 92v880q0 103 -48 128q-38 8 -60 8h-1224q-70 0 -96 -44q-12 -44 -12 -92zM559 1332h204l92 -312h4l96 312h204v-4l-200 -460v-440h-200v440l-200 460v4zM143 168v-48q4 -48 44 -48h56q40 0 44 48v48q-4 48 -44 48h-56q-40 0 -44 -48z
M359 168v-48q4 -48 44 -48h56q40 0 44 48v48q-4 48 -44 48h-56q-40 0 -44 -48zM575 168v-48q4 -48 44 -48h56q40 0 44 48v48q-4 48 -44 48h-56q-40 0 -44 -48zM791 168v-48q4 -48 44 -48h56q40 0 44 48v48q-4 48 -44 48h-56q-40 0 -44 -48zM1007 168v-48q4 -48 44 -48h56
q40 0 44 48v48q-4 48 -44 48h-56q-40 0 -44 -48zM1223 168v-48q4 -48 44 -48h56q40 0 44 48v48q-4 48 -44 48h-56q-40 0 -44 -48zM1439 168v-48q4 -48 44 -48h56q40 0 44 48v48q-4 48 -44 48h-56q-40 0 -44 -48z" />
    <glyph glyph-name="Z" unicode="Z" 
d="M-1 1728h1720v-72h-20q-40 0 -44 -48v-48q4 -48 44 -48h20v-1296h-20q-40 0 -44 -48v-48q4 -48 44 -48h20v-72h-1720v72h28q40 0 44 48v48q-4 48 -44 48h-28v1296h28q40 0 44 48v48q-4 48 -44 48h-28v72zM143 1608v-48q4 -48 44 -48h56q40 0 44 48v48q-4 48 -44 48h-56
q-40 0 -44 -48zM359 1608v-48q4 -48 44 -48h56q40 0 44 48v48q-4 48 -44 48h-56q-40 0 -44 -48zM575 1608v-48q4 -48 44 -48h56q40 0 44 48v48q-4 48 -44 48h-56q-40 0 -44 -48zM791 1608v-48q4 -48 44 -48h56q40 0 44 48v48q-4 48 -44 48h-56q-40 0 -44 -48zM1007 1608v-48
q4 -48 44 -48h56q40 0 44 48v48q-4 48 -44 48h-56q-40 0 -44 -48zM1223 1608v-48q4 -48 44 -48h56q40 0 44 48v48q-4 48 -44 48h-56q-40 0 -44 -48zM1439 1608v-48q4 -48 44 -48h56q40 0 44 48v48q-4 48 -44 48h-56q-40 0 -44 -48zM143 1304v-880q0 -103 48 -128
q38 -8 60 -8h1224q70 0 96 44q12 44 12 92v880q0 103 -48 128q-38 8 -60 8h-1224q-70 0 -96 -44q-12 -44 -12 -92zM563 1332h600v-100q0 -14 -280 -496q-16 -32 -116 -204h396v-104h-600v108l396 692h-396v104zM143 168v-48q4 -48 44 -48h56q40 0 44 48v48q-4 48 -44 48h-56
q-40 0 -44 -48zM359 168v-48q4 -48 44 -48h56q40 0 44 48v48q-4 48 -44 48h-56q-40 0 -44 -48zM575 168v-48q4 -48 44 -48h56q40 0 44 48v48q-4 48 -44 48h-56q-40 0 -44 -48zM791 168v-48q4 -48 44 -48h56q40 0 44 48v48q-4 48 -44 48h-56q-40 0 -44 -48zM1007 168v-48
q4 -48 44 -48h56q40 0 44 48v48q-4 48 -44 48h-56q-40 0 -44 -48zM1223 168v-48q4 -48 44 -48h56q40 0 44 48v48q-4 48 -44 48h-56q-40 0 -44 -48zM1439 168v-48q4 -48 44 -48h56q40 0 44 48v48q-4 48 -44 48h-56q-40 0 -44 -48z" />
    <glyph glyph-name="bracketleft" unicode="[" 
d="M-1 1728h1720v-72h-20q-40 0 -44 -48v-48q4 -48 44 -48h20v-1296h-20q-40 0 -44 -48v-48q4 -48 44 -48h20v-72h-1720v72h28q40 0 44 48v48q-4 48 -44 48h-28v1296h28q40 0 44 48v48q-4 48 -44 48h-28v72zM143 1608v-48q4 -48 44 -48h56q40 0 44 48v48q-4 48 -44 48h-56
q-40 0 -44 -48zM359 1608v-48q4 -48 44 -48h56q40 0 44 48v48q-4 48 -44 48h-56q-40 0 -44 -48zM575 1608v-48q4 -48 44 -48h56q40 0 44 48v48q-4 48 -44 48h-56q-40 0 -44 -48zM791 1608v-48q4 -48 44 -48h56q40 0 44 48v48q-4 48 -44 48h-56q-40 0 -44 -48zM1007 1608v-48
q4 -48 44 -48h56q40 0 44 48v48q-4 48 -44 48h-56q-40 0 -44 -48zM1223 1608v-48q4 -48 44 -48h56q40 0 44 48v48q-4 48 -44 48h-56q-40 0 -44 -48zM1439 1608v-48q4 -48 44 -48h56q40 0 44 48v48q-4 48 -44 48h-56q-40 0 -44 -48zM143 1304v-880q0 -103 48 -128
q38 -8 60 -8h1224q70 0 96 44q12 44 12 92v880q0 103 -48 128q-38 8 -60 8h-1224q-70 0 -96 -44q-12 -44 -12 -92zM675 1332h400q75 0 100 -40v-64h-400v-696h400v-64q-25 -40 -100 -40h-400q-75 0 -100 40v824q25 40 100 40zM143 168v-48q4 -48 44 -48h56q40 0 44 48v48
q-4 48 -44 48h-56q-40 0 -44 -48zM359 168v-48q4 -48 44 -48h56q40 0 44 48v48q-4 48 -44 48h-56q-40 0 -44 -48zM575 168v-48q4 -48 44 -48h56q40 0 44 48v48q-4 48 -44 48h-56q-40 0 -44 -48zM791 168v-48q4 -48 44 -48h56q40 0 44 48v48q-4 48 -44 48h-56q-40 0 -44 -48z
M1007 168v-48q4 -48 44 -48h56q40 0 44 48v48q-4 48 -44 48h-56q-40 0 -44 -48zM1223 168v-48q4 -48 44 -48h56q40 0 44 48v48q-4 48 -44 48h-56q-40 0 -44 -48zM1439 168v-48q4 -48 44 -48h56q40 0 44 48v48q-4 48 -44 48h-56q-40 0 -44 -48z" />
    <glyph glyph-name="backslash" unicode="\" 
d="M-1 1728h1720v-72h-20q-40 0 -44 -48v-48q4 -48 44 -48h20v-1296h-20q-40 0 -44 -48v-48q4 -48 44 -48h20v-72h-1720v72h28q40 0 44 48v48q-4 48 -44 48h-28v1296h28q40 0 44 48v48q-4 48 -44 48h-28v72zM143 1608v-48q4 -48 44 -48h56q40 0 44 48v48q-4 48 -44 48h-56
q-40 0 -44 -48zM359 1608v-48q4 -48 44 -48h56q40 0 44 48v48q-4 48 -44 48h-56q-40 0 -44 -48zM575 1608v-48q4 -48 44 -48h56q40 0 44 48v48q-4 48 -44 48h-56q-40 0 -44 -48zM791 1608v-48q4 -48 44 -48h56q40 0 44 48v48q-4 48 -44 48h-56q-40 0 -44 -48zM1007 1608v-48
q4 -48 44 -48h56q40 0 44 48v48q-4 48 -44 48h-56q-40 0 -44 -48zM1223 1608v-48q4 -48 44 -48h56q40 0 44 48v48q-4 48 -44 48h-56q-40 0 -44 -48zM1439 1608v-48q4 -48 44 -48h56q40 0 44 48v48q-4 48 -44 48h-56q-40 0 -44 -48zM143 1304v-880q0 -103 48 -128
q38 -8 60 -8h1224q70 0 96 44q12 44 12 92v880q0 103 -48 128q-38 8 -60 8h-1224q-70 0 -96 -44q-12 -44 -12 -92zM555 1332h204q396 -896 396 -904h-204l-396 900v4zM143 168v-48q4 -48 44 -48h56q40 0 44 48v48q-4 48 -44 48h-56q-40 0 -44 -48zM359 168v-48q4 -48 44 -48
h56q40 0 44 48v48q-4 48 -44 48h-56q-40 0 -44 -48zM575 168v-48q4 -48 44 -48h56q40 0 44 48v48q-4 48 -44 48h-56q-40 0 -44 -48zM791 168v-48q4 -48 44 -48h56q40 0 44 48v48q-4 48 -44 48h-56q-40 0 -44 -48zM1007 168v-48q4 -48 44 -48h56q40 0 44 48v48q-4 48 -44 48
h-56q-40 0 -44 -48zM1223 168v-48q4 -48 44 -48h56q40 0 44 48v48q-4 48 -44 48h-56q-40 0 -44 -48zM1439 168v-48q4 -48 44 -48h56q40 0 44 48v48q-4 48 -44 48h-56q-40 0 -44 -48z" />
    <glyph glyph-name="bracketright" unicode="]" 
d="M1719 1656h-28q-40 0 -44 -48v-48q4 -48 44 -48h28v-1296h-28q-40 0 -44 -48v-48q4 -48 44 -48h28v-72h-1720v72h20q40 0 44 48v48q-4 48 -44 48h-20v1296h20q40 0 44 48v48q-4 48 -44 48h-20v72h1720v-72zM1531 1656h-56q-40 0 -44 -48v-48q4 -48 44 -48h56q40 0 44 48
v48q-4 48 -44 48zM1315 1656h-56q-40 0 -44 -48v-48q4 -48 44 -48h56q40 0 44 48v48q-4 48 -44 48zM1099 1656h-56q-40 0 -44 -48v-48q4 -48 44 -48h56q40 0 44 48v48q-4 48 -44 48zM883 1656h-56q-40 0 -44 -48v-48q4 -48 44 -48h56q40 0 44 48v48q-4 48 -44 48zM667 1656
h-56q-40 0 -44 -48v-48q4 -48 44 -48h56q40 0 44 48v48q-4 48 -44 48zM451 1656h-56q-40 0 -44 -48v-48q4 -48 44 -48h56q40 0 44 48v48q-4 48 -44 48zM235 1656h-56q-40 0 -44 -48v-48q4 -48 44 -48h56q40 0 44 48v48q-4 48 -44 48zM1563 1396q-26 44 -96 44h-1224
q-22 0 -60 -8q-48 -25 -48 -128v-880q0 -48 12 -92q26 -44 96 -44h1224q22 0 60 8q48 25 48 128v880q0 48 -12 92zM1143 1292v-824q-25 -40 -100 -40h-400q-75 0 -100 40v64h400v696h-400v64q25 40 100 40h400q75 0 100 -40zM1531 216h-56q-40 0 -44 -48v-48q4 -48 44 -48
h56q40 0 44 48v48q-4 48 -44 48zM1315 216h-56q-40 0 -44 -48v-48q4 -48 44 -48h56q40 0 44 48v48q-4 48 -44 48zM1099 216h-56q-40 0 -44 -48v-48q4 -48 44 -48h56q40 0 44 48v48q-4 48 -44 48zM883 216h-56q-40 0 -44 -48v-48q4 -48 44 -48h56q40 0 44 48v48q-4 48 -44 48
zM667 216h-56q-40 0 -44 -48v-48q4 -48 44 -48h56q40 0 44 48v48q-4 48 -44 48zM451 216h-56q-40 0 -44 -48v-48q4 -48 44 -48h56q40 0 44 48v48q-4 48 -44 48zM235 216h-56q-40 0 -44 -48v-48q4 -48 44 -48h56q40 0 44 48v48q-4 48 -44 48z" />
    <glyph glyph-name="asciicircum" unicode="^" horiz-adv-x="1014" 
 />
    <glyph glyph-name="underscore" unicode="_" horiz-adv-x="1024" 
 />
    <glyph glyph-name="grave" unicode="`" horiz-adv-x="1024" 
 />
    <glyph glyph-name="a" unicode="a" 
d="M-1 1728h1720v-72h-20q-40 0 -44 -48v-48q4 -48 44 -48h20v-1296h-20q-40 0 -44 -48v-48q4 -48 44 -48h20v-72h-1720v72h28q40 0 44 48v48q-4 48 -44 48h-28v1296h28q40 0 44 48v48q-4 48 -44 48h-28v72zM143 1608v-48q4 -48 44 -48h56q40 0 44 48v48q-4 48 -44 48h-56
q-40 0 -44 -48zM359 1608v-48q4 -48 44 -48h56q40 0 44 48v48q-4 48 -44 48h-56q-40 0 -44 -48zM575 1608v-48q4 -48 44 -48h56q40 0 44 48v48q-4 48 -44 48h-56q-40 0 -44 -48zM791 1608v-48q4 -48 44 -48h56q40 0 44 48v48q-4 48 -44 48h-56q-40 0 -44 -48zM1007 1608v-48
q4 -48 44 -48h56q40 0 44 48v48q-4 48 -44 48h-56q-40 0 -44 -48zM1223 1608v-48q4 -48 44 -48h56q40 0 44 48v48q-4 48 -44 48h-56q-40 0 -44 -48zM1439 1608v-48q4 -48 44 -48h56q40 0 44 48v48q-4 48 -44 48h-56q-40 0 -44 -48zM143 1304v-880q0 -103 48 -128
q38 -8 60 -8h1224q70 0 96 44q12 44 12 92v880q0 103 -48 128q-38 8 -60 8h-1224q-70 0 -96 -44q-12 -44 -12 -92zM659 1332h400q75 0 100 -40v-864h-200v400h-200v-400h-200v864q25 40 100 40zM759 1228v-296h200v296h-200zM143 168v-48q4 -48 44 -48h56q40 0 44 48v48
q-4 48 -44 48h-56q-40 0 -44 -48zM359 168v-48q4 -48 44 -48h56q40 0 44 48v48q-4 48 -44 48h-56q-40 0 -44 -48zM575 168v-48q4 -48 44 -48h56q40 0 44 48v48q-4 48 -44 48h-56q-40 0 -44 -48zM791 168v-48q4 -48 44 -48h56q40 0 44 48v48q-4 48 -44 48h-56q-40 0 -44 -48z
M1007 168v-48q4 -48 44 -48h56q40 0 44 48v48q-4 48 -44 48h-56q-40 0 -44 -48zM1223 168v-48q4 -48 44 -48h56q40 0 44 48v48q-4 48 -44 48h-56q-40 0 -44 -48zM1439 168v-48q4 -48 44 -48h56q40 0 44 48v48q-4 48 -44 48h-56q-40 0 -44 -48z" />
    <glyph glyph-name="b" unicode="b" 
d="M-1 1728h1720v-72h-20q-40 0 -44 -48v-48q4 -48 44 -48h20v-1296h-20q-40 0 -44 -48v-48q4 -48 44 -48h20v-72h-1720v72h28q40 0 44 48v48q-4 48 -44 48h-28v1296h28q40 0 44 48v48q-4 48 -44 48h-28v72zM143 1608v-48q4 -48 44 -48h56q40 0 44 48v48q-4 48 -44 48h-56
q-40 0 -44 -48zM359 1608v-48q4 -48 44 -48h56q40 0 44 48v48q-4 48 -44 48h-56q-40 0 -44 -48zM575 1608v-48q4 -48 44 -48h56q40 0 44 48v48q-4 48 -44 48h-56q-40 0 -44 -48zM791 1608v-48q4 -48 44 -48h56q40 0 44 48v48q-4 48 -44 48h-56q-40 0 -44 -48zM1007 1608v-48
q4 -48 44 -48h56q40 0 44 48v48q-4 48 -44 48h-56q-40 0 -44 -48zM1223 1608v-48q4 -48 44 -48h56q40 0 44 48v48q-4 48 -44 48h-56q-40 0 -44 -48zM1439 1608v-48q4 -48 44 -48h56q40 0 44 48v48q-4 48 -44 48h-56q-40 0 -44 -48zM143 1304v-880q0 -103 48 -128
q38 -8 60 -8h1224q70 0 96 44q12 44 12 92v880q0 103 -48 128q-38 8 -60 8h-1224q-70 0 -96 -44q-12 -44 -12 -92zM559 1328h516q84 -7 84 -48v-364q-28 -36 -60 -36v-4q51 0 60 -44v-356q0 -41 -84 -48h-516v900zM759 1228v-300h200v300h-200zM759 828v-300h200v300h-200z
M143 168v-48q4 -48 44 -48h56q40 0 44 48v48q-4 48 -44 48h-56q-40 0 -44 -48zM359 168v-48q4 -48 44 -48h56q40 0 44 48v48q-4 48 -44 48h-56q-40 0 -44 -48zM575 168v-48q4 -48 44 -48h56q40 0 44 48v48q-4 48 -44 48h-56q-40 0 -44 -48zM791 168v-48q4 -48 44 -48h56
q40 0 44 48v48q-4 48 -44 48h-56q-40 0 -44 -48zM1007 168v-48q4 -48 44 -48h56q40 0 44 48v48q-4 48 -44 48h-56q-40 0 -44 -48zM1223 168v-48q4 -48 44 -48h56q40 0 44 48v48q-4 48 -44 48h-56q-40 0 -44 -48zM1439 168v-48q4 -48 44 -48h56q40 0 44 48v48q-4 48 -44 48
h-56q-40 0 -44 -48z" />
    <glyph glyph-name="c" unicode="c" 
d="M-1 1728h1720v-72h-20q-40 0 -44 -48v-48q4 -48 44 -48h20v-1296h-20q-40 0 -44 -48v-48q4 -48 44 -48h20v-72h-1720v72h28q40 0 44 48v48q-4 48 -44 48h-28v1296h28q40 0 44 48v48q-4 48 -44 48h-28v72zM143 1608v-48q4 -48 44 -48h56q40 0 44 48v48q-4 48 -44 48h-56
q-40 0 -44 -48zM359 1608v-48q4 -48 44 -48h56q40 0 44 48v48q-4 48 -44 48h-56q-40 0 -44 -48zM575 1608v-48q4 -48 44 -48h56q40 0 44 48v48q-4 48 -44 48h-56q-40 0 -44 -48zM791 1608v-48q4 -48 44 -48h56q40 0 44 48v48q-4 48 -44 48h-56q-40 0 -44 -48zM1007 1608v-48
q4 -48 44 -48h56q40 0 44 48v48q-4 48 -44 48h-56q-40 0 -44 -48zM1223 1608v-48q4 -48 44 -48h56q40 0 44 48v48q-4 48 -44 48h-56q-40 0 -44 -48zM1439 1608v-48q4 -48 44 -48h56q40 0 44 48v48q-4 48 -44 48h-56q-40 0 -44 -48zM143 1304v-880q0 -103 48 -128
q38 -8 60 -8h1224q70 0 96 44q12 44 12 92v880q0 103 -48 128q-38 8 -60 8h-1224q-70 0 -96 -44q-12 -44 -12 -92zM659 1332h400q75 0 100 -40v-164h-200v100h-200v-696h200v100h200v-164q-25 -40 -100 -40h-400q-75 0 -100 40v824q25 40 100 40zM143 168v-48q4 -48 44 -48
h56q40 0 44 48v48q-4 48 -44 48h-56q-40 0 -44 -48zM359 168v-48q4 -48 44 -48h56q40 0 44 48v48q-4 48 -44 48h-56q-40 0 -44 -48zM575 168v-48q4 -48 44 -48h56q40 0 44 48v48q-4 48 -44 48h-56q-40 0 -44 -48zM791 168v-48q4 -48 44 -48h56q40 0 44 48v48q-4 48 -44 48
h-56q-40 0 -44 -48zM1007 168v-48q4 -48 44 -48h56q40 0 44 48v48q-4 48 -44 48h-56q-40 0 -44 -48zM1223 168v-48q4 -48 44 -48h56q40 0 44 48v48q-4 48 -44 48h-56q-40 0 -44 -48zM1439 168v-48q4 -48 44 -48h56q40 0 44 48v48q-4 48 -44 48h-56q-40 0 -44 -48z" />
    <glyph glyph-name="d" unicode="d" 
d="M-1 1728h1720v-72h-20q-40 0 -44 -48v-48q4 -48 44 -48h20v-1296h-20q-40 0 -44 -48v-48q4 -48 44 -48h20v-72h-1720v72h28q40 0 44 48v48q-4 48 -44 48h-28v1296h28q40 0 44 48v48q-4 48 -44 48h-28v72zM143 1608v-48q4 -48 44 -48h56q40 0 44 48v48q-4 48 -44 48h-56
q-40 0 -44 -48zM359 1608v-48q4 -48 44 -48h56q40 0 44 48v48q-4 48 -44 48h-56q-40 0 -44 -48zM575 1608v-48q4 -48 44 -48h56q40 0 44 48v48q-4 48 -44 48h-56q-40 0 -44 -48zM791 1608v-48q4 -48 44 -48h56q40 0 44 48v48q-4 48 -44 48h-56q-40 0 -44 -48zM1007 1608v-48
q4 -48 44 -48h56q40 0 44 48v48q-4 48 -44 48h-56q-40 0 -44 -48zM1223 1608v-48q4 -48 44 -48h56q40 0 44 48v48q-4 48 -44 48h-56q-40 0 -44 -48zM1439 1608v-48q4 -48 44 -48h56q40 0 44 48v48q-4 48 -44 48h-56q-40 0 -44 -48zM143 1304v-880q0 -103 48 -128
q38 -8 60 -8h1224q70 0 96 44q12 44 12 92v880q0 103 -48 128q-38 8 -60 8h-1224q-70 0 -96 -44q-12 -44 -12 -92zM559 1332h500q75 0 100 -40v-824q-25 -40 -100 -40h-500v904zM759 1228v-696h200v696h-200zM143 168v-48q4 -48 44 -48h56q40 0 44 48v48q-4 48 -44 48h-56
q-40 0 -44 -48zM359 168v-48q4 -48 44 -48h56q40 0 44 48v48q-4 48 -44 48h-56q-40 0 -44 -48zM575 168v-48q4 -48 44 -48h56q40 0 44 48v48q-4 48 -44 48h-56q-40 0 -44 -48zM791 168v-48q4 -48 44 -48h56q40 0 44 48v48q-4 48 -44 48h-56q-40 0 -44 -48zM1007 168v-48
q4 -48 44 -48h56q40 0 44 48v48q-4 48 -44 48h-56q-40 0 -44 -48zM1223 168v-48q4 -48 44 -48h56q40 0 44 48v48q-4 48 -44 48h-56q-40 0 -44 -48zM1439 168v-48q4 -48 44 -48h56q40 0 44 48v48q-4 48 -44 48h-56q-40 0 -44 -48z" />
    <glyph glyph-name="e" unicode="e" 
d="M-1 1728h1720v-72h-20q-40 0 -44 -48v-48q4 -48 44 -48h20v-1296h-20q-40 0 -44 -48v-48q4 -48 44 -48h20v-72h-1720v72h28q40 0 44 48v48q-4 48 -44 48h-28v1296h28q40 0 44 48v48q-4 48 -44 48h-28v72zM143 1608v-48q4 -48 44 -48h56q40 0 44 48v48q-4 48 -44 48h-56
q-40 0 -44 -48zM359 1608v-48q4 -48 44 -48h56q40 0 44 48v48q-4 48 -44 48h-56q-40 0 -44 -48zM575 1608v-48q4 -48 44 -48h56q40 0 44 48v48q-4 48 -44 48h-56q-40 0 -44 -48zM791 1608v-48q4 -48 44 -48h56q40 0 44 48v48q-4 48 -44 48h-56q-40 0 -44 -48zM1007 1608v-48
q4 -48 44 -48h56q40 0 44 48v48q-4 48 -44 48h-56q-40 0 -44 -48zM1223 1608v-48q4 -48 44 -48h56q40 0 44 48v48q-4 48 -44 48h-56q-40 0 -44 -48zM1439 1608v-48q4 -48 44 -48h56q40 0 44 48v48q-4 48 -44 48h-56q-40 0 -44 -48zM143 1304v-880q0 -103 48 -128
q38 -8 60 -8h1224q70 0 96 44q12 44 12 92v880q0 103 -48 128q-38 8 -60 8h-1224q-70 0 -96 -44q-12 -44 -12 -92zM559 1332h600v-104h-400v-296h200v-104h-200v-296h400v-104h-600v904zM143 168v-48q4 -48 44 -48h56q40 0 44 48v48q-4 48 -44 48h-56q-40 0 -44 -48z
M359 168v-48q4 -48 44 -48h56q40 0 44 48v48q-4 48 -44 48h-56q-40 0 -44 -48zM575 168v-48q4 -48 44 -48h56q40 0 44 48v48q-4 48 -44 48h-56q-40 0 -44 -48zM791 168v-48q4 -48 44 -48h56q40 0 44 48v48q-4 48 -44 48h-56q-40 0 -44 -48zM1007 168v-48q4 -48 44 -48h56
q40 0 44 48v48q-4 48 -44 48h-56q-40 0 -44 -48zM1223 168v-48q4 -48 44 -48h56q40 0 44 48v48q-4 48 -44 48h-56q-40 0 -44 -48zM1439 168v-48q4 -48 44 -48h56q40 0 44 48v48q-4 48 -44 48h-56q-40 0 -44 -48z" />
    <glyph glyph-name="f" unicode="f" 
d="M-1 1728h1720v-72h-20q-40 0 -44 -48v-48q4 -48 44 -48h20v-1296h-20q-40 0 -44 -48v-48q4 -48 44 -48h20v-72h-1720v72h28q40 0 44 48v48q-4 48 -44 48h-28v1296h28q40 0 44 48v48q-4 48 -44 48h-28v72zM143 1608v-48q4 -48 44 -48h56q40 0 44 48v48q-4 48 -44 48h-56
q-40 0 -44 -48zM359 1608v-48q4 -48 44 -48h56q40 0 44 48v48q-4 48 -44 48h-56q-40 0 -44 -48zM575 1608v-48q4 -48 44 -48h56q40 0 44 48v48q-4 48 -44 48h-56q-40 0 -44 -48zM791 1608v-48q4 -48 44 -48h56q40 0 44 48v48q-4 48 -44 48h-56q-40 0 -44 -48zM1007 1608v-48
q4 -48 44 -48h56q40 0 44 48v48q-4 48 -44 48h-56q-40 0 -44 -48zM1223 1608v-48q4 -48 44 -48h56q40 0 44 48v48q-4 48 -44 48h-56q-40 0 -44 -48zM1439 1608v-48q4 -48 44 -48h56q40 0 44 48v48q-4 48 -44 48h-56q-40 0 -44 -48zM143 1304v-880q0 -103 48 -128
q38 -8 60 -8h1224q70 0 96 44q12 44 12 92v880q0 103 -48 128q-38 8 -60 8h-1224q-70 0 -96 -44q-12 -44 -12 -92zM563 1332h600v-104h-400v-296h200v-104h-200v-400h-200v904zM143 168v-48q4 -48 44 -48h56q40 0 44 48v48q-4 48 -44 48h-56q-40 0 -44 -48zM359 168v-48
q4 -48 44 -48h56q40 0 44 48v48q-4 48 -44 48h-56q-40 0 -44 -48zM575 168v-48q4 -48 44 -48h56q40 0 44 48v48q-4 48 -44 48h-56q-40 0 -44 -48zM791 168v-48q4 -48 44 -48h56q40 0 44 48v48q-4 48 -44 48h-56q-40 0 -44 -48zM1007 168v-48q4 -48 44 -48h56q40 0 44 48v48
q-4 48 -44 48h-56q-40 0 -44 -48zM1223 168v-48q4 -48 44 -48h56q40 0 44 48v48q-4 48 -44 48h-56q-40 0 -44 -48zM1439 168v-48q4 -48 44 -48h56q40 0 44 48v48q-4 48 -44 48h-56q-40 0 -44 -48z" />
    <glyph glyph-name="g" unicode="g" 
d="M-1 1728h1720v-72h-20q-40 0 -44 -48v-48q4 -48 44 -48h20v-1296h-20q-40 0 -44 -48v-48q4 -48 44 -48h20v-72h-1720v72h28q40 0 44 48v48q-4 48 -44 48h-28v1296h28q40 0 44 48v48q-4 48 -44 48h-28v72zM143 1608v-48q4 -48 44 -48h56q40 0 44 48v48q-4 48 -44 48h-56
q-40 0 -44 -48zM359 1608v-48q4 -48 44 -48h56q40 0 44 48v48q-4 48 -44 48h-56q-40 0 -44 -48zM575 1608v-48q4 -48 44 -48h56q40 0 44 48v48q-4 48 -44 48h-56q-40 0 -44 -48zM791 1608v-48q4 -48 44 -48h56q40 0 44 48v48q-4 48 -44 48h-56q-40 0 -44 -48zM1007 1608v-48
q4 -48 44 -48h56q40 0 44 48v48q-4 48 -44 48h-56q-40 0 -44 -48zM1223 1608v-48q4 -48 44 -48h56q40 0 44 48v48q-4 48 -44 48h-56q-40 0 -44 -48zM1439 1608v-48q4 -48 44 -48h56q40 0 44 48v48q-4 48 -44 48h-56q-40 0 -44 -48zM143 1304v-880q0 -103 48 -128
q38 -8 60 -8h1224q70 0 96 44q12 44 12 92v880q0 103 -48 128q-38 8 -60 8h-1224q-70 0 -96 -44q-12 -44 -12 -92zM663 1332h400q75 0 100 -40v-164h-200v100h-200v-696h200v248h-100v52q0 41 84 48h132q84 -7 84 -48v-364q-25 -40 -100 -40h-400q-75 0 -100 40v824
q25 40 100 40zM143 168v-48q4 -48 44 -48h56q40 0 44 48v48q-4 48 -44 48h-56q-40 0 -44 -48zM359 168v-48q4 -48 44 -48h56q40 0 44 48v48q-4 48 -44 48h-56q-40 0 -44 -48zM575 168v-48q4 -48 44 -48h56q40 0 44 48v48q-4 48 -44 48h-56q-40 0 -44 -48zM791 168v-48
q4 -48 44 -48h56q40 0 44 48v48q-4 48 -44 48h-56q-40 0 -44 -48zM1007 168v-48q4 -48 44 -48h56q40 0 44 48v48q-4 48 -44 48h-56q-40 0 -44 -48zM1223 168v-48q4 -48 44 -48h56q40 0 44 48v48q-4 48 -44 48h-56q-40 0 -44 -48zM1439 168v-48q4 -48 44 -48h56q40 0 44 48
v48q-4 48 -44 48h-56q-40 0 -44 -48z" />
    <glyph glyph-name="h" unicode="h" 
d="M-1 1728h1720v-72h-20q-40 0 -44 -48v-48q4 -48 44 -48h20v-1296h-20q-40 0 -44 -48v-48q4 -48 44 -48h20v-72h-1720v72h28q40 0 44 48v48q-4 48 -44 48h-28v1296h28q40 0 44 48v48q-4 48 -44 48h-28v72zM143 1608v-48q4 -48 44 -48h56q40 0 44 48v48q-4 48 -44 48h-56
q-40 0 -44 -48zM359 1608v-48q4 -48 44 -48h56q40 0 44 48v48q-4 48 -44 48h-56q-40 0 -44 -48zM575 1608v-48q4 -48 44 -48h56q40 0 44 48v48q-4 48 -44 48h-56q-40 0 -44 -48zM791 1608v-48q4 -48 44 -48h56q40 0 44 48v48q-4 48 -44 48h-56q-40 0 -44 -48zM1007 1608v-48
q4 -48 44 -48h56q40 0 44 48v48q-4 48 -44 48h-56q-40 0 -44 -48zM1223 1608v-48q4 -48 44 -48h56q40 0 44 48v48q-4 48 -44 48h-56q-40 0 -44 -48zM1439 1608v-48q4 -48 44 -48h56q40 0 44 48v48q-4 48 -44 48h-56q-40 0 -44 -48zM143 1304v-880q0 -103 48 -128
q38 -8 60 -8h1224q70 0 96 44q12 44 12 92v880q0 103 -48 128q-38 8 -60 8h-1224q-70 0 -96 -44q-12 -44 -12 -92zM559 1332h200v-400h200v400h200v-904h-200v400h-200v-400h-200v904zM143 168v-48q4 -48 44 -48h56q40 0 44 48v48q-4 48 -44 48h-56q-40 0 -44 -48zM359 168
v-48q4 -48 44 -48h56q40 0 44 48v48q-4 48 -44 48h-56q-40 0 -44 -48zM575 168v-48q4 -48 44 -48h56q40 0 44 48v48q-4 48 -44 48h-56q-40 0 -44 -48zM791 168v-48q4 -48 44 -48h56q40 0 44 48v48q-4 48 -44 48h-56q-40 0 -44 -48zM1007 168v-48q4 -48 44 -48h56q40 0 44 48
v48q-4 48 -44 48h-56q-40 0 -44 -48zM1223 168v-48q4 -48 44 -48h56q40 0 44 48v48q-4 48 -44 48h-56q-40 0 -44 -48zM1439 168v-48q4 -48 44 -48h56q40 0 44 48v48q-4 48 -44 48h-56q-40 0 -44 -48z" />
    <glyph glyph-name="i" unicode="i" 
d="M-1 1728h1720v-72h-20q-40 0 -44 -48v-48q4 -48 44 -48h20v-1296h-20q-40 0 -44 -48v-48q4 -48 44 -48h20v-72h-1720v72h28q40 0 44 48v48q-4 48 -44 48h-28v1296h28q40 0 44 48v48q-4 48 -44 48h-28v72zM143 1608v-48q4 -48 44 -48h56q40 0 44 48v48q-4 48 -44 48h-56
q-40 0 -44 -48zM359 1608v-48q4 -48 44 -48h56q40 0 44 48v48q-4 48 -44 48h-56q-40 0 -44 -48zM575 1608v-48q4 -48 44 -48h56q40 0 44 48v48q-4 48 -44 48h-56q-40 0 -44 -48zM791 1608v-48q4 -48 44 -48h56q40 0 44 48v48q-4 48 -44 48h-56q-40 0 -44 -48zM1007 1608v-48
q4 -48 44 -48h56q40 0 44 48v48q-4 48 -44 48h-56q-40 0 -44 -48zM1223 1608v-48q4 -48 44 -48h56q40 0 44 48v48q-4 48 -44 48h-56q-40 0 -44 -48zM1439 1608v-48q4 -48 44 -48h56q40 0 44 48v48q-4 48 -44 48h-56q-40 0 -44 -48zM143 1304v-880q0 -103 48 -128
q38 -8 60 -8h1224q70 0 96 44q12 44 12 92v880q0 103 -48 128q-38 8 -60 8h-1224q-70 0 -96 -44q-12 -44 -12 -92zM759 1332h200v-900h-200v900zM143 168v-48q4 -48 44 -48h56q40 0 44 48v48q-4 48 -44 48h-56q-40 0 -44 -48zM359 168v-48q4 -48 44 -48h56q40 0 44 48v48
q-4 48 -44 48h-56q-40 0 -44 -48zM575 168v-48q4 -48 44 -48h56q40 0 44 48v48q-4 48 -44 48h-56q-40 0 -44 -48zM791 168v-48q4 -48 44 -48h56q40 0 44 48v48q-4 48 -44 48h-56q-40 0 -44 -48zM1007 168v-48q4 -48 44 -48h56q40 0 44 48v48q-4 48 -44 48h-56q-40 0 -44 -48
zM1223 168v-48q4 -48 44 -48h56q40 0 44 48v48q-4 48 -44 48h-56q-40 0 -44 -48zM1439 168v-48q4 -48 44 -48h56q40 0 44 48v48q-4 48 -44 48h-56q-40 0 -44 -48z" />
    <glyph glyph-name="j" unicode="j" 
d="M-1 1728h1720v-72h-20q-40 0 -44 -48v-48q4 -48 44 -48h20v-1296h-20q-40 0 -44 -48v-48q4 -48 44 -48h20v-72h-1720v72h28q40 0 44 48v48q-4 48 -44 48h-28v1296h28q40 0 44 48v48q-4 48 -44 48h-28v72zM143 1608v-48q4 -48 44 -48h56q40 0 44 48v48q-4 48 -44 48h-56
q-40 0 -44 -48zM359 1608v-48q4 -48 44 -48h56q40 0 44 48v48q-4 48 -44 48h-56q-40 0 -44 -48zM575 1608v-48q4 -48 44 -48h56q40 0 44 48v48q-4 48 -44 48h-56q-40 0 -44 -48zM791 1608v-48q4 -48 44 -48h56q40 0 44 48v48q-4 48 -44 48h-56q-40 0 -44 -48zM1007 1608v-48
q4 -48 44 -48h56q40 0 44 48v48q-4 48 -44 48h-56q-40 0 -44 -48zM1223 1608v-48q4 -48 44 -48h56q40 0 44 48v48q-4 48 -44 48h-56q-40 0 -44 -48zM1439 1608v-48q4 -48 44 -48h56q40 0 44 48v48q-4 48 -44 48h-56q-40 0 -44 -48zM143 1304v-880q0 -103 48 -128
q38 -8 60 -8h1224q70 0 96 44q12 44 12 92v880q0 103 -48 128q-38 8 -60 8h-1224q-70 0 -96 -44q-12 -44 -12 -92zM963 1332h200v-864q-25 -40 -100 -40h-400q-75 0 -100 40v424h200v-360h200v800zM143 168v-48q4 -48 44 -48h56q40 0 44 48v48q-4 48 -44 48h-56
q-40 0 -44 -48zM359 168v-48q4 -48 44 -48h56q40 0 44 48v48q-4 48 -44 48h-56q-40 0 -44 -48zM575 168v-48q4 -48 44 -48h56q40 0 44 48v48q-4 48 -44 48h-56q-40 0 -44 -48zM791 168v-48q4 -48 44 -48h56q40 0 44 48v48q-4 48 -44 48h-56q-40 0 -44 -48zM1007 168v-48
q4 -48 44 -48h56q40 0 44 48v48q-4 48 -44 48h-56q-40 0 -44 -48zM1223 168v-48q4 -48 44 -48h56q40 0 44 48v48q-4 48 -44 48h-56q-40 0 -44 -48zM1439 168v-48q4 -48 44 -48h56q40 0 44 48v48q-4 48 -44 48h-56q-40 0 -44 -48z" />
    <glyph glyph-name="k" unicode="k" 
d="M-1 1728h1720v-72h-20q-40 0 -44 -48v-48q4 -48 44 -48h20v-1296h-20q-40 0 -44 -48v-48q4 -48 44 -48h20v-72h-1720v72h28q40 0 44 48v48q-4 48 -44 48h-28v1296h28q40 0 44 48v48q-4 48 -44 48h-28v72zM143 1608v-48q4 -48 44 -48h56q40 0 44 48v48q-4 48 -44 48h-56
q-40 0 -44 -48zM359 1608v-48q4 -48 44 -48h56q40 0 44 48v48q-4 48 -44 48h-56q-40 0 -44 -48zM575 1608v-48q4 -48 44 -48h56q40 0 44 48v48q-4 48 -44 48h-56q-40 0 -44 -48zM791 1608v-48q4 -48 44 -48h56q40 0 44 48v48q-4 48 -44 48h-56q-40 0 -44 -48zM1007 1608v-48
q4 -48 44 -48h56q40 0 44 48v48q-4 48 -44 48h-56q-40 0 -44 -48zM1223 1608v-48q4 -48 44 -48h56q40 0 44 48v48q-4 48 -44 48h-56q-40 0 -44 -48zM1439 1608v-48q4 -48 44 -48h56q40 0 44 48v48q-4 48 -44 48h-56q-40 0 -44 -48zM143 1304v-880q0 -103 48 -128
q38 -8 60 -8h1224q70 0 96 44q12 44 12 92v880q0 103 -48 128q-38 8 -60 8h-1224q-70 0 -96 -44q-12 -44 -12 -92zM559 1336h200v-196l200 196h200v-4l-280 -256q272 -612 280 -644q-106 -4 -168 -4h-8q-40 0 -40 40q-132 320 -180 452h-4v-488h-200v904zM143 168v-48
q4 -48 44 -48h56q40 0 44 48v48q-4 48 -44 48h-56q-40 0 -44 -48zM359 168v-48q4 -48 44 -48h56q40 0 44 48v48q-4 48 -44 48h-56q-40 0 -44 -48zM575 168v-48q4 -48 44 -48h56q40 0 44 48v48q-4 48 -44 48h-56q-40 0 -44 -48zM791 168v-48q4 -48 44 -48h56q40 0 44 48v48
q-4 48 -44 48h-56q-40 0 -44 -48zM1007 168v-48q4 -48 44 -48h56q40 0 44 48v48q-4 48 -44 48h-56q-40 0 -44 -48zM1223 168v-48q4 -48 44 -48h56q40 0 44 48v48q-4 48 -44 48h-56q-40 0 -44 -48zM1439 168v-48q4 -48 44 -48h56q40 0 44 48v48q-4 48 -44 48h-56
q-40 0 -44 -48z" />
    <glyph glyph-name="l" unicode="l" 
d="M-1 1728h1720v-72h-20q-40 0 -44 -48v-48q4 -48 44 -48h20v-1296h-20q-40 0 -44 -48v-48q4 -48 44 -48h20v-72h-1720v72h28q40 0 44 48v48q-4 48 -44 48h-28v1296h28q40 0 44 48v48q-4 48 -44 48h-28v72zM143 1608v-48q4 -48 44 -48h56q40 0 44 48v48q-4 48 -44 48h-56
q-40 0 -44 -48zM359 1608v-48q4 -48 44 -48h56q40 0 44 48v48q-4 48 -44 48h-56q-40 0 -44 -48zM575 1608v-48q4 -48 44 -48h56q40 0 44 48v48q-4 48 -44 48h-56q-40 0 -44 -48zM791 1608v-48q4 -48 44 -48h56q40 0 44 48v48q-4 48 -44 48h-56q-40 0 -44 -48zM1007 1608v-48
q4 -48 44 -48h56q40 0 44 48v48q-4 48 -44 48h-56q-40 0 -44 -48zM1223 1608v-48q4 -48 44 -48h56q40 0 44 48v48q-4 48 -44 48h-56q-40 0 -44 -48zM1439 1608v-48q4 -48 44 -48h56q40 0 44 48v48q-4 48 -44 48h-56q-40 0 -44 -48zM143 1304v-880q0 -103 48 -128
q38 -8 60 -8h1224q70 0 96 44q12 44 12 92v880q0 103 -48 128q-38 8 -60 8h-1224q-70 0 -96 -44q-12 -44 -12 -92zM559 1336h200v-800h400v-104h-600v904zM143 168v-48q4 -48 44 -48h56q40 0 44 48v48q-4 48 -44 48h-56q-40 0 -44 -48zM359 168v-48q4 -48 44 -48h56
q40 0 44 48v48q-4 48 -44 48h-56q-40 0 -44 -48zM575 168v-48q4 -48 44 -48h56q40 0 44 48v48q-4 48 -44 48h-56q-40 0 -44 -48zM791 168v-48q4 -48 44 -48h56q40 0 44 48v48q-4 48 -44 48h-56q-40 0 -44 -48zM1007 168v-48q4 -48 44 -48h56q40 0 44 48v48q-4 48 -44 48h-56
q-40 0 -44 -48zM1223 168v-48q4 -48 44 -48h56q40 0 44 48v48q-4 48 -44 48h-56q-40 0 -44 -48zM1439 168v-48q4 -48 44 -48h56q40 0 44 48v48q-4 48 -44 48h-56q-40 0 -44 -48z" />
    <glyph glyph-name="m" unicode="m" 
d="M-1 1728h1720v-72h-20q-40 0 -44 -48v-48q4 -48 44 -48h20v-1296h-20q-40 0 -44 -48v-48q4 -48 44 -48h20v-72h-1720v72h28q40 0 44 48v48q-4 48 -44 48h-28v1296h28q40 0 44 48v48q-4 48 -44 48h-28v72zM143 1608v-48q4 -48 44 -48h56q40 0 44 48v48q-4 48 -44 48h-56
q-40 0 -44 -48zM359 1608v-48q4 -48 44 -48h56q40 0 44 48v48q-4 48 -44 48h-56q-40 0 -44 -48zM575 1608v-48q4 -48 44 -48h56q40 0 44 48v48q-4 48 -44 48h-56q-40 0 -44 -48zM791 1608v-48q4 -48 44 -48h56q40 0 44 48v48q-4 48 -44 48h-56q-40 0 -44 -48zM1007 1608v-48
q4 -48 44 -48h56q40 0 44 48v48q-4 48 -44 48h-56q-40 0 -44 -48zM1223 1608v-48q4 -48 44 -48h56q40 0 44 48v48q-4 48 -44 48h-56q-40 0 -44 -48zM1439 1608v-48q4 -48 44 -48h56q40 0 44 48v48q-4 48 -44 48h-56q-40 0 -44 -48zM143 1304v-880q0 -103 48 -128
q38 -8 60 -8h1224q70 0 96 44q12 44 12 92v880q0 103 -48 128q-38 8 -60 8h-1224q-70 0 -96 -44q-12 -44 -12 -92zM359 1328h204l292 -664h8l292 664h204v-900h-200v440h-4q0 -7 -192 -440h-208q-192 433 -192 440h-4v-440h-200v900zM143 168v-48q4 -48 44 -48h56
q40 0 44 48v48q-4 48 -44 48h-56q-40 0 -44 -48zM359 168v-48q4 -48 44 -48h56q40 0 44 48v48q-4 48 -44 48h-56q-40 0 -44 -48zM575 168v-48q4 -48 44 -48h56q40 0 44 48v48q-4 48 -44 48h-56q-40 0 -44 -48zM791 168v-48q4 -48 44 -48h56q40 0 44 48v48q-4 48 -44 48h-56
q-40 0 -44 -48zM1007 168v-48q4 -48 44 -48h56q40 0 44 48v48q-4 48 -44 48h-56q-40 0 -44 -48zM1223 168v-48q4 -48 44 -48h56q40 0 44 48v48q-4 48 -44 48h-56q-40 0 -44 -48zM1439 168v-48q4 -48 44 -48h56q40 0 44 48v48q-4 48 -44 48h-56q-40 0 -44 -48z" />
    <glyph glyph-name="n" unicode="n" 
d="M-1 1728h1720v-72h-20q-40 0 -44 -48v-48q4 -48 44 -48h20v-1296h-20q-40 0 -44 -48v-48q4 -48 44 -48h20v-72h-1720v72h28q40 0 44 48v48q-4 48 -44 48h-28v1296h28q40 0 44 48v48q-4 48 -44 48h-28v72zM143 1608v-48q4 -48 44 -48h56q40 0 44 48v48q-4 48 -44 48h-56
q-40 0 -44 -48zM359 1608v-48q4 -48 44 -48h56q40 0 44 48v48q-4 48 -44 48h-56q-40 0 -44 -48zM575 1608v-48q4 -48 44 -48h56q40 0 44 48v48q-4 48 -44 48h-56q-40 0 -44 -48zM791 1608v-48q4 -48 44 -48h56q40 0 44 48v48q-4 48 -44 48h-56q-40 0 -44 -48zM1007 1608v-48
q4 -48 44 -48h56q40 0 44 48v48q-4 48 -44 48h-56q-40 0 -44 -48zM1223 1608v-48q4 -48 44 -48h56q40 0 44 48v48q-4 48 -44 48h-56q-40 0 -44 -48zM1439 1608v-48q4 -48 44 -48h56q40 0 44 48v48q-4 48 -44 48h-56q-40 0 -44 -48zM143 1304v-880q0 -103 48 -128
q38 -8 60 -8h1224q70 0 96 44q12 44 12 92v880q0 103 -48 128q-38 8 -60 8h-1224q-70 0 -96 -44q-12 -44 -12 -92zM559 1332h204l192 -440h4v440h200v-904h-204l-192 440h-4v-440h-200v904zM143 168v-48q4 -48 44 -48h56q40 0 44 48v48q-4 48 -44 48h-56q-40 0 -44 -48z
M359 168v-48q4 -48 44 -48h56q40 0 44 48v48q-4 48 -44 48h-56q-40 0 -44 -48zM575 168v-48q4 -48 44 -48h56q40 0 44 48v48q-4 48 -44 48h-56q-40 0 -44 -48zM791 168v-48q4 -48 44 -48h56q40 0 44 48v48q-4 48 -44 48h-56q-40 0 -44 -48zM1007 168v-48q4 -48 44 -48h56
q40 0 44 48v48q-4 48 -44 48h-56q-40 0 -44 -48zM1223 168v-48q4 -48 44 -48h56q40 0 44 48v48q-4 48 -44 48h-56q-40 0 -44 -48zM1439 168v-48q4 -48 44 -48h56q40 0 44 48v48q-4 48 -44 48h-56q-40 0 -44 -48z" />
    <glyph glyph-name="o" unicode="o" 
d="M-1 1728h1720v-72h-20q-40 0 -44 -48v-48q4 -48 44 -48h20v-1296h-20q-40 0 -44 -48v-48q4 -48 44 -48h20v-72h-1720v72h28q40 0 44 48v48q-4 48 -44 48h-28v1296h28q40 0 44 48v48q-4 48 -44 48h-28v72zM143 1608v-48q4 -48 44 -48h56q40 0 44 48v48q-4 48 -44 48h-56
q-40 0 -44 -48zM359 1608v-48q4 -48 44 -48h56q40 0 44 48v48q-4 48 -44 48h-56q-40 0 -44 -48zM575 1608v-48q4 -48 44 -48h56q40 0 44 48v48q-4 48 -44 48h-56q-40 0 -44 -48zM791 1608v-48q4 -48 44 -48h56q40 0 44 48v48q-4 48 -44 48h-56q-40 0 -44 -48zM1007 1608v-48
q4 -48 44 -48h56q40 0 44 48v48q-4 48 -44 48h-56q-40 0 -44 -48zM1223 1608v-48q4 -48 44 -48h56q40 0 44 48v48q-4 48 -44 48h-56q-40 0 -44 -48zM1439 1608v-48q4 -48 44 -48h56q40 0 44 48v48q-4 48 -44 48h-56q-40 0 -44 -48zM143 1304v-880q0 -103 48 -128
q38 -8 60 -8h1224q70 0 96 44q12 44 12 92v880q0 103 -48 128q-38 8 -60 8h-1224q-70 0 -96 -44q-12 -44 -12 -92zM659 1332h400q75 0 100 -40v-824q-25 -40 -100 -40h-400q-75 0 -100 40v824q25 40 100 40zM759 1228v-696h200v696h-200zM143 168v-48q4 -48 44 -48h56
q40 0 44 48v48q-4 48 -44 48h-56q-40 0 -44 -48zM359 168v-48q4 -48 44 -48h56q40 0 44 48v48q-4 48 -44 48h-56q-40 0 -44 -48zM575 168v-48q4 -48 44 -48h56q40 0 44 48v48q-4 48 -44 48h-56q-40 0 -44 -48zM791 168v-48q4 -48 44 -48h56q40 0 44 48v48q-4 48 -44 48h-56
q-40 0 -44 -48zM1007 168v-48q4 -48 44 -48h56q40 0 44 48v48q-4 48 -44 48h-56q-40 0 -44 -48zM1223 168v-48q4 -48 44 -48h56q40 0 44 48v48q-4 48 -44 48h-56q-40 0 -44 -48zM1439 168v-48q4 -48 44 -48h56q40 0 44 48v48q-4 48 -44 48h-56q-40 0 -44 -48z" />
    <glyph glyph-name="p" unicode="p" 
d="M-1 1728h1720v-72h-20q-40 0 -44 -48v-48q4 -48 44 -48h20v-1296h-20q-40 0 -44 -48v-48q4 -48 44 -48h20v-72h-1720v72h28q40 0 44 48v48q-4 48 -44 48h-28v1296h28q40 0 44 48v48q-4 48 -44 48h-28v72zM143 1608v-48q4 -48 44 -48h56q40 0 44 48v48q-4 48 -44 48h-56
q-40 0 -44 -48zM359 1608v-48q4 -48 44 -48h56q40 0 44 48v48q-4 48 -44 48h-56q-40 0 -44 -48zM575 1608v-48q4 -48 44 -48h56q40 0 44 48v48q-4 48 -44 48h-56q-40 0 -44 -48zM791 1608v-48q4 -48 44 -48h56q40 0 44 48v48q-4 48 -44 48h-56q-40 0 -44 -48zM1007 1608v-48
q4 -48 44 -48h56q40 0 44 48v48q-4 48 -44 48h-56q-40 0 -44 -48zM1223 1608v-48q4 -48 44 -48h56q40 0 44 48v48q-4 48 -44 48h-56q-40 0 -44 -48zM1439 1608v-48q4 -48 44 -48h56q40 0 44 48v48q-4 48 -44 48h-56q-40 0 -44 -48zM143 1304v-880q0 -103 48 -128
q38 -8 60 -8h1224q70 0 96 44q12 44 12 92v880q0 103 -48 128q-38 8 -60 8h-1224q-70 0 -96 -44q-12 -44 -12 -92zM563 1332h500q75 0 100 -40v-464q0 -41 -84 -48h-316v-352h-200v904zM763 1228v-348h200v348h-200zM143 168v-48q4 -48 44 -48h56q40 0 44 48v48
q-4 48 -44 48h-56q-40 0 -44 -48zM359 168v-48q4 -48 44 -48h56q40 0 44 48v48q-4 48 -44 48h-56q-40 0 -44 -48zM575 168v-48q4 -48 44 -48h56q40 0 44 48v48q-4 48 -44 48h-56q-40 0 -44 -48zM791 168v-48q4 -48 44 -48h56q40 0 44 48v48q-4 48 -44 48h-56q-40 0 -44 -48z
M1007 168v-48q4 -48 44 -48h56q40 0 44 48v48q-4 48 -44 48h-56q-40 0 -44 -48zM1223 168v-48q4 -48 44 -48h56q40 0 44 48v48q-4 48 -44 48h-56q-40 0 -44 -48zM1439 168v-48q4 -48 44 -48h56q40 0 44 48v48q-4 48 -44 48h-56q-40 0 -44 -48z" />
    <glyph glyph-name="q" unicode="q" 
d="M-1 1728h1720v-72h-20q-40 0 -44 -48v-48q4 -48 44 -48h20v-1296h-20q-40 0 -44 -48v-48q4 -48 44 -48h20v-72h-1720v72h28q40 0 44 48v48q-4 48 -44 48h-28v1296h28q40 0 44 48v48q-4 48 -44 48h-28v72zM143 1608v-48q4 -48 44 -48h56q40 0 44 48v48q-4 48 -44 48h-56
q-40 0 -44 -48zM359 1608v-48q4 -48 44 -48h56q40 0 44 48v48q-4 48 -44 48h-56q-40 0 -44 -48zM575 1608v-48q4 -48 44 -48h56q40 0 44 48v48q-4 48 -44 48h-56q-40 0 -44 -48zM791 1608v-48q4 -48 44 -48h56q40 0 44 48v48q-4 48 -44 48h-56q-40 0 -44 -48zM1007 1608v-48
q4 -48 44 -48h56q40 0 44 48v48q-4 48 -44 48h-56q-40 0 -44 -48zM1223 1608v-48q4 -48 44 -48h56q40 0 44 48v48q-4 48 -44 48h-56q-40 0 -44 -48zM1439 1608v-48q4 -48 44 -48h56q40 0 44 48v48q-4 48 -44 48h-56q-40 0 -44 -48zM143 1304v-880q0 -103 48 -128
q38 -8 60 -8h1224q70 0 96 44q12 44 12 92v880q0 103 -48 128q-38 8 -60 8h-1224q-70 0 -96 -44q-12 -44 -12 -92zM647 1328h432q84 -7 84 -48v-804q0 -41 -84 -48h-116v-100h-116q-84 7 -84 48v52h-116q-84 7 -84 48v804q0 41 84 48zM763 1228v-700h200v700h-200zM143 168
v-48q4 -48 44 -48h56q40 0 44 48v48q-4 48 -44 48h-56q-40 0 -44 -48zM359 168v-48q4 -48 44 -48h56q40 0 44 48v48q-4 48 -44 48h-56q-40 0 -44 -48zM575 168v-48q4 -48 44 -48h56q40 0 44 48v48q-4 48 -44 48h-56q-40 0 -44 -48zM791 168v-48q4 -48 44 -48h56q40 0 44 48
v48q-4 48 -44 48h-56q-40 0 -44 -48zM1007 168v-48q4 -48 44 -48h56q40 0 44 48v48q-4 48 -44 48h-56q-40 0 -44 -48zM1223 168v-48q4 -48 44 -48h56q40 0 44 48v48q-4 48 -44 48h-56q-40 0 -44 -48zM1439 168v-48q4 -48 44 -48h56q40 0 44 48v48q-4 48 -44 48h-56
q-40 0 -44 -48z" />
    <glyph glyph-name="r" unicode="r" 
d="M-1 1728h1720v-72h-20q-40 0 -44 -48v-48q4 -48 44 -48h20v-1296h-20q-40 0 -44 -48v-48q4 -48 44 -48h20v-72h-1720v72h28q40 0 44 48v48q-4 48 -44 48h-28v1296h28q40 0 44 48v48q-4 48 -44 48h-28v72zM143 1608v-48q4 -48 44 -48h56q40 0 44 48v48q-4 48 -44 48h-56
q-40 0 -44 -48zM359 1608v-48q4 -48 44 -48h56q40 0 44 48v48q-4 48 -44 48h-56q-40 0 -44 -48zM575 1608v-48q4 -48 44 -48h56q40 0 44 48v48q-4 48 -44 48h-56q-40 0 -44 -48zM791 1608v-48q4 -48 44 -48h56q40 0 44 48v48q-4 48 -44 48h-56q-40 0 -44 -48zM1007 1608v-48
q4 -48 44 -48h56q40 0 44 48v48q-4 48 -44 48h-56q-40 0 -44 -48zM1223 1608v-48q4 -48 44 -48h56q40 0 44 48v48q-4 48 -44 48h-56q-40 0 -44 -48zM1439 1608v-48q4 -48 44 -48h56q40 0 44 48v48q-4 48 -44 48h-56q-40 0 -44 -48zM143 1304v-880q0 -103 48 -128
q38 -8 60 -8h1224q70 0 96 44q12 44 12 92v880q0 103 -48 128q-38 8 -60 8h-1224q-70 0 -96 -44q-12 -44 -12 -92zM559 1332h500q75 0 100 -40v-364q-9 -44 -60 -44v-8q51 0 60 -44v-404h-200v400h-200v-400h-200v904zM759 1228v-300h200v300h-200zM143 168v-48
q4 -48 44 -48h56q40 0 44 48v48q-4 48 -44 48h-56q-40 0 -44 -48zM359 168v-48q4 -48 44 -48h56q40 0 44 48v48q-4 48 -44 48h-56q-40 0 -44 -48zM575 168v-48q4 -48 44 -48h56q40 0 44 48v48q-4 48 -44 48h-56q-40 0 -44 -48zM791 168v-48q4 -48 44 -48h56q40 0 44 48v48
q-4 48 -44 48h-56q-40 0 -44 -48zM1007 168v-48q4 -48 44 -48h56q40 0 44 48v48q-4 48 -44 48h-56q-40 0 -44 -48zM1223 168v-48q4 -48 44 -48h56q40 0 44 48v48q-4 48 -44 48h-56q-40 0 -44 -48zM1439 168v-48q4 -48 44 -48h56q40 0 44 48v48q-4 48 -44 48h-56
q-40 0 -44 -48z" />
    <glyph glyph-name="s" unicode="s" 
d="M-1 1728h1720v-72h-20q-40 0 -44 -48v-48q4 -48 44 -48h20v-1296h-20q-40 0 -44 -48v-48q4 -48 44 -48h20v-72h-1720v72h28q40 0 44 48v48q-4 48 -44 48h-28v1296h28q40 0 44 48v48q-4 48 -44 48h-28v72zM143 1608v-48q4 -48 44 -48h56q40 0 44 48v48q-4 48 -44 48h-56
q-40 0 -44 -48zM359 1608v-48q4 -48 44 -48h56q40 0 44 48v48q-4 48 -44 48h-56q-40 0 -44 -48zM575 1608v-48q4 -48 44 -48h56q40 0 44 48v48q-4 48 -44 48h-56q-40 0 -44 -48zM791 1608v-48q4 -48 44 -48h56q40 0 44 48v48q-4 48 -44 48h-56q-40 0 -44 -48zM1007 1608v-48
q4 -48 44 -48h56q40 0 44 48v48q-4 48 -44 48h-56q-40 0 -44 -48zM1223 1608v-48q4 -48 44 -48h56q40 0 44 48v48q-4 48 -44 48h-56q-40 0 -44 -48zM1439 1608v-48q4 -48 44 -48h56q40 0 44 48v48q-4 48 -44 48h-56q-40 0 -44 -48zM143 1304v-880q0 -103 48 -128
q38 -8 60 -8h1224q70 0 96 44q12 44 12 92v880q0 103 -48 128q-38 8 -60 8h-1224q-70 0 -96 -44q-12 -44 -12 -92zM659 1332h500v-104h-400v-296h300q67 0 100 -36q4 -101 4 -160v-268q-25 -40 -100 -40h-500v104h400v296h-4q-123 0 -332 4q-68 13 -68 48v412q25 40 100 40z
M143 168v-48q4 -48 44 -48h56q40 0 44 48v48q-4 48 -44 48h-56q-40 0 -44 -48zM359 168v-48q4 -48 44 -48h56q40 0 44 48v48q-4 48 -44 48h-56q-40 0 -44 -48zM575 168v-48q4 -48 44 -48h56q40 0 44 48v48q-4 48 -44 48h-56q-40 0 -44 -48zM791 168v-48q4 -48 44 -48h56
q40 0 44 48v48q-4 48 -44 48h-56q-40 0 -44 -48zM1007 168v-48q4 -48 44 -48h56q40 0 44 48v48q-4 48 -44 48h-56q-40 0 -44 -48zM1223 168v-48q4 -48 44 -48h56q40 0 44 48v48q-4 48 -44 48h-56q-40 0 -44 -48zM1439 168v-48q4 -48 44 -48h56q40 0 44 48v48q-4 48 -44 48
h-56q-40 0 -44 -48z" />
    <glyph glyph-name="t" unicode="t" 
d="M-1 1728h1720v-72h-20q-40 0 -44 -48v-48q4 -48 44 -48h20v-1296h-20q-40 0 -44 -48v-48q4 -48 44 -48h20v-72h-1720v72h28q40 0 44 48v48q-4 48 -44 48h-28v1296h28q40 0 44 48v48q-4 48 -44 48h-28v72zM143 1608v-48q4 -48 44 -48h56q40 0 44 48v48q-4 48 -44 48h-56
q-40 0 -44 -48zM359 1608v-48q4 -48 44 -48h56q40 0 44 48v48q-4 48 -44 48h-56q-40 0 -44 -48zM575 1608v-48q4 -48 44 -48h56q40 0 44 48v48q-4 48 -44 48h-56q-40 0 -44 -48zM791 1608v-48q4 -48 44 -48h56q40 0 44 48v48q-4 48 -44 48h-56q-40 0 -44 -48zM1007 1608v-48
q4 -48 44 -48h56q40 0 44 48v48q-4 48 -44 48h-56q-40 0 -44 -48zM1223 1608v-48q4 -48 44 -48h56q40 0 44 48v48q-4 48 -44 48h-56q-40 0 -44 -48zM1439 1608v-48q4 -48 44 -48h56q40 0 44 48v48q-4 48 -44 48h-56q-40 0 -44 -48zM143 1304v-880q0 -103 48 -128
q38 -8 60 -8h1224q70 0 96 44q12 44 12 92v880q0 103 -48 128q-38 8 -60 8h-1224q-70 0 -96 -44q-12 -44 -12 -92zM559 1332h600v-104h-200v-800h-200v800h-200v104zM143 168v-48q4 -48 44 -48h56q40 0 44 48v48q-4 48 -44 48h-56q-40 0 -44 -48zM359 168v-48q4 -48 44 -48
h56q40 0 44 48v48q-4 48 -44 48h-56q-40 0 -44 -48zM575 168v-48q4 -48 44 -48h56q40 0 44 48v48q-4 48 -44 48h-56q-40 0 -44 -48zM791 168v-48q4 -48 44 -48h56q40 0 44 48v48q-4 48 -44 48h-56q-40 0 -44 -48zM1007 168v-48q4 -48 44 -48h56q40 0 44 48v48q-4 48 -44 48
h-56q-40 0 -44 -48zM1223 168v-48q4 -48 44 -48h56q40 0 44 48v48q-4 48 -44 48h-56q-40 0 -44 -48zM1439 168v-48q4 -48 44 -48h56q40 0 44 48v48q-4 48 -44 48h-56q-40 0 -44 -48z" />
    <glyph glyph-name="u" unicode="u" 
d="M-1 1728h1720v-72h-20q-40 0 -44 -48v-48q4 -48 44 -48h20v-1296h-20q-40 0 -44 -48v-48q4 -48 44 -48h20v-72h-1720v72h28q40 0 44 48v48q-4 48 -44 48h-28v1296h28q40 0 44 48v48q-4 48 -44 48h-28v72zM143 1608v-48q4 -48 44 -48h56q40 0 44 48v48q-4 48 -44 48h-56
q-40 0 -44 -48zM359 1608v-48q4 -48 44 -48h56q40 0 44 48v48q-4 48 -44 48h-56q-40 0 -44 -48zM575 1608v-48q4 -48 44 -48h56q40 0 44 48v48q-4 48 -44 48h-56q-40 0 -44 -48zM791 1608v-48q4 -48 44 -48h56q40 0 44 48v48q-4 48 -44 48h-56q-40 0 -44 -48zM1007 1608v-48
q4 -48 44 -48h56q40 0 44 48v48q-4 48 -44 48h-56q-40 0 -44 -48zM1223 1608v-48q4 -48 44 -48h56q40 0 44 48v48q-4 48 -44 48h-56q-40 0 -44 -48zM1439 1608v-48q4 -48 44 -48h56q40 0 44 48v48q-4 48 -44 48h-56q-40 0 -44 -48zM143 1304v-880q0 -103 48 -128
q38 -8 60 -8h1224q70 0 96 44q12 44 12 92v880q0 103 -48 128q-38 8 -60 8h-1224q-70 0 -96 -44q-12 -44 -12 -92zM559 1332h200v-800h200v800h200v-864q-25 -40 -100 -40h-400q-75 0 -100 40v864zM143 168v-48q4 -48 44 -48h56q40 0 44 48v48q-4 48 -44 48h-56
q-40 0 -44 -48zM359 168v-48q4 -48 44 -48h56q40 0 44 48v48q-4 48 -44 48h-56q-40 0 -44 -48zM575 168v-48q4 -48 44 -48h56q40 0 44 48v48q-4 48 -44 48h-56q-40 0 -44 -48zM791 168v-48q4 -48 44 -48h56q40 0 44 48v48q-4 48 -44 48h-56q-40 0 -44 -48zM1007 168v-48
q4 -48 44 -48h56q40 0 44 48v48q-4 48 -44 48h-56q-40 0 -44 -48zM1223 168v-48q4 -48 44 -48h56q40 0 44 48v48q-4 48 -44 48h-56q-40 0 -44 -48zM1439 168v-48q4 -48 44 -48h56q40 0 44 48v48q-4 48 -44 48h-56q-40 0 -44 -48z" />
    <glyph glyph-name="v" unicode="v" 
d="M-1 1728h1720v-72h-20q-40 0 -44 -48v-48q4 -48 44 -48h20v-1296h-20q-40 0 -44 -48v-48q4 -48 44 -48h20v-72h-1720v72h28q40 0 44 48v48q-4 48 -44 48h-28v1296h28q40 0 44 48v48q-4 48 -44 48h-28v72zM143 1608v-48q4 -48 44 -48h56q40 0 44 48v48q-4 48 -44 48h-56
q-40 0 -44 -48zM359 1608v-48q4 -48 44 -48h56q40 0 44 48v48q-4 48 -44 48h-56q-40 0 -44 -48zM575 1608v-48q4 -48 44 -48h56q40 0 44 48v48q-4 48 -44 48h-56q-40 0 -44 -48zM791 1608v-48q4 -48 44 -48h56q40 0 44 48v48q-4 48 -44 48h-56q-40 0 -44 -48zM1007 1608v-48
q4 -48 44 -48h56q40 0 44 48v48q-4 48 -44 48h-56q-40 0 -44 -48zM1223 1608v-48q4 -48 44 -48h56q40 0 44 48v48q-4 48 -44 48h-56q-40 0 -44 -48zM1439 1608v-48q4 -48 44 -48h56q40 0 44 48v48q-4 48 -44 48h-56q-40 0 -44 -48zM143 1304v-880q0 -103 48 -128
q38 -8 60 -8h1224q70 0 96 44q12 44 12 92v880q0 103 -48 128q-38 8 -60 8h-1224q-70 0 -96 -44q-12 -44 -12 -92zM563 1332h204v-4q0 -15 96 -640h4q84 567 92 644h204q0 -12 -196 -904h-208q-196 892 -196 904zM143 168v-48q4 -48 44 -48h56q40 0 44 48v48q-4 48 -44 48
h-56q-40 0 -44 -48zM359 168v-48q4 -48 44 -48h56q40 0 44 48v48q-4 48 -44 48h-56q-40 0 -44 -48zM575 168v-48q4 -48 44 -48h56q40 0 44 48v48q-4 48 -44 48h-56q-40 0 -44 -48zM791 168v-48q4 -48 44 -48h56q40 0 44 48v48q-4 48 -44 48h-56q-40 0 -44 -48zM1007 168v-48
q4 -48 44 -48h56q40 0 44 48v48q-4 48 -44 48h-56q-40 0 -44 -48zM1223 168v-48q4 -48 44 -48h56q40 0 44 48v48q-4 48 -44 48h-56q-40 0 -44 -48zM1439 168v-48q4 -48 44 -48h56q40 0 44 48v48q-4 48 -44 48h-56q-40 0 -44 -48z" />
    <glyph glyph-name="w" unicode="w" 
d="M-1 1728h1720v-72h-20q-40 0 -44 -48v-48q4 -48 44 -48h20v-1296h-20q-40 0 -44 -48v-48q4 -48 44 -48h20v-72h-1720v72h28q40 0 44 48v48q-4 48 -44 48h-28v1296h28q40 0 44 48v48q-4 48 -44 48h-28v72zM143 1608v-48q4 -48 44 -48h56q40 0 44 48v48q-4 48 -44 48h-56
q-40 0 -44 -48zM359 1608v-48q4 -48 44 -48h56q40 0 44 48v48q-4 48 -44 48h-56q-40 0 -44 -48zM575 1608v-48q4 -48 44 -48h56q40 0 44 48v48q-4 48 -44 48h-56q-40 0 -44 -48zM791 1608v-48q4 -48 44 -48h56q40 0 44 48v48q-4 48 -44 48h-56q-40 0 -44 -48zM1007 1608v-48
q4 -48 44 -48h56q40 0 44 48v48q-4 48 -44 48h-56q-40 0 -44 -48zM1223 1608v-48q4 -48 44 -48h56q40 0 44 48v48q-4 48 -44 48h-56q-40 0 -44 -48zM1439 1608v-48q4 -48 44 -48h56q40 0 44 48v48q-4 48 -44 48h-56q-40 0 -44 -48zM143 1304v-880q0 -103 48 -128
q38 -8 60 -8h1224q70 0 96 44q12 44 12 92v880q0 103 -48 128q-38 8 -60 8h-1224q-70 0 -96 -44q-12 -44 -12 -92zM359 1328h204q4 -42 96 -644h4q92 627 92 644h208q4 -42 96 -644h4q92 627 92 644h204v-4l-196 -896h-208l-92 428h-8l-92 -428h-208q-196 888 -196 900z
M143 168v-48q4 -48 44 -48h56q40 0 44 48v48q-4 48 -44 48h-56q-40 0 -44 -48zM359 168v-48q4 -48 44 -48h56q40 0 44 48v48q-4 48 -44 48h-56q-40 0 -44 -48zM575 168v-48q4 -48 44 -48h56q40 0 44 48v48q-4 48 -44 48h-56q-40 0 -44 -48zM791 168v-48q4 -48 44 -48h56
q40 0 44 48v48q-4 48 -44 48h-56q-40 0 -44 -48zM1007 168v-48q4 -48 44 -48h56q40 0 44 48v48q-4 48 -44 48h-56q-40 0 -44 -48zM1223 168v-48q4 -48 44 -48h56q40 0 44 48v48q-4 48 -44 48h-56q-40 0 -44 -48zM1439 168v-48q4 -48 44 -48h56q40 0 44 48v48q-4 48 -44 48
h-56q-40 0 -44 -48z" />
    <glyph glyph-name="x" unicode="x" 
d="M-1 1728h1720v-72h-20q-40 0 -44 -48v-48q4 -48 44 -48h20v-1296h-20q-40 0 -44 -48v-48q4 -48 44 -48h20v-72h-1720v72h28q40 0 44 48v48q-4 48 -44 48h-28v1296h28q40 0 44 48v48q-4 48 -44 48h-28v72zM143 1608v-48q4 -48 44 -48h56q40 0 44 48v48q-4 48 -44 48h-56
q-40 0 -44 -48zM359 1608v-48q4 -48 44 -48h56q40 0 44 48v48q-4 48 -44 48h-56q-40 0 -44 -48zM575 1608v-48q4 -48 44 -48h56q40 0 44 48v48q-4 48 -44 48h-56q-40 0 -44 -48zM791 1608v-48q4 -48 44 -48h56q40 0 44 48v48q-4 48 -44 48h-56q-40 0 -44 -48zM1007 1608v-48
q4 -48 44 -48h56q40 0 44 48v48q-4 48 -44 48h-56q-40 0 -44 -48zM1223 1608v-48q4 -48 44 -48h56q40 0 44 48v48q-4 48 -44 48h-56q-40 0 -44 -48zM1439 1608v-48q4 -48 44 -48h56q40 0 44 48v48q-4 48 -44 48h-56q-40 0 -44 -48zM143 1304v-880q0 -103 48 -128
q38 -8 60 -8h1224q70 0 96 44q12 44 12 92v880q0 103 -48 128q-38 8 -60 8h-1224q-70 0 -96 -44q-12 -44 -12 -92zM563 1332h204l92 -312h4l96 312h204v-4l-196 -452q196 -435 196 -448h-204l-96 312h-4l-92 -312h-204q0 10 184 424q12 20 12 32q-193 425 -196 448zM143 168
v-48q4 -48 44 -48h56q40 0 44 48v48q-4 48 -44 48h-56q-40 0 -44 -48zM359 168v-48q4 -48 44 -48h56q40 0 44 48v48q-4 48 -44 48h-56q-40 0 -44 -48zM575 168v-48q4 -48 44 -48h56q40 0 44 48v48q-4 48 -44 48h-56q-40 0 -44 -48zM791 168v-48q4 -48 44 -48h56q40 0 44 48
v48q-4 48 -44 48h-56q-40 0 -44 -48zM1007 168v-48q4 -48 44 -48h56q40 0 44 48v48q-4 48 -44 48h-56q-40 0 -44 -48zM1223 168v-48q4 -48 44 -48h56q40 0 44 48v48q-4 48 -44 48h-56q-40 0 -44 -48zM1439 168v-48q4 -48 44 -48h56q40 0 44 48v48q-4 48 -44 48h-56
q-40 0 -44 -48z" />
    <glyph glyph-name="y" unicode="y" 
d="M-1 1728h1720v-72h-20q-40 0 -44 -48v-48q4 -48 44 -48h20v-1296h-20q-40 0 -44 -48v-48q4 -48 44 -48h20v-72h-1720v72h28q40 0 44 48v48q-4 48 -44 48h-28v1296h28q40 0 44 48v48q-4 48 -44 48h-28v72zM143 1608v-48q4 -48 44 -48h56q40 0 44 48v48q-4 48 -44 48h-56
q-40 0 -44 -48zM359 1608v-48q4 -48 44 -48h56q40 0 44 48v48q-4 48 -44 48h-56q-40 0 -44 -48zM575 1608v-48q4 -48 44 -48h56q40 0 44 48v48q-4 48 -44 48h-56q-40 0 -44 -48zM791 1608v-48q4 -48 44 -48h56q40 0 44 48v48q-4 48 -44 48h-56q-40 0 -44 -48zM1007 1608v-48
q4 -48 44 -48h56q40 0 44 48v48q-4 48 -44 48h-56q-40 0 -44 -48zM1223 1608v-48q4 -48 44 -48h56q40 0 44 48v48q-4 48 -44 48h-56q-40 0 -44 -48zM1439 1608v-48q4 -48 44 -48h56q40 0 44 48v48q-4 48 -44 48h-56q-40 0 -44 -48zM143 1304v-880q0 -103 48 -128
q38 -8 60 -8h1224q70 0 96 44q12 44 12 92v880q0 103 -48 128q-38 8 -60 8h-1224q-70 0 -96 -44q-12 -44 -12 -92zM559 1332h204l92 -312h4l96 312h204v-4l-200 -460v-440h-200v440l-200 460v4zM143 168v-48q4 -48 44 -48h56q40 0 44 48v48q-4 48 -44 48h-56q-40 0 -44 -48z
M359 168v-48q4 -48 44 -48h56q40 0 44 48v48q-4 48 -44 48h-56q-40 0 -44 -48zM575 168v-48q4 -48 44 -48h56q40 0 44 48v48q-4 48 -44 48h-56q-40 0 -44 -48zM791 168v-48q4 -48 44 -48h56q40 0 44 48v48q-4 48 -44 48h-56q-40 0 -44 -48zM1007 168v-48q4 -48 44 -48h56
q40 0 44 48v48q-4 48 -44 48h-56q-40 0 -44 -48zM1223 168v-48q4 -48 44 -48h56q40 0 44 48v48q-4 48 -44 48h-56q-40 0 -44 -48zM1439 168v-48q4 -48 44 -48h56q40 0 44 48v48q-4 48 -44 48h-56q-40 0 -44 -48z" />
    <glyph glyph-name="z" unicode="z" 
d="M-1 1728h1720v-72h-20q-40 0 -44 -48v-48q4 -48 44 -48h20v-1296h-20q-40 0 -44 -48v-48q4 -48 44 -48h20v-72h-1720v72h28q40 0 44 48v48q-4 48 -44 48h-28v1296h28q40 0 44 48v48q-4 48 -44 48h-28v72zM143 1608v-48q4 -48 44 -48h56q40 0 44 48v48q-4 48 -44 48h-56
q-40 0 -44 -48zM359 1608v-48q4 -48 44 -48h56q40 0 44 48v48q-4 48 -44 48h-56q-40 0 -44 -48zM575 1608v-48q4 -48 44 -48h56q40 0 44 48v48q-4 48 -44 48h-56q-40 0 -44 -48zM791 1608v-48q4 -48 44 -48h56q40 0 44 48v48q-4 48 -44 48h-56q-40 0 -44 -48zM1007 1608v-48
q4 -48 44 -48h56q40 0 44 48v48q-4 48 -44 48h-56q-40 0 -44 -48zM1223 1608v-48q4 -48 44 -48h56q40 0 44 48v48q-4 48 -44 48h-56q-40 0 -44 -48zM1439 1608v-48q4 -48 44 -48h56q40 0 44 48v48q-4 48 -44 48h-56q-40 0 -44 -48zM143 1304v-880q0 -103 48 -128
q38 -8 60 -8h1224q70 0 96 44q12 44 12 92v880q0 103 -48 128q-38 8 -60 8h-1224q-70 0 -96 -44q-12 -44 -12 -92zM563 1332h600v-100q0 -14 -280 -496q-16 -32 -116 -204h396v-104h-600v108l396 692h-396v104zM143 168v-48q4 -48 44 -48h56q40 0 44 48v48q-4 48 -44 48h-56
q-40 0 -44 -48zM359 168v-48q4 -48 44 -48h56q40 0 44 48v48q-4 48 -44 48h-56q-40 0 -44 -48zM575 168v-48q4 -48 44 -48h56q40 0 44 48v48q-4 48 -44 48h-56q-40 0 -44 -48zM791 168v-48q4 -48 44 -48h56q40 0 44 48v48q-4 48 -44 48h-56q-40 0 -44 -48zM1007 168v-48
q4 -48 44 -48h56q40 0 44 48v48q-4 48 -44 48h-56q-40 0 -44 -48zM1223 168v-48q4 -48 44 -48h56q40 0 44 48v48q-4 48 -44 48h-56q-40 0 -44 -48zM1439 168v-48q4 -48 44 -48h56q40 0 44 48v48q-4 48 -44 48h-56q-40 0 -44 -48z" />
    <glyph glyph-name="braceleft" unicode="{" horiz-adv-x="1014" 
 />
    <glyph glyph-name="bar" unicode="|" horiz-adv-x="1014" 
 />
    <glyph glyph-name="braceright" unicode="}" horiz-adv-x="1014" 
 />
    <glyph glyph-name="asciitilde" unicode="~" horiz-adv-x="1014" 
 />
    <glyph glyph-name="exclamdown" unicode="&#xa1;" horiz-adv-x="672" 
 />
    <glyph glyph-name="cent" unicode="&#xa2;" horiz-adv-x="1139" 
 />
    <glyph glyph-name="sterling" unicode="&#xa3;" horiz-adv-x="1014" 
 />
    <glyph glyph-name="currency" unicode="&#xa4;" horiz-adv-x="1014" 
 />
    <glyph glyph-name="yen" unicode="&#xa5;" horiz-adv-x="1262" 
 />
    <glyph glyph-name="brokenbar" unicode="&#xa6;" horiz-adv-x="1014" 
 />
    <glyph glyph-name="section" unicode="&#xa7;" horiz-adv-x="1014" 
 />
    <glyph glyph-name="dieresis" unicode="&#xa8;" horiz-adv-x="1024" 
 />
    <glyph glyph-name="copyright" unicode="&#xa9;" horiz-adv-x="1674" 
 />
    <glyph glyph-name="ordfeminine" unicode="&#xaa;" horiz-adv-x="648" 
 />
    <glyph glyph-name="guillemotleft" unicode="&#xab;" horiz-adv-x="944" 
 />
    <glyph glyph-name="logicalnot" unicode="&#xac;" horiz-adv-x="1014" 
 />
    <glyph glyph-name="registered" unicode="&#xae;" horiz-adv-x="1674" 
 />
    <glyph glyph-name="macron" unicode="&#xaf;" horiz-adv-x="670" 
 />
    <glyph glyph-name="degree" unicode="&#xb0;" horiz-adv-x="674" 
 />
    <glyph glyph-name="plusminus" unicode="&#xb1;" horiz-adv-x="1014" 
 />
    <glyph glyph-name="uni00B2" unicode="&#xb2;" horiz-adv-x="1014" 
 />
    <glyph glyph-name="uni00B3" unicode="&#xb3;" horiz-adv-x="1014" 
 />
    <glyph glyph-name="acute" unicode="&#xb4;" horiz-adv-x="1024" 
 />
    <glyph glyph-name="mu" unicode="&#xb5;" horiz-adv-x="1180" 
 />
    <glyph glyph-name="paragraph" unicode="&#xb6;" horiz-adv-x="1024" 
 />
    <glyph glyph-name="periodcentered" unicode="&#xb7;" horiz-adv-x="508" 
 />
    <glyph glyph-name="periodcentered" unicode="&#x2219;" horiz-adv-x="508" 
 />
    <glyph glyph-name="cedilla" unicode="&#xb8;" horiz-adv-x="1024" 
 />
    <glyph glyph-name="uni00B9" unicode="&#xb9;" horiz-adv-x="1014" 
 />
    <glyph glyph-name="ordmasculine" unicode="&#xba;" horiz-adv-x="718" 
 />
    <glyph glyph-name="guillemotright" unicode="&#xbb;" horiz-adv-x="944" 
 />
    <glyph glyph-name="onequarter" unicode="&#xbc;" horiz-adv-x="1708" 
 />
    <glyph glyph-name="onehalf" unicode="&#xbd;" horiz-adv-x="1964" 
 />
    <glyph glyph-name="threequarters" unicode="&#xbe;" horiz-adv-x="1708" 
 />
    <glyph glyph-name="questiondown" unicode="&#xbf;" horiz-adv-x="748" 
 />
    <glyph glyph-name="Agrave" unicode="&#xc0;" horiz-adv-x="1540" 
 />
    <glyph glyph-name="Aacute" unicode="&#xc1;" horiz-adv-x="1540" 
 />
    <glyph glyph-name="Acircumflex" unicode="&#xc2;" horiz-adv-x="1540" 
 />
    <glyph glyph-name="Atilde" unicode="&#xc3;" horiz-adv-x="1540" 
 />
    <glyph glyph-name="Adieresis" unicode="&#xc4;" horiz-adv-x="1540" 
 />
    <glyph glyph-name="Aring" unicode="&#xc5;" horiz-adv-x="1540" 
 />
    <glyph glyph-name="AE" unicode="&#xc6;" horiz-adv-x="2118" 
 />
    <glyph glyph-name="Ccedilla" unicode="&#xc7;" horiz-adv-x="1399" 
 />
    <glyph glyph-name="Egrave" unicode="&#xc8;" horiz-adv-x="1151" 
 />
    <glyph glyph-name="Eacute" unicode="&#xc9;" horiz-adv-x="1151" 
 />
    <glyph glyph-name="Ecircumflex" unicode="&#xca;" horiz-adv-x="1151" 
 />
    <glyph glyph-name="Edieresis" unicode="&#xcb;" horiz-adv-x="1151" 
 />
    <glyph glyph-name="Igrave" unicode="&#xcc;" horiz-adv-x="657" 
 />
    <glyph glyph-name="Iacute" unicode="&#xcd;" horiz-adv-x="657" 
 />
    <glyph glyph-name="Icircumflex" unicode="&#xce;" horiz-adv-x="657" 
 />
    <glyph glyph-name="Idieresis" unicode="&#xcf;" horiz-adv-x="657" 
 />
    <glyph glyph-name="Eth" unicode="&#xd0;" horiz-adv-x="1518" 
 />
    <glyph glyph-name="Ntilde" unicode="&#xd1;" horiz-adv-x="1554" 
 />
    <glyph glyph-name="Ograve" unicode="&#xd2;" horiz-adv-x="1614" 
 />
    <glyph glyph-name="Oacute" unicode="&#xd3;" horiz-adv-x="1614" 
 />
    <glyph glyph-name="Ocircumflex" unicode="&#xd4;" horiz-adv-x="1614" 
 />
    <glyph glyph-name="Otilde" unicode="&#xd5;" horiz-adv-x="1614" 
 />
    <glyph glyph-name="Odieresis" unicode="&#xd6;" horiz-adv-x="1614" 
 />
    <glyph glyph-name="multiply" unicode="&#xd7;" horiz-adv-x="1014" 
 />
    <glyph glyph-name="Oslash" unicode="&#xd8;" horiz-adv-x="1614" 
 />
    <glyph glyph-name="Ugrave" unicode="&#xd9;" horiz-adv-x="1501" 
 />
    <glyph glyph-name="Uacute" unicode="&#xda;" horiz-adv-x="1501" 
 />
    <glyph glyph-name="Ucircumflex" unicode="&#xdb;" horiz-adv-x="1501" 
 />
    <glyph glyph-name="Udieresis" unicode="&#xdc;" horiz-adv-x="1501" 
 />
    <glyph glyph-name="Yacute" unicode="&#xdd;" horiz-adv-x="1233" 
 />
    <glyph glyph-name="Thorn" unicode="&#xde;" horiz-adv-x="1120" 
 />
    <glyph glyph-name="germandbls" unicode="&#xdf;" horiz-adv-x="1251" 
 />
    <glyph glyph-name="agrave" unicode="&#xe0;" horiz-adv-x="922" 
 />
    <glyph glyph-name="aacute" unicode="&#xe1;" horiz-adv-x="922" 
 />
    <glyph glyph-name="acircumflex" unicode="&#xe2;" horiz-adv-x="922" 
 />
    <glyph glyph-name="atilde" unicode="&#xe3;" horiz-adv-x="922" 
 />
    <glyph glyph-name="adieresis" unicode="&#xe4;" horiz-adv-x="922" 
 />
    <glyph glyph-name="aring" unicode="&#xe5;" horiz-adv-x="922" 
 />
    <glyph glyph-name="ae" unicode="&#xe6;" horiz-adv-x="1454" 
 />
    <glyph glyph-name="ccedilla" unicode="&#xe7;" horiz-adv-x="905" 
 />
    <glyph glyph-name="egrave" unicode="&#xe8;" horiz-adv-x="909" 
 />
    <glyph glyph-name="eacute" unicode="&#xe9;" horiz-adv-x="909" 
 />
    <glyph glyph-name="ecircumflex" unicode="&#xea;" horiz-adv-x="909" 
 />
    <glyph glyph-name="edieresis" unicode="&#xeb;" horiz-adv-x="909" 
 />
    <glyph glyph-name="igrave" unicode="&#xec;" horiz-adv-x="514" 
 />
    <glyph glyph-name="iacute" unicode="&#xed;" horiz-adv-x="514" 
 />
    <glyph glyph-name="icircumflex" unicode="&#xee;" horiz-adv-x="514" 
 />
    <glyph glyph-name="idieresis" unicode="&#xef;" horiz-adv-x="514" 
 />
    <glyph glyph-name="eth" unicode="&#xf0;" horiz-adv-x="1139" 
 />
    <glyph glyph-name="ntilde" unicode="&#xf1;" horiz-adv-x="1108" 
 />
    <glyph glyph-name="ograve" unicode="&#xf2;" horiz-adv-x="1010" 
 />
    <glyph glyph-name="oacute" unicode="&#xf3;" horiz-adv-x="1010" 
 />
    <glyph glyph-name="ocircumflex" unicode="&#xf4;" horiz-adv-x="1010" 
 />
    <glyph glyph-name="otilde" unicode="&#xf5;" horiz-adv-x="1010" 
 />
    <glyph glyph-name="odieresis" unicode="&#xf6;" horiz-adv-x="1010" 
 />
    <glyph glyph-name="divide" unicode="&#xf7;" horiz-adv-x="1014" 
 />
    <glyph glyph-name="oslash" unicode="&#xf8;" horiz-adv-x="1010" 
 />
    <glyph glyph-name="ugrave" unicode="&#xf9;" horiz-adv-x="1059" 
 />
    <glyph glyph-name="uacute" unicode="&#xfa;" horiz-adv-x="1059" 
 />
    <glyph glyph-name="ucircumflex" unicode="&#xfb;" horiz-adv-x="1059" 
 />
    <glyph glyph-name="udieresis" unicode="&#xfc;" horiz-adv-x="1059" 
 />
    <glyph glyph-name="yacute" unicode="&#xfd;" horiz-adv-x="868" 
 />
    <glyph glyph-name="thorn" unicode="&#xfe;" horiz-adv-x="1010" 
 />
    <glyph glyph-name="ydieresis" unicode="&#xff;" horiz-adv-x="868" 
 />
    <glyph glyph-name="dotlessi" unicode="&#x131;" horiz-adv-x="514" 
 />
    <glyph glyph-name="circumflex" unicode="&#x2c6;" horiz-adv-x="1024" 
 />
    <glyph glyph-name="caron" unicode="&#x2c7;" horiz-adv-x="1024" 
 />
    <glyph glyph-name="uni02C9" unicode="&#x2c9;" horiz-adv-x="1024" 
 />
    <glyph glyph-name="breve" unicode="&#x2d8;" horiz-adv-x="1024" 
 />
    <glyph glyph-name="dotaccent" unicode="&#x2d9;" horiz-adv-x="1024" 
 />
    <glyph glyph-name="ring" unicode="&#x2da;" horiz-adv-x="1024" 
 />
    <glyph glyph-name="ogonek" unicode="&#x2db;" horiz-adv-x="1024" 
 />
    <glyph glyph-name="tilde" unicode="&#x2dc;" horiz-adv-x="1024" 
 />
    <glyph glyph-name="hungarumlaut" unicode="&#x2dd;" horiz-adv-x="1024" 
 />
    <glyph glyph-name="endash" unicode="&#x2013;" horiz-adv-x="1108" 
 />
    <glyph glyph-name="emdash" unicode="&#x2014;" horiz-adv-x="2048" 
 />
    <glyph glyph-name="quoteleft" unicode="&#x2018;" horiz-adv-x="557" 
 />
    <glyph glyph-name="quoteright" unicode="&#x2019;" horiz-adv-x="557" 
 />
    <glyph glyph-name="quotesinglbase" unicode="&#x201a;" horiz-adv-x="557" 
 />
    <glyph glyph-name="quotedblleft" unicode="&#x201c;" horiz-adv-x="910" 
 />
    <glyph glyph-name="quotedblright" unicode="&#x201d;" horiz-adv-x="910" 
 />
    <glyph glyph-name="quotedblbase" unicode="&#x201e;" horiz-adv-x="910" 
 />
    <glyph glyph-name="dagger" unicode="&#x2020;" horiz-adv-x="1014" 
 />
    <glyph glyph-name="daggerdbl" unicode="&#x2021;" horiz-adv-x="1014" 
 />
    <glyph glyph-name="bullet" unicode="&#x2022;" horiz-adv-x="1024" 
 />
    <glyph glyph-name="ellipsis" unicode="&#x2026;" horiz-adv-x="2048" 
 />
    <glyph glyph-name="guilsinglleft" unicode="&#x2039;" horiz-adv-x="631" 
 />
    <glyph glyph-name="guilsinglright" unicode="&#x203a;" horiz-adv-x="631" 
 />
    <glyph glyph-name="fraction" unicode="&#x2044;" horiz-adv-x="342" 
 />
    <glyph glyph-name="fraction" unicode="&#x2215;" horiz-adv-x="342" 
 />
    <glyph glyph-name="franc" unicode="&#x20a3;" horiz-adv-x="1014" 
 />
    <glyph glyph-name="lira" unicode="&#x20a4;" horiz-adv-x="1014" 
 />
    <glyph glyph-name="peseta" unicode="&#x20a7;" horiz-adv-x="2028" 
 />
    <glyph glyph-name="Euro" unicode="&#x20ac;" horiz-adv-x="1014" 
 />
    <glyph glyph-name="afii61352" unicode="&#x2116;" horiz-adv-x="2271" 
 />
    <glyph glyph-name="trademark" unicode="&#x2122;" horiz-adv-x="1497" 
 />
    <glyph glyph-name="partialdiff" unicode="&#x2202;" horiz-adv-x="1014" 
 />
    <glyph glyph-name="Delta" unicode="&#x2206;" horiz-adv-x="1081" 
 />
    <glyph glyph-name="product" unicode="&#x220f;" horiz-adv-x="1515" 
 />
    <glyph glyph-name="summation" unicode="&#x2211;" horiz-adv-x="1206" 
 />
    <glyph glyph-name="minus" unicode="&#x2212;" horiz-adv-x="1014" 
 />
    <glyph glyph-name="radical" unicode="&#x221a;" horiz-adv-x="1014" 
 />
    <glyph glyph-name="infinity" unicode="&#x221e;" horiz-adv-x="1014" 
 />
    <glyph glyph-name="integral" unicode="&#x222b;" horiz-adv-x="665" 
 />
    <glyph glyph-name="approxequal" unicode="&#x2248;" horiz-adv-x="1014" 
 />
    <glyph glyph-name="lessequal" unicode="&#x2264;" horiz-adv-x="1014" 
 />
    <glyph glyph-name="greaterequal" unicode="&#x2265;" horiz-adv-x="1014" 
 />
    <glyph glyph-name="uniF001" unicode="&#xf001;" horiz-adv-x="1073" 
 />
    <glyph glyph-name="uniF001" unicode="&#xfb01;" horiz-adv-x="1073" 
 />
    <glyph glyph-name="uniF002" unicode="&#xf002;" horiz-adv-x="1081" 
 />
    <glyph glyph-name="uniF002" unicode="&#xfb02;" horiz-adv-x="1081" 
 />
  </font>
</defs>
</svg>
